<?xml version="1.0" standalone="no"?>
<!DOCTYPE svg PUBLIC "-//W3C//DTD SVG 1.1//EN" "http://www.w3.org/Graphics/SVG/1.1/DTD/svg11.dtd" >
<svg xmlns="http://www.w3.org/2000/svg">
<metadata></metadata>
<defs>
<font id="lousiane_light" horiz-adv-x="1705" >
<font-face units-per-em="2048" ascent="1536" descent="-512" />
<missing-glyph horiz-adv-x="389" />
<glyph horiz-adv-x="2048" />
<glyph horiz-adv-x="2048" />
<glyph unicode="&#xd;" horiz-adv-x="389" />
<glyph unicode=" "  horiz-adv-x="389" />
<glyph unicode="&#x09;" horiz-adv-x="389" />
<glyph unicode="&#xa0;" horiz-adv-x="389" />
<glyph unicode="&#x22;" horiz-adv-x="251" d="M20 1411q0 29 2.5 63.5t12.5 67.5q10 23 23.5 52.5t35.5 35.5q23 0 36 -10t13 -27q0 -2 1 -4t1 -4q0 -18 -17 -37.5t-28 -34.5q-14 -29 -26.5 -51t-18.5 -51v-35q2 -4 2 -10q0 -12 -12 -12q-8 0 -10 8q-6 10 -8 24.5t-7 24.5zM174 1411q0 29 2 63.5t12 67.5 q10 23 23.5 52.5t36.5 35.5q23 0 36 -10t13 -27q0 -2 1 -4t1 -4q0 -18 -17.5 -37.5t-27.5 -34.5q-14 -29 -26.5 -51t-18.5 -51v-35q2 -4 2 -10q0 -12 -12 -12q-9 0 -11 8q-6 10 -8 24.5t-6 24.5z" />
<glyph unicode="'" horiz-adv-x="92" d="M20 1411q0 29 2.5 63.5t12.5 67.5q10 23 23.5 52.5t35.5 35.5q23 0 36 -10t13 -27q0 -2 1 -4t1 -4q0 -18 -17 -37.5t-28 -34.5q-14 -29 -26.5 -51t-18.5 -51v-35q2 -4 2 -10q0 -12 -12 -12q-8 0 -10 8q-6 10 -8 24.5t-7 24.5z" />
<glyph unicode="(" horiz-adv-x="450" d="M35 344q0 29 8 44t25 26l16 8q-4 4 -8 5t-8 5q-16 10 -24.5 24.5t-8.5 45.5q0 8 10 24.5t21 20.5q4 2 10 4t10 2q6 4 27 4q16 -4 28.5 -12t20.5 -19q10 -14 20.5 -32.5t38.5 -34.5l12 -6q14 -6 33 -10.5t38.5 -5.5t36.5 -2t30 -1q10 0 19 -2t7 -10q2 -8 -7 -9t-19 -1 q-12 0 -29.5 -1t-37 -3t-38 -5.5t-33.5 -9.5q-8 -4 -12 -8q-29 -16 -39 -33.5t-20 -32.5q-8 -10 -20.5 -19t-28.5 -11q-14 -2 -27 2q-4 2 -10 3t-10 5q-10 4 -20.5 19.5t-10.5 25.5zM195 156q4 27 8 55.5t14 56.5q10 25 23.5 53.5t35.5 28.5q8 0 5.5 -10t-11 -24.5 t-18.5 -32t-16 -31.5q-29 -84 -19 -159t37 -145.5t55.5 -137t34.5 -129.5q4 -35 1 -69t-13 -69q-4 -12 -9.5 -26.5t-13.5 -27.5t-18 -22.5t-25 -9.5q-16 -2 -30.5 7.5t-16.5 25.5q-4 23 14.5 45.5t30.5 40.5q16 23 29.5 46.5t17.5 51.5q4 33 -5 61.5t-19 55.5t-20.5 52.5 t-20.5 54.5q-10 25 -19.5 56.5t-17.5 67t-12 70.5t-2 64zM195 688q-2 29 2 63.5t12 70.5t17.5 69t19.5 57q10 27 20 53.5t21 51.5q10 29 19 57.5t5 58.5q-4 29 -17 52.5t-30 46.5q-12 18 -30.5 40.5t-14.5 45.5q2 16 16.5 25.5t30.5 6.5q29 -2 43.5 -31.5t22.5 -54.5 q10 -35 13 -68.5t-1 -66.5q-6 -66 -34.5 -132t-55.5 -137t-37 -146.5t19 -157.5q6 -14 16 -31.5t18.5 -32t11.5 -24.5t-6 -10q-23 0 -36 29.5t-23 54.5q-10 27 -14 56.5t-8 53.5z" />
<glyph unicode=")" horiz-adv-x="479" d="M68 422q-2 6 7 8t19 2q12 0 29.5 1t37 2t38 5t32.5 11l13 6q29 16 39 34.5t20 34.5q8 10 20.5 18.5t28.5 12.5q23 0 29 -4q4 0 9 -2t9 -4q10 -4 20.5 -21.5t10.5 -25.5q0 -31 -8 -45.5t-25 -24.5q-4 -4 -7 -5t-7 -3q4 -2 7 -4t7 -4q16 -10 24.5 -25.5t8.5 -44.5 q0 -10 -10 -26.5t-21 -20.5q-6 -4 -18 -8t-29 -2q-16 2 -28.5 11t-20.5 19q-10 16 -20.5 34t-38.5 34q-4 4 -13 8q-14 6 -32.5 9.5t-38 5.5t-37 3t-29.5 1q-10 0 -19 1t-7 9zM121 -322q6 63 34.5 130t55.5 137.5t37 145.5t-19 159q-6 14 -16 31.5t-18.5 33t-11.5 25.5t5 10 q23 0 36.5 -29.5t23.5 -54.5q10 -29 14 -56.5t8 -53.5q2 -31 -2 -66t-12 -69.5t-18.5 -67.5t-18.5 -57q-10 -29 -21.5 -54.5t-19.5 -52.5q-10 -25 -19 -54.5t-5 -62.5q4 -29 17 -52t30 -46q12 -16 30.5 -39.5t14.5 -46.5q-2 -16 -16.5 -25.5t-30.5 -7.5q-14 0 -25.5 9.5 t-19 22.5t-12.5 27.5t-9 26.5q-20 70 -12 137zM121 1165q-10 68 12 135q8 25 22.5 54.5t43.5 31.5q16 2 30.5 -7t16.5 -25q4 -23 -14.5 -46.5t-30.5 -39.5q-16 -23 -29.5 -46.5t-17.5 -52.5q-4 -31 5 -60.5t19 -55.5q8 -25 19.5 -51.5t21.5 -53.5q8 -25 18.5 -58.5 t18.5 -68.5t12 -69.5t2 -65.5q-4 -25 -8 -53.5t-14 -54.5q-10 -25 -23.5 -55.5t-36.5 -30.5q-8 0 -5 10t11.5 25.5t18.5 33t16 31.5q29 82 19 157.5t-37 146.5t-55.5 137.5t-34.5 131.5z" />
<glyph unicode="," horiz-adv-x="96" d="M-47 -176q0 18 17.5 37.5t27.5 34.5q14 29 26.5 51t18.5 51v35q-2 4 -2 10q0 12 12 12q8 0 10 -8q6 -10 8.5 -24.5t6.5 -24.5q0 -29 -2 -63.5t-13 -67.5q-10 -23 -23 -52.5t-36 -35.5q-23 0 -36 10t-13 27q0 2 -1 4t-1 4z" />
<glyph unicode="." horiz-adv-x="313" d="M16 129q0 4 3.5 9t3.5 12l-5 4q-2 2 -2 8q6 0 7 14q4 0 2 4t-2 10q14 0 14 13v14l12 6q0 14 8 15q0 6 13 6q0 14 6 14h6q8 0 8 6q2 0 4 2q4 4 10 4h13q0 14 14 15l4 -4q4 -4 8 -5l4 5q4 4 11 4l4 -4q4 -4 10 -5l12 9q14 0 15 -15h12q6 0 10 -4q2 -2 4 -2q0 -6 6 -6h9 q0 -2 2 -4q4 -4 4 -10q14 0 14 -6q0 -2 2 -5q4 -4 4 -10l4 -4q2 -2 9 -2v-14q0 -4 4 -8l4 -5q2 -4 2 -10q0 -2 -2 -4q0 -8 2 -10l4 -4v-12v-21l-4 -4q-2 -2 -2 -10q2 -2 2 -4q0 -6 -2 -9l-4 -4q-4 -4 -4 -10v-14q-4 0 -9 -4q-2 -2 -4 -2q0 -4 -4 -9q-2 -2 -2 -4q0 -8 -14 -8 q0 -4 -4 -8q-2 -2 -2 -4q-4 -2 -9 -2q-6 -4 -6 -6q-4 0 -6 -3.5t-8 -3.5h-12l-15 -14l-12 8l-14 -8q-6 0 -11 4l-4 4q-4 0 -8 -4l-4 -4q-4 6 -9 8t-5 6h-21l-6 7q-4 4 -6 4t-4 2q-2 0 -4 2q-6 0 -6 12q-12 0 -13 8q-8 0 -8 13l-12 6v14q0 14 -14 14q0 4 2 8.5t-2 4.5 q0 14 -7 14z" />
<glyph unicode="/" horiz-adv-x="669" d="M47 6v4q0 8 10.5 9t20.5 1h14h19q25 0 48 9.5t23 48.5l215 1233q0 37 -22.5 46t-44.5 9h-17h-16q-12 0 -21.5 2t-9.5 8v4q0 6 23 6h20h281h18q23 0 23 -6v-4q0 -8 -10.5 -9t-20.5 -1h-14h-19q-23 0 -44 -9t-21 -46l-221 -1233q0 -39 22.5 -48.5t44.5 -9.5h17h16 q12 0 21.5 -2t9.5 -8v-4q0 -6 -23 -6h-20h-281h-18q-23 0 -23 6z" />
<glyph unicode="0" horiz-adv-x="882" d="M41 700q0 66 5 143t19.5 154.5t43 149.5t73.5 127t109.5 89t154.5 34q131 0 211 -72t122 -178.5t55.5 -227t13.5 -219.5q0 -98 -13.5 -222t-55.5 -234.5t-121.5 -186t-211.5 -75.5q-90 0 -154.5 34.5t-109.5 93t-73.5 134t-43 155.5t-19.5 158t-5 143zM147 696 q0 -240 31 -379t76 -209.5t97 -89t95 -18.5t94.5 19.5t96.5 91t75.5 212t30.5 379.5q0 160 -14 272.5t-37.5 188.5t-54.5 120t-63.5 65.5t-65.5 27.5t-62 6t-62.5 -6t-66 -28.5t-63.5 -67.5t-54.5 -121t-38 -189.5t-14.5 -273.5z" />
<glyph unicode="1" horiz-adv-x="581" d="M33 938q0 12 2 23.5t4 21.5q12 51 45 98q27 37 65.5 68t79.5 62.5t78 69.5t60 89q6 16 26 16h29v-1312q0 -39 23.5 -48.5t48.5 -9.5h30q12 0 21.5 -2t9.5 -8v-4q-2 -6 -25 -6l-157 4l-144 -4h-16q-27 0 -27 8t10.5 10t22.5 2h31q25 0 46 9.5t23 48.5v1114q-6 23 -18 22 q-2 0 -3 -1t-3 -1q-41 -25 -78 -44t-65 -42q-14 -12 -25.5 -25.5t-22.5 -31.5q-10 -27 -10 -49q0 -10 1 -18.5t3 -18.5q0 -10 2 -24.5t2 -26.5q0 -18 -6 -27q-10 -12 -24 -12q-6 0 -11.5 2t-11.5 6q-10 6 -13 17.5t-3 23.5z" />
<glyph unicode="2" horiz-adv-x="854" d="M35 0v20q141 135 234 245t143 179q45 63 89 128t79.5 132.5t61.5 139t32 149.5q2 27 3 55.5t1 57.5q0 59 -14.5 112.5t-59.5 86.5q-45 31 -91 48t-91 23q-23 2 -48.5 3t-47.5 1h-29l-31 -4q-35 -4 -58.5 -14t-39.5 -23q-23 -23 -29 -51q0 -2 -1 -3t-1 -3q0 -4 -1 -8 t-1 -8q0 -12 2 -24.5t6 -24.5t9.5 -30t5.5 -32q0 -8 -4 -16q-8 -14 -27 -15q-6 0 -23 4q-14 6 -18 23.5t-4 36.5q0 6 1 13t1 11q4 29 8 45q4 18 19.5 43t45 46.5t72.5 36t101 14.5h26q98 0 176 -33t132.5 -86t84 -120.5t29.5 -137.5q0 -129 -69.5 -254t-198.5 -279 q-74 -86 -164 -180t-170 -176q-2 -4 -2 -12q0 -12 8 -15h379h172q37 0 48.5 25t11.5 59v9v8q0 6 2 19.5t12 13.5q4 -2 5 -9.5t1 -17.5v-18v-52v-141h-778z" />
<glyph unicode="3" horiz-adv-x="727" d="M33 1237v14q2 18 17.5 43t44 47.5t71.5 38t102 15.5q63 0 120.5 -21.5t100.5 -59.5t69 -92.5t26 -119.5q0 -59 -21.5 -104.5t-55.5 -80t-78 -61.5t-89 -49q-4 -4 -4 -6q0 -4 6 -6q70 -10 132.5 -45t108.5 -88.5t72.5 -122t26.5 -146.5q0 -72 -26.5 -144.5t-78 -131 t-127 -95t-176.5 -36.5q-31 0 -61.5 8t-56 19.5t-44 23.5t-26.5 20q-14 10 -29.5 27.5t-15.5 36.5q0 6 2 10q10 25 35 25h6q16 -6 26.5 -26.5t18.5 -35.5q10 -18 23.5 -35.5t33.5 -29.5q20 -10 42 -14.5t51 -6.5h22q29 0 59.5 8.5t59.5 23.5t51.5 34.5t32.5 42.5 q27 53 48 134t21 171q0 92 -23.5 158.5t-60 109.5t-82 64.5t-88.5 21.5q-41 0 -86 -20.5t-75 -50.5q-14 -18 -19.5 -39t-9.5 -43q-2 -16 -4 -40t-16 -34q-6 -6 -17 -6q-14 0 -29 14q-8 8 -8 25q0 16 7.5 32.5t13.5 28.5q12 23 28.5 45.5t38.5 38.5q23 18 50.5 32.5 t58.5 28.5l47 21l25 12q8 2 24 10q25 12 50.5 33t45 51.5t32.5 73.5t13 105q0 82 -21.5 135t-54 85t-71.5 45t-74 13h-4q-59 0 -96 -10t-57.5 -25.5t-27.5 -34t-7 -36.5q0 -20 4 -36t4 -20q-4 -20 -23 -20q-10 0 -19 10t-9 37z" />
<glyph unicode="4" horiz-adv-x="731" d="M33 344q0 12 7 34.5t11 33.5q16 43 44 92t59.5 95t65.5 87t63 72q29 33 60.5 64.5t59.5 64.5l11 14q27 31 51 64.5t37 78.5q8 27 8 62q0 29 -5 57.5t-11 57.5q-4 25 -14.5 56.5t-10.5 59.5q0 20 8 35q8 14 20.5 19.5t22.5 5.5q16 0 27 -6q29 -16 37 -50t8 -69 q0 -10 -1 -22.5t-1 -22.5q-6 -53 -21.5 -108.5t-40.5 -100.5q-43 -78 -107.5 -148.5t-130 -144.5t-122.5 -158t-88 -190q0 -4 4 -10.5t20 -8.5h308q25 0 24 33v318h29q37 0 47 24.5t10 59.5v8v8q0 12 4 21.5t15 9.5q4 0 5 -8.5t1 -18.5v-328v-94q0 -33 24 -33h76h10 q10 0 20.5 -3t10.5 -13q-2 -4 -11 -5t-22 -1h-90q-18 -6 -18 -33v-113v-120q0 -39 22.5 -48.5t46.5 -9.5h37q8 0 16.5 -2t8.5 -12q-2 -6 -25 -6l-159 6l-170 -6q-20 0 -21 10q0 8 10.5 9t22.5 1h31q25 0 47 9.5t22 48.5v204v35q0 23 -18 27h-381q-4 0 -4 8z" />
<glyph unicode="5" horiz-adv-x="788" d="M37 139q10 31 39 25q18 -6 28.5 -27.5t18.5 -36.5q10 -18 21.5 -37.5t31.5 -31.5q23 -14 46.5 -17.5t47.5 -7.5q10 -2 20.5 -2t20.5 -2h21q49 0 103 16.5t99.5 60.5t75 120.5t29.5 197.5q0 80 -18.5 148.5t-53.5 119t-83 79t-105 28.5q-53 0 -88 -17.5t-57.5 -48 t-35 -70.5t-16.5 -83v-4q0 -14 -2 -24.5t-12 -6.5q-6 2 -6 16.5v26.5l2 10v820h22q29 -31 67 -56.5t83 -25.5q43 0 70.5 15t50 33.5t44 34t50.5 15.5q35 0 45 -15.5t10 -31.5t-7 -29.5t-26.5 -23t-54.5 -15.5t-90 -6q-49 0 -77.5 1t-52.5 6t-45.5 14.5t-53.5 25.5 q12 -8 14 -8q-12 2 -16 -16l-2 -582q2 -2 6 -2q16 -4 28 8l4 4q23 23 57 40.5t87 17.5q66 0 132 -28t119.5 -79t87.5 -126t34 -167q0 -90 -33 -165.5t-89.5 -131t-134 -86t-167.5 -30.5q-35 0 -66 3t-57 11q-8 2 -16.5 4t-18.5 6q-14 4 -27.5 11.5t-27.5 15.5 q-16 10 -28.5 22.5t-23.5 22.5q-12 14 -22 29.5t-2 31.5z" />
<glyph unicode="6" horiz-adv-x="669" d="M33 586v36.5t2 34.5q-2 10 -2 19.5v13.5v12l4 9q12 178 52 307t95.5 212t119 123t122.5 40h10h25q51 -2 102 -29q10 -4 23.5 -12.5t23.5 -18.5h2q12 -12 13 -28q-2 -14 -10.5 -24.5t-22.5 -10.5q-16 2 -32.5 19.5t-27.5 27.5q-16 16 -33.5 29.5t-39.5 19.5q-25 6 -47.5 3 t-44.5 -7q-43 -8 -72 -33.5t-48.5 -57.5t-30.5 -67t-17 -61q-16 -55 -34 -174t-26 -326q10 20 27.5 46t43.5 47.5t60.5 36.5t77.5 15q70 0 124 -34.5t90 -91t54.5 -131t18.5 -154.5t-16.5 -151.5t-53.5 -125t-95 -84t-140 -30.5q-78 0 -135.5 33.5t-93 106.5t-53 186.5 t-15.5 273.5zM133 432q0 -129 11.5 -212t35 -130t60.5 -65.5t90 -18.5q68 0 107.5 25.5t61 70.5t27.5 103.5t6 126.5q0 223 -45 329.5t-139 106.5q-61 0 -100 -29.5t-60 -60.5q-27 -39 -41 -96.5t-14 -149.5z" />
<glyph unicode="7" horiz-adv-x="755" d="M29 1174v18v53v141h688v-20l-21 -20q-92 -160 -147 -287t-82 -205l-8 -25q-39 -113 -74 -230.5t-35 -236.5q0 -63 12 -120q4 -14 11.5 -34t7.5 -32q10 -27 29.5 -46t40.5 -36q16 -12 39.5 -27.5t27.5 -37.5v-6q0 -14 -10 -23.5t-27 -13.5q-2 0 -4 -1t-4 -1 q-23 0 -41 20.5t-33 40.5q0 2 -1 2t-1 2q-29 47 -41 94q-12 23 -18 52q-16 53 -26.5 110t-10.5 121q0 78 18.5 166t65.5 192q47 106 108.5 226t114.5 221q8 14 15 29l4 4q2 2 2 3t2 3q4 2 4 10q-2 0 -3 1t-3 1h-39h-404h-77q-41 0 -50.5 -23.5t-9.5 -48.5v-30v-6 q0 -8 -2 -16.5t-12 -8.5q-6 2 -6 25z" />
<glyph unicode="8" horiz-adv-x="827" d="M39 389q0 74 23.5 139.5t65.5 117.5t97.5 88t118.5 52q10 6 13 19.5t-13 23.5q-41 23 -78 48.5t-66.5 59.5t-47 76t-17.5 95q0 55 23.5 112.5t66.5 100.5t105.5 63.5t140.5 4.5q94 -29 156.5 -103t62.5 -178q0 -53 -17.5 -95t-47 -76t-66.5 -59.5t-76 -48.5h-2 q-14 -10 -11 -23.5t11 -19.5q63 -16 119.5 -52t97.5 -88t64.5 -117.5t23.5 -139.5q0 -61 -16 -121.5t-50 -114t-86 -93.5t-126 -60q-35 -14 -68 -16q-96 -6 -170.5 28.5t-126 94t-78 134t-26.5 148.5zM147 416q0 -92 23 -172t49 -135q23 -45 80 -76t113 -35q59 4 115 35 t79 76q27 55 50.5 135t23.5 172q0 72 -16.5 131t-40.5 100q-4 8 -10.5 15.5t-12.5 15.5l-25.5 25.5t-27.5 23.5q-29 20 -66 33.5t-78 13.5q-43 0 -88 -20.5t-82.5 -64.5t-61.5 -111.5t-24 -161.5zM236 1100q0 -61 12 -106.5t32.5 -76t46 -51t50.5 -32.5q16 -8 22 -13 q4 -2 13.5 -2t13.5 2l25 13q25 12 50 32.5t44.5 51t33 75.5t13.5 107q0 70 -16.5 120t-42 82.5t-57.5 51t-64 24.5q-31 -6 -63 -24.5t-57.5 -51t-40.5 -82.5t-15 -120z" />
<glyph unicode="9" horiz-adv-x="710" d="M55 1004q0 80 16.5 151.5t53.5 124.5t95 84t140 31q156 0 229 -140.5t70 -459.5q-2 -213 -39.5 -366t-95 -251t-126 -144t-134.5 -46h-10h-23q-53 2 -104 28q-10 4 -23.5 12.5t-23.5 18.5h-2q-14 12 -10 29q0 14 9 24.5t21 10.5q16 -2 32.5 -19.5t29.5 -28.5 q16 -16 32.5 -29.5t38.5 -19.5q25 -6 47.5 -4t45.5 6q0 2 2 2q43 8 71.5 34t47 57.5t29.5 66.5t18 62q16 55 33.5 173.5t25.5 325.5q-10 -20 -27.5 -45.5t-43 -47t-60.5 -37t-78 -15.5q-72 0 -125 35t-89 91t-54.5 131t-18.5 155zM160 1049q0 -444 182 -445q63 0 101.5 33.5 t58.5 64.5q27 39 41 95.5t14 148.5q0 129 -11 214t-35 134t-60.5 68.5t-90.5 19.5q-68 0 -106.5 -26.5t-60 -72.5t-27.5 -106.5t-6 -127.5z" />
<glyph unicode=":" horiz-adv-x="356" d="M43 158v12v14q0 6 2 9l4 4q0 4 -1 7t-1 7t2 6l8 8v19q4 0 9 4l4 4l6 12l4 4q4 4 10 4l6 13h15q4 4 6 9t8 5h12q2 0 4 2q4 4 11 4h12l14 6q6 0 10 -4q2 -2 5 -2h12q6 0 10 -4q2 -2 4 -2h21q0 -2 2 -4q4 -4 4 -10h14q6 0 6 -6v-7q4 0 8 -4l5 -4q4 0 4 -2t2 -4q0 -4 2 -6 l12 -8v-19l4 -4q4 -4 10 -4q0 -4 -1 -6t-1 -6q0 -6 2 -8v-4q0 -6 6 -9l-4 -4q-2 -2 -2 -10q0 -2 2 -4q4 -4 4 -8q-6 0 -6 -15q-2 0 -2 -6t2 -8q-4 -4 -9 -6t-5 -6v-15l-12 -6q0 -14 -8 -14q0 -4 -4.5 -6t-8.5 -6v-4q0 -4 -6 -5q0 -6 -8 -6h-6l-4 -4q-2 -2 -11 -2q0 -4 -4 -4 q-6 0 -8 -4l-4 -4q-2 -2 -10 -2h-2q-2 0 -2 1t-2 1q-4 0 -6 -2h-15h-14q0 2 -4 2q-2 0 -3 -1t-3 -1h-2q-8 0 -11 2l-4 4q-4 4 -8 4t-4 4q-8 0 -10 2l-4 4h-9q-6 0 -6 6l-4 5q-2 2 -2 10q-14 0 -14 6l-4 4q-2 2 -2 10q-2 0 -4 2q-4 4 -9 4v15q0 4 -4 6t-4 6q-2 0 -2 6t2 8 q0 6 -4 11q-2 2 -2 4zM43 670v14v12q0 2 2 4q4 4 4 11q-2 2 -2 4v6q0 6 5 9t5 7v15q6 0 9 2l4 4q0 8 2 10l4 4q0 6 14 6q0 8 2 10l4 5q0 6 6 6h9q4 0 6 3t8 3q0 2 5 3t7 3l4 4q4 4 11 4l12 -8q0 2 6 6q4 0 8 2q14 0 15 -8q4 0 8 4l4 4q6 0 10 -4l4 -4q2 -4 10 -4q6 0 11 -2 l6 -6q14 0 14 -6q6 0 6 -15q12 0 13 -6q8 0 8 -14l12 -6v-15q0 -4 5 -6t9 -6q-2 -2 -2 -4v-6q0 -4 2 -11.5t6 -7.5q0 -4 -4 -8q-2 -2 -2 -4q0 -8 2 -10l4 -4q-6 -6 -6 -8v-5q-2 -2 -2 -8q0 -4 1 -6t1 -6q-6 0 -10 -4l-4 -4v-19l-12 -8q-2 -4 -2 -6q-4 -6 -6 -6l-5 -4 q-4 -4 -8 -4v-7q0 -6 -6 -6h-14q0 -14 -15 -14h-12l-4 -4q-2 -2 -10 -2h-12l-5 -4q-2 -2 -10 -2q-2 0 -4 2q-4 4 -10 4h-12q-8 0 -11 2l-4 4h-12q-14 0 -14 14h-15l-6 13q-6 0 -10 4l-4 4l-6 12l-4 4q-4 4 -9 4v19l-8 8q-2 2 -2 6t1 7t1 7l-4 5q-2 2 -2 8z" />
<glyph unicode=";" horiz-adv-x="344" d="M37 670v14v12q0 2 2 4q4 4 4 11q-2 2 -2 4v6q0 6 5 9t5 7v15q6 0 8 2l4 4q0 8 3 10l4 4q0 6 14 6q0 8 2 10l4 5q0 6 6 6h8q4 0 6.5 3t8.5 3q0 2 5 3t7 3l4 4q4 4 10 4l13 -8q0 2 6 6q4 0 8 2q14 0 14 -8q4 0 9 4l4 4q6 0 10 -4l4 -4q2 -4 10 -4q6 0 10 -2l7 -6 q14 0 14 -6q6 0 6 -15q12 0 12 -6q8 0 9 -14l12 -6v-15q0 -4 5 -6t9 -6q-2 -2 -2 -4v-6q0 -4 2 -11.5t6 -7.5q0 -4 -4 -8q-2 -2 -2 -4q0 -8 2 -10l4 -4q-6 -6 -6 -8v-5q-2 -2 -2 -8q0 -4 1 -6t1 -6q-6 0 -10 -4l-4 -4v-19l-12 -8q-2 -4 -2 -6q-4 -6 -7 -6l-4 -4q-4 -4 -8 -4 v-7q0 -6 -6 -6h-14q0 -14 -15 -14h-12l-4 -4q-2 -2 -10 -2h-13l-4 -4q-2 -2 -10 -2q-2 0 -4 2q-4 4 -10 4h-13q-8 0 -10 2l-4 4h-12q-14 0 -15 14h-14l-6 13q-6 0 -10 4l-4 4l-7 12l-4 4q-4 4 -8 4v19l-8 8q-2 2 -2 6t1 7t1 7l-4 5q-2 2 -2 8zM74 -176q0 18 17.5 37.5 t27.5 34.5q14 29 26.5 51t18.5 51v35q-2 4 -2 10q0 12 12 12q8 0 10 -8q6 -10 8.5 -24.5t6.5 -24.5q0 -29 -2 -63.5t-13 -67.5q-10 -23 -23.5 -52.5t-35.5 -35.5q-23 0 -36 10t-13 27q0 2 -1 4t-1 4z" />
<glyph unicode="&#x3c;" horiz-adv-x="503" d="M68 334q0 33 8 47t22 25q8 6 17 8q-8 2 -17 8q-14 10 -22 24.5t-8 45.5q0 10 10 25t20 20q8 6 17 8q16 4 28 2q18 -2 30.5 -11.5t19.5 -19.5q10 -14 21 -31.5t40 -35.5l12 -7q29 -12 70.5 -15t64.5 -3q27 0 27 -10t-27 -11q-23 0 -64.5 -3t-70.5 -15l-12 -6 q-29 -16 -40 -35.5t-21 -32.5q-6 -10 -18.5 -19t-31.5 -11q-12 -2 -28 2q-8 2 -17 8q-10 4 -20 19.5t-10 23.5zM70 -117q4 10 19 18.5t26 14.5q16 8 28.5 17.5t20.5 23.5q10 16 12 34.5t4 35.5q2 16 2 32.5t2 32.5q2 33 10.5 77t24.5 77q6 12 16.5 26.5t22.5 24.5l10 10 t13 10q10 18 28 19q8 0 5 -10.5t-11 -24.5t-18.5 -31.5t-16.5 -31.5q-29 -82 -18.5 -157t35 -145.5t53.5 -137t37 -130.5q10 -70 -15 -133q-6 -25 -20 -54.5t-41 -33.5q-16 0 -30.5 8t-16.5 25q-4 23 14.5 45t30.5 39q16 23 28.5 46t14.5 54q4 31 -4 59.5t-17 55.5 q-10 27 -20 52.5t-20 53.5q-10 25 -20.5 56.5t-19 66.5t-12.5 70t-2 65q4 25 9.5 53.5t15.5 57.5q8 16 10 27q-35 -37 -46 -79t-14 -85t-4 -85t-14 -79q-8 -37 -39 -70q-10 -10 -25.5 -23.5t-29.5 -6.5q-10 4 -16 12t-2 18zM70 954q-4 10 2 17.5t16 11.5q14 4 29.5 -8 t25.5 -23q31 -37 39 -69q12 -37 13.5 -79t4.5 -85t14 -86t46 -80q-2 14 -10 29q-10 29 -15.5 56.5t-9.5 51.5q-2 31 2 66t12.5 69.5t18.5 67.5t21 57q10 27 20 53.5t20 51.5q8 29 16.5 56.5t4.5 57.5q-2 31 -14.5 54.5t-28.5 46.5q-12 16 -30.5 39.5t-14.5 44.5 q2 16 16.5 25.5t30.5 6.5q27 -2 41 -31.5t20 -54.5q25 -63 15 -135q-8 -63 -37 -128.5t-53.5 -136.5t-34.5 -145.5t18 -156.5q6 -16 16.5 -32.5t18.5 -32t11 -24.5t-5 -9q-18 0 -28 16q-6 4 -12.5 10t-10.5 11q-29 29 -39 55q-16 29 -24.5 74t-10.5 77q-2 16 -2 32t-2 32 q-2 18 -4 35.5t-12 34.5q-8 16 -20.5 24.5t-28.5 16.5q-10 6 -25.5 14t-19.5 22z" />
<glyph unicode="&#x3e;" horiz-adv-x="477" d="M49 426q0 10 27 10q23 0 64.5 3t70.5 16l12 6q29 16 39 34.5t21 32.5q10 10 21 19.5t30 11.5q14 2 26 -2q8 -2 17 -8q10 -4 20.5 -19.5t10.5 -25.5q0 -31 -8.5 -45.5t-22.5 -24.5q-8 -6 -17 -8q9 -2 17 -8q14 -10 22.5 -24.5t8.5 -45.5q0 -10 -10.5 -25.5t-20.5 -19.5 q-8 -6 -17 -8q-12 -4 -26 -2q-18 2 -29.5 11t-21.5 20q-10 12 -20.5 31.5t-39.5 35.5l-12 6q-29 12 -71 15.5t-64 3.5q-27 0 -27 10zM101 1235q3 33 14 65q8 25 22.5 54.5t40.5 34.5q18 0 31.5 -8.5t17.5 -24.5q2 -23 -16 -46.5t-29 -39.5q-16 -23 -28.5 -45.5t-16.5 -50.5 q-4 -33 4.5 -62t18.5 -55q8 -25 18 -50.5t21 -54.5q8 -25 18 -56.5t18.5 -66t12.5 -69.5t2 -64q-4 -55 -23 -110q-4 -6 -5 -13.5t-5 -13.5q33 37 45 78t15.5 84t4.5 85t13 79q6 18 15 35.5t24 31.5l24.5 24.5t28.5 6.5q25 -8 19 -29q-4 -12 -19.5 -19t-26.5 -13 q-14 -10 -25 -18.5t-22 -22.5q-10 -16 -12 -35t-4 -35t-2 -32.5v-33.5q-4 -31 -12.5 -75.5t-24.5 -75.5q-8 -12 -18.5 -26.5t-20.5 -24.5l-20 -21q-14 -18 -29 -18q-10 0 -7 10t11 24.5t18.5 32t16.5 31.5q29 82 18.5 157t-36 144.5t-54 135t-35.5 130.5q-4 33 -1 66z M101.5 -390q-3.5 34 0.5 66q6 63 35 129t54.5 136.5t36 145.5t-18.5 157q-6 14 -16.5 30.5t-18.5 30.5t-11 24.5t7 10.5q16 0 29 -16l20 -21q25 -29 39 -53q16 -29 24.5 -75t12.5 -77v-32.5t2 -32.5t4 -33.5t12 -34.5q10 -16 21.5 -24.5t25.5 -16.5q10 -6 25.5 -14t20.5 -21 q6 -20 -19 -28q-14 -6 -28.5 7t-24.5 23q-27 29 -39 68q-12 37 -13 79t-4.5 85t-15.5 85t-45 79q4 -8 5 -15.5t5 -13.5q18 -55 23 -108q2 -29 -2 -64t-12.5 -69.5t-18.5 -67.5t-18 -58q-10 -27 -20.5 -53t-18.5 -51q-10 -27 -18.5 -54.5t-4.5 -62.5q4 -29 16.5 -51t28.5 -45 q10 -16 28.5 -39.5t16.5 -44.5q-4 -16 -17 -25.5t-32 -7.5q-27 2 -41 32t-22 54q-10 33 -13.5 67z" />
<glyph unicode="A" horiz-adv-x="1128" d="M23 2q-1 3 -1 5q0 5 7 6q10 1 20 1h69t56 17q8 10 22.5 40.5t33 71.5t38 89.5t37.5 91.5q6 18 14.5 41.5t22.5 63.5t36.5 104.5t58.5 165t87 244.5t125 347v21q0 25 -11 37t-26.5 16t-34 3t-30.5 -1q-14 0 -24.5 1t-10.5 11q4 6 18.5 7t30.5 1h115h43h117q16 0 29.5 -1 t17.5 -7q0 -10 -8.5 -11t-24.5 -1q-12 0 -29.5 1t-33 -3t-25.5 -16.5t-10 -36.5l221 -1241q0 -25 10 -37.5t25.5 -16.5t32 -3t30.5 1q35 0 35 -12q-5 -9 -17 -9h-3q-14 1 -31 1l-117 6h-41l-117 -6q-14 0 -28 -1h-3q-12 0 -18 9q0 12 37 12q12 0 28.5 -1t31 3t24.5 16.5 t10 37.5l-100 600q-152 -51 -268.5 -140.5t-176.5 -230.5q-16 -41 -32.5 -85t-29.5 -83t-19.5 -66.5t0.5 -33.5q16 -16 52 -16.5t70 -0.5q14 0 25.5 -1t5.5 -11q0 -6 -16.5 -7t-26.5 -1l-123 6h-43l-114 -6q-12 0 -27.5 1t-15.5 7zM453 641q-1 -4 -1 -8q0 -23 20 -39 q17 -14 40 -14q8 0 16 2q14 4 44 18t63 30.5t64.5 33t52.5 26.5l-95 557q-51 -156 -84.5 -258t-56 -165.5t-35 -94.5t-18.5 -46t-7 -22.5t-3 -19.5z" />
<glyph unicode="B" horiz-adv-x="880" d="M41 10q0 8 10 9t21 1h30q25 0 47.5 9.5t22.5 48.5v1233q0 37 -22.5 46t-47.5 9h-30h-6q-8 0 -16.5 2t-8.5 12q2 6 25 6h18h162h125q12 -2 31.5 -5t29.5 -3q100 -18 170 -86.5t98 -167.5q10 -29 13.5 -55.5t3.5 -54.5q0 -86 -35 -161t-82 -122q-2 -2 -4 -3t-4 -5 q88 -25 148.5 -90.5t88.5 -155.5q10 -29 13.5 -55.5t3.5 -54.5q0 -86 -35 -161t-82 -122q-31 -31 -73 -48.5t-85 -24.5t-80.5 -9t-62.5 -2h-8h-17h-38h-281h-23q-20 0 -20 10zM276 78q0 -41 25 -50.5t49 -9.5h27h16q6 0 13 2h34q51 0 98.5 4.5t87.5 18.5t68.5 42t40.5 75 q10 39 13.5 87t3.5 95v41q0 61 -4.5 115.5t-26.5 95.5q-18 35 -53 59q-6 4 -13.5 10.5t-19.5 10.5q-23 8 -47 8q-23 0 -49.5 -6t-61.5 -12.5t-81 -12.5t-109 -6h-11v-567zM276 668h35q51 0 98.5 4t87.5 18.5t68.5 42t40.5 74.5q10 33 12.5 72t2.5 79v72v41q0 49 -5.5 92 t-23.5 78q-27 51 -92.5 85t-134.5 40h-23q-23 0 -44.5 -9t-21.5 -46v-643z" />
<glyph unicode="C" horiz-adv-x="976" d="M45 412v276v277v8t2 16v8q2 10 4 19.5t4 17.5q8 39 23 78q23 49 66.5 105.5t117.5 101.5q33 20 70 37q33 14 72.5 26.5t87.5 12.5h16h12q29 0 64 -11q43 -6 84 -22q104 -47 170.5 -133t97.5 -203q4 -16 4 -25q4 -29 6 -56t2 -56v-21.5t-2 -21.5q-4 -35 -14 -69t-37 -42 q-6 -2 -16 -2q-23 0 -34 12.5t-16 28.5v6q0 23 15.5 44.5t25.5 33.5l2 2q16 18 31 39t19 39q2 8 2 23q0 16 -2 31.5t-2 31.5l-2 4q-18 72 -57.5 131.5t-74.5 93.5q-74 74 -174 105q-43 14 -102 14h-14h-11q-16 0 -45.5 -4t-65.5 -16.5t-75 -38t-70 -68.5q-4 -4 -9 -12 t-7 -10q0 -2 -6 -9q-20 -35 -29 -53l-4 -8q-12 -43 -18 -94l-1 -4t-1 -25.5v-66.5v-127t1 -208t1 -311q6 -47 18 -92l35 -65l20 -29q43 -59 110 -90t146 -37h17h8q27 0 52.5 4t51.5 10q53 16 95.5 43t74.5 60q35 35 75 94t59 133q0 4 2 8q6 25 6 47q0 14 -4 35 q-4 16 -19.5 40t-32.5 40q-10 12 -25.5 32.5t-15.5 43.5v6q4 16 15.5 29.5t34.5 13.5q10 0 16 -2q27 -8 37 -41t14 -68q2 -10 2 -22v-23q0 -29 -2 -57.5t-6 -54.5q0 -10 -4 -23q-57 -242 -268 -338q-18 -8 -40 -13t-44 -9q-41 -10 -76 -10h-16q-47 0 -87 11t-73 25 q-37 16 -70 37q-74 47 -118 103.5t-66 105.5q-6 18 -12.5 38t-10.5 40l-8 37z" />
<glyph unicode="D" horiz-adv-x="1034" d="M33 10q0 8 10 9t20 1h31q25 0 47.5 9.5t22.5 48.5v1233q0 37 -22.5 46t-47.5 9h-31h-6q-8 0 -16 2t-8 12q2 6 24 6h19h266h55h9q231 0 376.5 -85t192.5 -259q18 -72 18 -165v-246v-117q-2 -47 -5 -88t-13 -78q-29 -104 -92.5 -181t-155.5 -126q-47 -25 -129 -33t-168 -8 h-41h-33h-280h-23q-20 0 -20 10zM268 78q0 -39 22.5 -48.5t47.5 -9.5h31h94q55 0 104 5.5t95 17.5q61 18 114 52t78 87q23 51 27 119t4 143q0 145 -2 286.5t-2 293.5q0 70 -14.5 130t-49.5 97q-57 63 -163.5 90t-223.5 27h-61h-23q-27 0 -52.5 -8t-25.5 -49v-1233z" />
<glyph unicode="E" horiz-adv-x="874" d="M42 18q9 2 21 2h31q25 0 47.5 9.5t22.5 48.5v1233q0 37 -21.5 47t-44.5 10q-10 0 -18 -1t-17 -1q-8 0 -19 6t-11 8q2 6 24 6h19h758v-88v-174v-71v-6q0 -8 -2.5 -17.5t-12.5 -9.5q-12 4 -12 29q0 14 2 29.5t2 31.5v6q-4 162 -104 223q-23 16 -115 21.5t-234 7.5 q-25 0 -57.5 -10t-32.5 -47v-389q29 -4 86.5 -4h120.5q39 0 76 4t55 20q14 14 17.5 38t13.5 46q10 18 19.5 43t27.5 25q4 0 4 -4q0 -10 -14.5 -34t-22.5 -42q-10 -25 -13 -49.5t-3 -46.5q0 -49 14.5 -96.5t32.5 -91.5t34.5 -87t20.5 -84q2 -6 2 -13v-14q0 -41 -12 -79 q-6 -20 -18.5 -44t-34.5 -24q-10 0 -23.5 12.5t-13.5 14.5q0 16 13.5 33.5t23.5 31.5l4 4q10 16 19.5 35t13.5 41v12q0 23 -7.5 42.5t-13.5 37.5q-14 43 -31 84q-6 18 -13 42t-16 46.5t-21.5 41t-28.5 26.5q-14 6 -32 8t-36 2q-59 0 -119.5 -2t-124.5 -4v-815 q0 -43 31 -50.5t68 -7.5h8h69q43 0 87 1.5t84 4.5t69 7t41 12q51 31 76.5 87t29.5 134q0 14 -3 33.5t-3 36.5q0 29 17 29q10 0 11 -13.5t1 -23.5q0 -66 -1 -134.5t-1 -132.5v-61h-776h-17q-26 0 -26 7q0 9 9 11z" />
<glyph unicode="F" horiz-adv-x="868" d="M27 4q0 8 10 9t20 1h31q25 0 47.5 9.5t22.5 48.5v1239q0 37 -22.5 46t-47.5 9h-31h-6q-8 0 -16 2t-8 12q2 6 24 6h19l761 -2v-262v-71v-7q0 -8 -2 -17t-12 -9q-12 4 -12 29q0 14 2 29.5t2 31.5v6q-4 162 -104 225q-12 8 -43 13.5t-71 8.5t-85 4t-88 1h-43h-10h-31 q-25 0 -47.5 -9t-22.5 -46v-396h47h43q39 0 76 4.5t55 20.5q14 14 18.5 37.5t14.5 46.5q8 18 17.5 42t27.5 24q4 0 4 -5q0 -10 -14 -32.5t-23 -40.5q-10 -25 -13 -49.5t-3 -47.5q0 -51 14.5 -98t33 -91t34.5 -87t20 -84q2 -6 2 -13v-14q0 -41 -12 -79q-6 -18 -17 -44 t-34 -28q-33 0 -37 29v4q0 16 12.5 33.5t22.5 29.5q12 18 23.5 36.5t13.5 41.5v12q0 23 -7.5 43.5t-13.5 38.5q-14 45 -30 82q-6 20 -13.5 44t-16.5 47.5t-21.5 42t-28.5 26.5q-14 6 -31.5 8t-36.5 2q-18 0 -38.5 -1t-39.5 -1q-16 -2 -27.5 -2h-21.5v-821q0 -39 22.5 -48.5 t47.5 -9.5h31h6q8 0 16 -2t8 -12q-2 -6 -24 -6h-19l-143 6l-139 -6h-23q-20 0 -20 10z" />
<glyph unicode="G" horiz-adv-x="1075" d="M37 416v547v14q2 4 2 14q2 10 4 18.5t2 18.5q8 41 25 84q23 53 65.5 109.5t116.5 103.5q33 18 70 35q33 14 74.5 25.5t88.5 11.5h13h12q31 0 65 -11q43 -6 82 -22q213 -90 271 -336q0 -6 2 -12t2 -12q4 -27 6 -54.5t2 -56.5v-21.5t-2 -21.5q-4 -35 -14.5 -68.5 t-38.5 -42.5q-4 0 -6 -1t-7 -1q-16 0 -33.5 12.5t-17.5 36.5q0 23 16.5 44.5t26.5 33.5q2 2 2 3t2 3q16 16 28.5 36t16.5 36q4 20 5 33q0 25 -7 47q0 2 -1 3t-1 5q-20 72 -59 132.5t-74 94.5q-35 35 -78 62t-96 41q-43 14 -102 14h-11h-10q-16 0 -46 -4t-65.5 -16.5 t-74.5 -37t-72 -67.5q-23 -25 -35 -47t-20 -45q-8 -25 -13.5 -49.5t-9.5 -52.5v-723q0 -8 2 -13q4 -47 19.5 -83.5t38.5 -69.5q43 -61 109.5 -103.5t162.5 -46.5h17q90 0 166.5 31t125.5 82q25 27 48.5 56.5t44.5 68.5q12 23 24 58.5t14 72.5q-2 29 -5 53.5t-11 32.5 q-10 12 -31.5 17.5t-44.5 5.5q-14 0 -27.5 -1t-25.5 -1t-21.5 2t-9.5 8v4q2 6 25 6h18h234q26 0 26 -9q0 -11 -14 -11h-27q-16 0 -24 -4.5t-21 -20.5q-10 -14 -14 -35.5t-8 -46.5v-12q-2 -25 -2 -48.5v-45.5q0 -47 1 -92.5t1 -88.5v-47q0 -8 1 -14t1 -10q0 -10 -3 -11.5 t-7 -1.5q-10 0 -11 21q0 4 -2 17.5t-5 27.5t-9 26.5t-12 18.5q-8 8 -25 8q-12 0 -25.5 -5t-21.5 -11q-23 -14 -39 -29.5t-39 -32.5q-47 -31 -98 -47q-55 -22 -132 -22h-7h-21q-14 0 -26.5 2t-26.5 4q-78 12 -143 47l-41 24q-59 39 -96 84.5t-60 88.5q0 2 -10 23.5t-15 35.5 l-12 41q-8 27 -10 47v10q-2 6 -2 23z" />
<glyph unicode="H" horiz-adv-x="1161" d="M41 4q0 8 9 10t22 2q14 0 28.5 -1t30.5 -1q18 0 34.5 4.5t27.5 14.5q16 14 20 41.5t4 60.5q0 23 -1 44.5t-1 39.5v944q0 18 1 40t1 44q0 33 -4 60.5t-20 44.5q-10 10 -25.5 13t-34.5 3q-16 0 -30.5 -1t-30.5 -1q-10 0 -20.5 7t-10.5 9q0 4 16 4h27h283h24q18 0 19 -6 q0 -8 -9.5 -11t-21.5 -3q-16 0 -30.5 1t-31.5 1q-18 0 -33.5 -3t-25.5 -13q-16 -16 -19 -50t-3 -69v-70v-237h696v237q0 16 1 36t1 42q0 35 -4 64.5t-19 46.5q-10 10 -25.5 13t-33.5 3q-16 0 -30.5 -1t-30.5 -1q-10 0 -20.5 2t-10.5 10v4q0 4 16 4h27h282h27q12 0 14 -4v-4 q0 -8 -9 -10t-21 -2q-14 0 -28.5 1t-31.5 1q-18 0 -33.5 -3t-25.5 -13q-16 -16 -20.5 -44t-4.5 -61q0 -23 1 -44t1 -40v-944q0 -16 -1 -38.5t-1 -45.5q0 -33 4.5 -60.5t20.5 -41.5q10 -10 26.5 -14.5t34.5 -4.5q14 0 28.5 1t29.5 1q12 0 21 -2t9 -8v-4q-2 -6 -18 -6h-23 l-120 6l-162 -6q-6 0 -12.5 -1t-12.5 -1q-18 0 -18 12q0 8 10 9t21 1q14 0 29.5 -1t29.5 -1q18 0 34.5 4.5t26.5 14.5q14 16 18.5 43.5t4.5 60.5q0 23 -1 44.5t-1 37.5v600h-696v-600v-69q0 -35 3 -68t19 -49q10 -10 26.5 -14.5t34.5 -4.5q16 0 31 1t29 1q8 0 19.5 -6 t11.5 -8q-2 -6 -19 -6h-24l-119 6l-164 -6h-23q-20 0 -20 8z" />
<glyph unicode="I" horiz-adv-x="442" d="M42 14q9 2 21 2h31q25 0 47.5 9.5t22.5 48.5v1239q0 37 -22.5 46t-47.5 9h-31q-6 0 -18 2t-12 12q2 6 24 7h19h282h19q23 0 24 -7v-4q0 -6 -9 -8t-21 -2h-31q-25 0 -47.5 -9t-22.5 -46v-1239q0 -39 22.5 -48.5t47.5 -9.5h31q12 0 21 -2t9 -8v-4q-2 -6 -24 -6h-19l-118 6 l-164 -6h-17q-26 0 -26 7q0 9 9 11z" />
<glyph unicode="J" horiz-adv-x="905" d="M39 10q0 10 20 10h50q16 0 28.5 4.5t12.5 20.5q0 12 -8.5 26.5t-24.5 39.5q-41 57 -59.5 106t-18.5 111q0 57 18.5 116.5t49 107.5t68.5 79t75 31q10 0 17 -5.5t7 -21.5q0 -20 -14 -31.5t-34.5 -18.5t-41 -12.5t-32.5 -13.5q-51 -33 -74 -92t-23 -145q0 -51 21.5 -98.5 t44.5 -80.5q45 -61 95 -87.5t108 -35.5q39 -5 80 -5q20 0 40 1q43 3 88 3q23 0 46 -1q23 2 39 13.5t16 46.5v1233q0 37 -22.5 46t-47.5 9h-31q-12 0 -21 2t-9 8v4q2 6 24 6h19h280h17q26 0 26 -7q0 -9 -9 -11t-21 -2h-31q-25 0 -47.5 -9t-22.5 -46v-1233q0 -39 22.5 -48.5 t45.5 -9.5h31h6q8 0 17 -2t9 -12q-2 -6 -24 -6h-19h-700h-49q-37 0 -37 10z" />
<glyph unicode="K" horiz-adv-x="1132" d="M57 2q0 8 10.5 10t22.5 2h31q23 0 45 9.5t22 48.5v1239q0 37 -22.5 46t-44.5 9h-31h-6q-8 0 -17.5 2t-9.5 12q2 6 25 6h18h283h18q23 0 25 -6v-4q0 -6 -9 -8t-22 -2h-30q-25 0 -48.5 -9t-23.5 -46v-619q0 -16 7 -28.5t22 -12.5q14 0 30 25q33 66 76 155t83 169.5 t67.5 138t27.5 59.5q20 43 55 79t77 63.5t85 43t80 15.5q31 0 53 -13q12 -8 13 -20q0 -10 -4 -16q-12 -20 -43 -21q-25 0 -53.5 8.5t-51.5 8.5q-25 -2 -51.5 -13.5t-50 -28t-43 -38t-31.5 -41.5q-12 -23 -45 -85.5t-73 -143.5t-82 -167t-72 -151q0 -2 -1 -3t-1 -3q0 -8 6 -8 h4q6 0 10 2q14 0 25.5 1t21.5 1q27 0 46.5 -3t41.5 -10q2 0 4 -1t4 -1q37 -12 71 -32.5t58 -49.5q8 -10 24.5 -38.5t33 -62.5t29 -62.5t16.5 -36.5q16 -41 44 -96.5t55.5 -107.5t51 -90t29.5 -46q10 -10 27.5 -14.5t38.5 -4.5q14 0 28.5 2t26.5 2t21.5 -2t9.5 -12 q-2 -6 -43 -8l-136 4l-170 -4q-20 0 -20 10q0 8 10 9t21 1q12 0 26.5 -1t28.5 -1q23 0 40 4t28 15q2 2 2 8q0 14 -15.5 53t-36 86t-44 96.5t-37.5 85.5q-4 8 -16.5 37t-29 63t-33 63.5t-26.5 37.5q-47 43 -95 62.5t-91 19.5q-76 0 -123 -41q-23 -16 -32 -32.5t-9 -51.5v-446 q0 -39 23.5 -48.5t48.5 -9.5h30q12 0 21.5 -2t9.5 -8v-4q-2 -6 -25 -6l-159 4l-142 -4h-16q-27 0 -27 8z" />
<glyph unicode="L" horiz-adv-x="968" d="M84 6v4q0 6 9 8t22 2h28q25 0 48.5 8.5t23.5 49.5v1233q0 37 -21.5 47t-43.5 10q-10 0 -18.5 -1t-16.5 -1q-12 0 -21.5 2t-9.5 8v4q2 6 25 6h18h281h16q27 0 27 -8t-10.5 -10t-22.5 -2q-6 0 -14.5 1t-18.5 1q-23 0 -44.5 -10t-21.5 -47v-1233q0 -37 24 -47.5t58 -10.5h9 h8q10 0 14 3h53q41 0 84 1t81 4t66.5 8t41.5 11q100 63 104 223q0 14 -3 34t-3 36q0 29 16 29q10 0 11.5 -14.5t1.5 -22.5v-332h-758h-18q-23 0 -25 6z" />
<glyph unicode="M" horiz-adv-x="1181" d="M35 2v4q0 6 9 8t22 2q12 0 25 -1t28 -1q20 0 37.5 4.5t27.5 14.5q16 16 19.5 49t3.5 68v69v944q0 16 1 37t1 41q-2 35 -6 64.5t-19 46.5q-10 10 -27.5 14t-37.5 4q-14 0 -27.5 -1t-25.5 -1t-21.5 2t-9.5 8v4q2 6 24 7h19h282h19q20 0 22 -7v-4q0 -6 -9 -8t-21 -2t-25.5 1 t-28.5 1q-20 0 -37.5 -4t-27.5 -14q-14 -16 -18.5 -46t-4.5 -63v-37q10 -18 26.5 -37.5t33 -38t32 -33t23.5 -20.5q18 -14 45 -37.5t58.5 -50t65.5 -56.5t65 -56l340 270v164q0 39 -23 48t-47 9h-31q-12 0 -21.5 2t-9.5 8v4q2 6 25 7h18h283h18q21 -1 23 -7q0 -14 -27 -14 h-26q-27 0 -51.5 -9t-24.5 -48v-1239q0 -37 22.5 -46.5t45.5 -9.5h30q12 0 21.5 -2t9.5 -8v-4q-2 -6 -25 -6l-153 4l-148 -4h-16q-23 0 -25 6v4q0 6 9.5 8t21.5 2h31q25 0 47.5 9.5t22.5 46.5v1050l-326 -258l98 -88q10 -10 20.5 -19t14.5 -24q2 -8 2 -16v-19v-36l-2 -52 q2 -10 2 -15v-9q0 -51 -18 -76q-10 -14 -24.5 -25.5t-31.5 -15.5q-18 -6 -39 -6q-29 0 -47 8q-31 14 -49 47q-14 25 -14 51q0 8 4 29q12 59 65 76q4 2 10.5 4t14.5 2q16 0 18 -14q0 -10 -9 -15.5t-21.5 -8.5t-25.5 -5t-19 -4q-14 -8 -20.5 -23.5t-6.5 -34.5q0 -33 14 -57 q10 -18 33 -31.5t55 -13.5h17q29 4 53.5 22.5t28.5 47.5v4q0 4 1 9t1 11q0 10 -2 20.5t-13 26.5q-29 37 -75.5 82t-97 88t-95.5 80t-65 56l-103 90q-10 10 -13 12t-9 8q-4 4 -7.5 7t-7.5 7v-825v-69q0 -35 3.5 -68t19.5 -49q10 -10 27.5 -14.5t37.5 -4.5q14 0 27.5 1t26.5 1 q12 0 21 -2t9 -8v-4q-2 -6 -22 -6h-19l-147 4l-154 -4q-23 0 -24 6z" />
<glyph unicode="N" horiz-adv-x="1142" d="M27 0q0 8 9 10t21 4q16 0 30.5 -1t31.5 -1q18 0 33.5 3t25.5 14q16 18 20.5 55t4.5 76v57v946v51v31q0 33 -4 61.5t-19 43.5q-10 10 -27.5 14t-35.5 4q-16 0 -30.5 -1t-29.5 -1q-8 0 -19 6t-11 8q2 6 24 6h19h282h17q27 0 26 -8q0 -8 -9 -10t-21 -2q-14 0 -28.5 1 t-31.5 1q-18 0 -34.5 -4t-26.5 -14q-14 -16 -18.5 -46t-4.5 -65v-37q10 -16 20.5 -27.5t14.5 -19.5q23 -25 75 -69t118.5 -99t140.5 -113.5t138.5 -109.5t110.5 -90t60 -51l21 -25v565v13q0 12 1 26.5t1 30.5q0 35 -4.5 67.5t-20.5 49.5q-10 10 -26.5 14t-34.5 4 q-14 0 -28.5 -1t-29.5 -1h-6q-8 0 -16 2t-8 12q2 6 24 6h19h282h19q20 0 22 -6q0 -14 -22 -14q-10 0 -24.5 1t-31.5 1q-20 0 -38.5 -4t-32.5 -14q-16 -16 -20.5 -50t-4.5 -71v-66v-946v-67q0 -35 4 -70t21 -51q10 -10 25.5 -13.5t33.5 -3.5q16 0 30.5 1t28.5 1 q12 -2 21.5 -4t9.5 -8v-4q-4 -6 -14 -6q-6 0 -13.5 1t-13.5 1l-139 6l-143 -6q-8 0 -14.5 -1t-12.5 -1q-16 0 -16 10q0 8 10 9t20 3q16 0 30.5 -1t31.5 -1q18 0 32.5 3t24.5 14q16 16 19.5 49t3.5 67v72v242q-35 37 -93.5 88t-126 107.5t-141.5 115.5t-137.5 111.5 t-113.5 93.5t-72 61l-15 15v-834v-57q0 -39 4 -76t21 -55q10 -10 24.5 -13.5t32.5 -3.5q16 0 30.5 1t31.5 1q6 0 18 -3t12 -13q-4 -6 -16 -6q-6 0 -13.5 1t-13.5 1l-141 6l-141 -6h-25q-18 0 -18 6z" />
<glyph unicode="O" horiz-adv-x="985" d="M37 418v540v3v16q2 20 9 61t29.5 90.5t63.5 100.5t109 94q39 20 80 37q35 14 75.5 24.5t79.5 10.5h13q39 0 79.5 -10.5t75.5 -24.5q39 -16 80 -37q66 -41 106 -90t62.5 -96t31.5 -88t11 -64l2 -18v-27t-1 -63.5t-1 -89v-101.5v-276q0 -20 -8 -61.5t-29.5 -91.5 t-63.5 -102.5t-110 -95.5q-41 -20 -80 -36q-35 -15 -75 -27q-35 -11 -69 -10h-11h-13h-11q-34 0 -69 10q-41 12 -75 27q-41 16 -80 36q-59 41 -98 86t-64 93q-2 2 -11 22.5t-14 34.5q-16 41 -20 74.5t-4 48.5zM143 319q0 -27 9 -55q6 -25 22 -58.5t45 -70.5q39 -51 86 -76.5 t88 -35.5q49 -12 96 -13q47 0 97 13q41 10 88 35.5t88 76.5q47 63 60.5 112.5t15.5 65.5v758q-2 16 -14.5 65.5t-61.5 110.5q-41 51 -89 77t-89 36q-49 12 -97 12q-47 0 -94 -12q-41 -10 -88 -36t-86 -77q-29 -35 -43 -65.5t-22.5 -56t-9.5 -42t-1 -18.5v-746z" />
<glyph unicode="P" horiz-adv-x="829" d="M32 12q9 2 21 4q8 0 16.5 -1t18.5 -1q23 0 44.5 10.5t21.5 47.5v1239q0 37 -21.5 47t-44.5 10q-10 0 -18.5 -1t-16.5 -1q-6 0 -18 2t-12 12q2 6 20 6h23h280q27 0 53.5 -1t55.5 -1l55 -6q100 -18 170 -86.5t98 -165.5q10 -29 13.5 -56.5t3.5 -55.5q0 -88 -34 -163 t-83 -122q-31 -31 -71 -48t-83 -25.5t-87 -10.5t-87 -2h-92v-571q0 -37 24.5 -47.5t59.5 -10.5h8h8h7q8 0 16 -2t8 -12q-2 -6 -24 -6h-19l-119 6l-161 -6h-17q-26 0 -26 7q0 9 9 11zM258 666h94h35q51 0 99.5 4t87 18t67.5 43t43 76q12 41 14 95t2 108v20q0 61 -4 115.5 t-26 95.5q-31 57 -96.5 88t-131.5 37h-41q-16 0 -28.5 1t-14.5 1h-30q-25 0 -47.5 -9t-22.5 -48v-645z" />
<glyph unicode="Q" horiz-adv-x="1067" d="M49 418v543v14q2 23 9.5 64.5t30 91t63.5 100.5t108 94q41 18 80 35q35 14 75 25.5t79 11.5h4h12h4q37 0 76 -11.5t74 -25.5q39 -16 77 -35q66 -41 107 -90t63.5 -97t31.5 -89t11 -66l4 -16v-557q-2 -20 -10 -61.5t-31.5 -90.5t-64.5 -101.5t-111 -95.5q-39 -20 -75 -36 q-35 -14 -74 -26.5t-76 -12.5q0 -6 2 -13.5t6 -17.5q8 -16 26.5 -28.5t42 -21.5t47.5 -16.5t44 -15.5q45 -16 82 -29q23 -6 43 -14t43 -8h12q23 2 41.5 13t36.5 26q14 10 32 22.5t34 12.5q31 -4 30 -37q-2 -23 -26.5 -35t-42.5 -19q-43 -12 -82 -12h-13.5t-13.5 2 q-43 4 -86 20.5t-88 35t-91 33t-97 14.5q-23 0 -48.5 -3.5t-52.5 -13.5q-18 -6 -40.5 -20.5t-32.5 -14.5q-4 0 -5 4q0 18 24 26.5t42 19.5q23 10 46.5 14t39.5 18q12 12 17.5 26.5t7.5 31.5q-39 0 -80 11t-76 26q-41 16 -80 38q-59 39 -99 85.5t-63 91.5q-2 2 -11 22.5 t-13 34.5q-10 29 -17.5 58.5t-7.5 64.5zM156 319q0 -27 8 -55q6 -25 22 -58.5t45 -70.5q35 -43 75 -67.5t78 -37t67.5 -15.5t44.5 -3h8h8q12 0 42 3t66.5 15.5t76.5 37t75 67.5q51 63 64.5 112.5t15.5 65.5v760q-2 16 -14.5 65.5t-65.5 110.5q-35 43 -75 68.5t-76.5 38 t-66.5 15.5t-42 3h-8h-8q-14 0 -44 -3t-68 -15.5t-79 -37t-76 -67.5q-27 -35 -42 -66.5t-22 -57t-8 -42t-1 -18.5v-748z" />
<glyph unicode="R" horiz-adv-x="1099" d="M29 4q0 8 10 9t20 3q8 0 16.5 -1t18.5 -1q23 0 44.5 10.5t21.5 47.5v1239q0 37 -21.5 47t-44.5 10q-10 0 -18 -1t-17 -1h-6q-8 0 -16 2t-8 12q2 6 18 6h25h161h127l62 -8q100 -18 170 -86.5t98 -167.5q10 -29 13.5 -56.5t3.5 -55.5q0 -86 -35 -160t-82 -123 q-23 -23 -48.5 -37t-54.5 -35q41 -12 79 -32.5t65 -53.5q8 -10 23.5 -39.5t30.5 -62.5t28.5 -61.5t17.5 -36.5q16 -41 44 -96.5t56.5 -106.5t52 -90t29.5 -47q10 -10 25.5 -13.5t34.5 -3.5q16 0 31.5 1t29.5 1q6 0 19.5 -2t13.5 -14q-4 -6 -16 -6q-6 0 -13.5 1t-13.5 1 l-121 6l-162 -6q-6 0 -13 -1t-13 -1q-16 0 -17 6v4q0 8 9.5 10t21.5 2q14 0 29.5 -1t32.5 -1q20 0 35.5 3t25.5 14q2 2 2 8q0 16 -15.5 54t-38 86t-46 97.5t-37.5 85.5q-4 6 -16.5 35t-29 62t-31.5 62.5t-24 39.5q-29 31 -67.5 56.5t-91.5 25.5h-6h-187v-571 q0 -37 22.5 -47.5t45.5 -10.5q10 0 18 1t17 1q6 -2 18 -3t12 -13q-2 -6 -24 -6h-19l-121 6l-161 -6h-23q-20 0 -20 10zM264 666h37q51 0 98 4t86 18t68 43t43 76q10 39 13 86t3 94v41q0 61 -4 116.5t-26 96.5q-27 51 -92.5 86t-135.5 39h-22q-23 0 -45.5 -9t-22.5 -46v-645z " />
<glyph unicode="S" horiz-adv-x="878" d="M33 10q0 8 18 8q10 0 24.5 -1t24.5 -1q16 0 28.5 5.5t12.5 21.5q0 20 -30 66q-41 59 -59.5 107t-18.5 112q0 55 18.5 114.5t48 108.5t67.5 80t75 31q10 0 18 -6.5t8 -22.5q0 -20 -14 -31.5t-34.5 -17.5t-42 -11.5t-34.5 -13.5q-98 -66 -98 -240q0 -51 18.5 -97t40.5 -81 q27 -45 63 -69.5t99.5 -36.5t166 -14.5t263.5 -2.5h45q25 0 39.5 19.5t20.5 52.5t8 76t2 90q0 96 -11.5 153.5t-31.5 95.5t-52 65.5t-71 62.5q-141 115 -254 207q-47 39 -94 76.5t-84 68.5t-61.5 50.5t-26.5 23.5q-33 31 -33 65v50q0 47 -1 81.5t-1 77.5q0 37 10.5 45 t26.5 8h446q53 0 99.5 -17t80 -49t53 -76t19.5 -95q0 -96 -60 -162.5t-165 -66.5q-37 0 -77 13t-71.5 37.5t-52 60.5t-20.5 81q0 16 6 27.5t23 11.5q39 0 46 -34t14 -76t32.5 -75.5t99.5 -33.5q88 0 150 55q60 53 59 146v6q0 68 -19.5 110.5t-62.5 67t-113.5 34t-175.5 9.5 q-119 0 -183.5 -1t-94 -9.5t-34.5 -23.5t-5 -46q0 -37 7 -62.5t20.5 -46t32.5 -37t46 -36.5q20 -16 73.5 -58.5t120 -95.5t139.5 -111.5t133.5 -108.5t99 -86t38.5 -42v-565q0 -6 -9 -18.5t-17 -12.5h-449h-176q-4 0 -21.5 -1t-39.5 -1q-33 0 -59.5 2t-26.5 10z" />
<glyph unicode="T" horiz-adv-x="1038" d="M45 1059v88v174v65h952v-61q0 -63 1 -132t1 -134q-2 -8 -2 -21.5t-8 -13.5h-4q-14 2 -14 29q0 16 3 33.5t3 33.5q0 78 -27.5 135.5t-79.5 87.5q-16 10 -66 15.5t-114 9.5h-20q-12 0 -28.5 -1t-32 -7t-26 -17.5t-10.5 -31.5v-1237q0 -37 21.5 -47.5t44.5 -10.5 q10 0 18.5 1t16.5 1q6 -2 18.5 -3t12.5 -13q-2 -6 -25 -6h-18l-119 6l-164 -6h-17q-27 0 -26 8q0 8 9 10t22 4q8 0 16 -1t18 -1q23 0 44.5 10.5t21.5 47.5v1237q0 20 -11.5 31.5t-26.5 17.5t-34.5 7t-34.5 1h-4h-4q-61 -4 -111.5 -9t-68.5 -16q-100 -63 -104 -223v-8 q0 -16 3 -31.5t3 -29.5q0 -25 -15 -27h-4q-8 0 -9 13.5t-1 21.5z" />
<glyph unicode="U" horiz-adv-x="1120" d="M33 1380q2 6 16 6h27h123h43h123h25t18 -6q2 -10 -8.5 -12t-24.5 -2q-33 0 -69 1t-54 -17q-12 -12 -17.5 -36t-5.5 -50.5t1 -54t1 -50.5v-317v-134.5v-134v-124v-101.5l1 -22q1 -21 7.5 -53.5t20.5 -70.5t41 -75q31 -41 72 -64.5t80 -37.5q45 -16 92 -23q43 0 86 12 q37 10 79 36t76 77q23 33 39.5 60.5t16.5 52.5v1069q0 27 -11.5 39t-27 16t-33.5 3t-31 -1q-12 0 -23 2t-7 12q2 8 16 7t27 -1h122h44h122q12 0 26 2h3q10 0 14 -8q2 -10 -8 -12t-22 -2q-14 0 -31.5 1t-34 -3t-28 -16.5t-11.5 -38.5l2 -906q0 -29 -8 -70.5t-29.5 -89.5 t-58.5 -98.5t-94 -93.5q-29 -18 -60 -33q-26 -12 -58 -23q-27 -9 -56 -9h-11h-10h-9q-65 0 -121 26q-60 28 -95 56q-51 41 -83 94t-46 114q0 2 -1 41t-1 101.5v141.5v161v438q0 20 1 48t0 55.5t-6 51t-18 36.5q-16 18 -52 17t-71 -1q-12 0 -23 2q-8 1 -8 7q0 2 1 5z" />
<glyph unicode="V" horiz-adv-x="1130" d="M31 1380q2 8 15 7t26 -1h118h41h119q12 0 26 2h3q10 0 12 -8q4 -8 -6 -10t-23 -4q-12 0 -32.5 1t-38 -3t-27.5 -16.5t0 -36.5l322 -1151v-2q6 -6 12 0l209 784q4 12 13 45t20.5 76t22.5 90t19.5 88t10.5 70.5t-6 38.5q-18 18 -53 17t-68 -1q-12 0 -22.5 2t-6.5 12 q2 6 15.5 6h25.5h119h41h119h25.5t15.5 -6q1 -3 1 -5q1 -6 -7 -7q-10 -2 -23 -2q-35 0 -69.5 1t-51.5 -17q-12 -12 -30.5 -70.5t-37 -128.5t-34 -132.5t-21.5 -82.5l-221 -842q-2 -2 -2 -4l-2 -16q0 -27 11.5 -39t28.5 -16.5t34.5 -3.5t30.5 1q39 0 34 -14q-2 -6 -17 -6h-28 l-145 4l-137 -4h-28.5t-16.5 6q-4 10 6 12t24 2q12 0 30.5 -1t34 3.5t27 16.5t11.5 37l-4 24l-336 1215q-8 25 -20.5 36t-26 15t-27.5 4h-27q-12 2 -22 4q-7 1 -7 6q0 2 1 4z" />
<glyph unicode="W" horiz-adv-x="1687" d="M58 1387q14 -1 26 -1h119h43h119q10 0 24 2h4q11 0 13 -8q4 -8 -6.5 -10t-24.5 -4q-12 0 -32.5 1t-38 -3t-27 -16.5t-1.5 -36.5l322 -1153q2 0 2 -2q2 -4 12 0l201 768l-106 387q-8 25 -19.5 36t-25 15t-27.5 4h-27q-14 2 -24.5 4t-8.5 10q4 8 18.5 7t27.5 -1h118h41h119 q11 0 25 2h4q10 0 12 -8q4 -8 -6 -10t-25 -4q-12 0 -31.5 1t-37 -3t-27.5 -16.5t-2 -36.5l322 -1153q2 0 2 -2q4 -4 12 0l207 784q4 12 14 46t21.5 76t22.5 89t18.5 88t9.5 71.5t-6 39.5q-16 18 -52 17t-69 -1q-12 0 -22.5 2t-8.5 12q4 6 17.5 6h25.5h119h43h119h25.5 t15.5 -6q1 -3 1 -5q0 -6 -8 -7q-10 -2 -22 -2q-35 0 -70 1t-51 -17q-12 -12 -30.5 -71.5t-37 -129.5t-35 -132.5t-22.5 -82.5l-221 -842v-8l-2 -12q0 -27 12.5 -39.5t28.5 -16.5t34.5 -3t30.5 1q14 0 24.5 -2t6.5 -12q-2 -6 -16.5 -6h-26.5l-133 4l-154 -4h-25t-18 6 q-2 10 8.5 12t24.5 2q12 0 29.5 -1t33 3t27 16.5t11.5 37.5l-5 26l-219 791l-207 -795q0 -4 -1 -6t-1 -6l-2 -8q0 -27 12.5 -39.5t29 -16.5t34 -3t29.5 1q16 0 26.5 -2t8.5 -12q-4 -6 -17.5 -6h-27.5l-150 4l-135 -4h-26.5t-16.5 6q-4 10 6 12t25 2q12 0 29.5 -1t33.5 3 t27.5 16.5t11.5 37.5l-6 36l-334 1205q-16 47 -45 51t-55 4q-12 2 -22 4q-9 2 -9 8q0 10 17 9z" />
<glyph unicode="X" horiz-adv-x="1148" d="M39 2q-1 3 -1 5q0 6 7 7q10 2 25 2q12 0 25.5 1t25.5 6.5t25.5 16.5t25.5 36l330 696q-20 41 -41 81t-37 72.5t-27.5 55.5l-13.5 27q-16 41 -45 97t-57.5 107.5t-52 90t-29.5 47.5q-18 18 -53 17t-70 -1q-12 0 -23.5 2t-7.5 12q2 6 16.5 6h26.5h121h43h121h26.5t16.5 -6 q4 -10 -7.5 -12t-23.5 -2q-33 0 -68.5 1t-54.5 -17q-6 -6 7.5 -44t36 -88.5t48 -104.5t41.5 -95h2q2 -4 12.5 -25.5t26 -53.5t34.5 -71t40 -77l20 45q-29 59 -34 69q-23 37 -9.5 37t23.5 -27q4 -6 31 -59l215 451q10 27 -0.5 39t-28.5 16t-39.5 4h-34.5q-14 0 -24.5 2 t-5.5 12q2 6 16 6h27h284h25.5t17.5 -6q2 -10 -8 -12t-24 -2q-12 0 -25.5 1t-27 -4t-26 -17.5t-22.5 -38.5l-264 -559q29 -59 60.5 -123t58 -117l45 -90l20.5 -41q18 -41 47 -97.5t58.5 -108.5t53.5 -91t30 -47q18 -18 53 -17.5t70 0.5q14 0 24 -2q7 -1 7 -7q0 -2 -1 -5 q-2 -6 -16 -6h-27l-121 4h-40l-123 -4h-25.5t-17.5 6q-2 10 8 12t22 2q33 0 69 -1t54 18q4 4 -13.5 48t-47 110.5t-66.5 147.5t-73.5 156.5t-68.5 138t-48 95.5l-25 -49q16 -31 27.5 -51.5t15.5 -26.5q12 -18 13.5 -27.5t-3 -9.5t-11.5 7.5t-13 19.5q-4 4 -13.5 23.5 t-23.5 48.5l-276 -588q-12 -27 -3 -39t27.5 -16.5t40 -4.5h33.5q14 0 24.5 -2t8.5 -12q-4 -6 -17.5 -6h-25.5l-154 4l-131 -4h-26.5t-16.5 6z" />
<glyph unicode="Y" horiz-adv-x="1019" d="M33 1380q2 6 16 6h27h121h43h120h25.5t15.5 -6q4 -10 -6 -12t-22 -2q-33 0 -69 1t-54 -17q-6 -8 7 -45t35.5 -87.5t48.5 -104.5t42 -95q4 -8 25.5 -53t48.5 -101q14 -23 39.5 -19.5t52.5 58.5l192 406q10 25 0 36t-28.5 16t-40 4t-33.5 -1q-12 2 -23.5 4t-7.5 12 q2 6 16.5 6h26.5h285h26.5t16.5 -6q1 -3 1 -5q0 -6 -7 -7q-10 -2 -25 -4q-12 0 -25.5 1t-26.5 -3t-25.5 -15.5t-22.5 -37.5l-256 -541v-694q0 -27 11 -38t26.5 -15.5t33 -4.5h29.5q14 0 24.5 -2t8.5 -12q-4 -6 -18.5 -6h-26.5l-121 4h-43l-121 -4h-25.5t-15.5 6 q-4 10 7.5 12t21.5 2h30.5t34 4.5t26.5 15.5t11 38v631q0 41 -8 70.5t-16 47.5q-35 68 -60.5 122t-29.5 63q-16 41 -45 97t-57.5 107.5t-52 90t-30.5 47.5q-18 18 -54 17t-69 -1q-14 0 -24 2q-7 1 -7 7q0 2 1 5z" />
<glyph unicode="Z" horiz-adv-x="874" d="M39 29v567q4 14 15.5 25.5t25.5 23.5q4 4 42 34t93 75t121.5 98t127 102.5t110 87t69.5 54.5q27 20 46.5 36.5t32.5 37t20.5 46t7.5 64.5q0 31 -5.5 47t-35 23.5t-95 9.5t-184.5 2q-104 0 -175 -9.5t-114 -34t-62.5 -68.5t-19.5 -113q0 -96 60.5 -149.5t150.5 -53.5 q49 0 76 16.5t39 40t16.5 51t9.5 51t16 40t38 16.5q16 0 21.5 -11.5t5.5 -27.5q0 -45 -20.5 -81t-52.5 -60.5t-72 -37.5t-77 -13q-53 0 -95 18t-70.5 49t-45 73t-16.5 89q0 51 19.5 95t53.5 77t80 50t99 17h448q16 0 26.5 -8t10.5 -45q0 -43 -1 -77.5t-1 -81.5 q0 -10 1 -23.5t1 -26.5q0 -33 -35 -67q-4 -4 -33.5 -28.5t-72.5 -61.5t-97.5 -81t-107.5 -87t-102 -82t-82 -64l-29 -20q-43 -31 -73.5 -57.5t-50 -66.5t-30 -99.5t-10.5 -155.5q0 -47 2 -90t9.5 -76t21.5 -52.5t39 -19.5h45q162 0 264.5 2t166 14.5t98 37t63.5 69.5 q23 35 41 81t18 97q0 174 -98 240q-12 8 -33.5 13t-42 12.5t-35 18.5t-14.5 32q0 16 8 21t19 4q37 0 74.5 -30t67.5 -79t48.5 -108.5t18.5 -116.5q0 -61 -18.5 -109.5t-61.5 -108.5q-29 -45 -29 -65q0 -16 12.5 -19.5t28.5 -3.5q10 0 24.5 1t24.5 1q18 0 19 -12q0 -8 -27 -9 t-59 -1h-62h-174h-453q-14 0 -19 9t-5 22z" />
<glyph unicode="[" horiz-adv-x="466" d="M57 338q0 31 8.5 45t22.5 25q8 6 16 8q-8 2 -16 8q-14 10 -22.5 25.5t-8.5 44.5q0 10 10.5 25.5t20.5 19.5q8 6 16 8q16 4 27 2q20 -2 32.5 -11.5t18.5 -19.5q10 -14 20.5 -31.5t39.5 -33.5q8 -4 12 -9q29 -12 71 -15t64 -3q27 0 27 -10t-27 -10q-23 0 -64.5 -3.5 t-70.5 -15.5l-12 -6q-29 -16 -39 -34.5t-21 -31.5q-6 -10 -18 -19t-33 -11q-10 -2 -27 2q-8 2 -16 8q-10 4 -20.5 19.5t-10.5 23.5zM59 -113q4 10 19.5 19.5t25.5 15.5q14 8 26.5 17.5t23.5 23.5q10 16 12 33.5t4 34.5q2 16 2 32.5t2 34.5q2 31 10.5 75t24.5 75 q6 12 16.5 27.5t20.5 25.5t24.5 23.5t26.5 7.5q8 -4 -12.5 -16.5t-32.5 -26.5q-35 -37 -48.5 -80t-16.5 -87t-3 -86t-12 -77q-8 -37 -41 -72q-10 -10 -24.5 -22t-28.5 -6q-10 4 -16.5 11t-2.5 17zM59 952q-4 10 2.5 17.5t16.5 11.5q14 6 28.5 -7t24.5 -24q33 -33 41 -67 q12 -37 12 -79t3 -86t16.5 -87t48.5 -80q12 -12 32.5 -25.5t12.5 -17.5q-12 -4 -26.5 8t-24.5 23q-10 12 -20.5 25.5t-16.5 27.5q-16 31 -24.5 76t-10.5 75q-2 16 -2 33t-2 33t-4 33.5t-12 34.5q-10 16 -22.5 24t-27.5 17q-10 6 -25.5 14t-19.5 20zM215 147q4 25 8 52.5 t15 56.5q10 25 22 54.5t37 29.5q8 0 5 -10.5t-11 -24.5t-18.5 -32.5t-16.5 -32.5q-29 -82 -18.5 -156t36 -143.5t54 -136t34.5 -130.5q10 -66 -12 -133q-6 -23 -21.5 -52.5t-41.5 -33.5q-16 0 -30.5 8.5t-16.5 24.5q-4 23 14 45.5t31 38.5q16 23 29.5 46.5t15.5 51.5 q4 31 -5.5 60.5t-17.5 54.5q-10 27 -20.5 52.5t-20.5 51.5q-10 25 -19 56.5t-17.5 66.5t-12.5 70t-2 65zM215 692q-2 29 2 64t12.5 69.5t17.5 66.5t19 56q10 27 20.5 54.5t20.5 52.5q8 27 17.5 54.5t5.5 59.5q-2 29 -15.5 52.5t-29.5 46.5q-12 16 -30.5 38.5t-14.5 45.5 q2 16 16 25t31 7q27 -2 42 -32.5t21 -53.5q23 -66 12 -135q-6 -63 -34.5 -127.5t-54 -134.5t-36 -145.5t18.5 -157.5q6 -14 16.5 -31.5t18.5 -32t11 -23.5t-5 -9q-25 0 -37 28.5t-22 53.5q-10 27 -14.5 55.5t-8.5 52.5z" />
<glyph unicode="]" horiz-adv-x="460" d="M43 426q0 10 27 10q23 0 64.5 3t70.5 16l12 6q29 16 39 34.5t20 32.5q10 10 21.5 19.5t30.5 11.5q14 2 26 -2q8 -2 17 -8q10 -4 20 -19.5t10 -25.5q0 -31 -8 -45.5t-22 -24.5q-8 -6 -17 -8q9 -2 17 -8q14 -10 22 -24.5t8 -45.5q0 -10 -10 -25.5t-20 -19.5q-8 -6 -17 -8 q-12 -4 -26 -2q-18 2 -29.5 11t-22.5 20q-10 12 -20 31.5t-39 35.5l-12 6q-29 12 -71 15.5t-64 3.5q-27 0 -27 10zM95 1235q3 33 14 65q8 25 22 54.5t41 34.5q18 0 31.5 -8.5t17.5 -24.5q2 -23 -16.5 -46.5t-28.5 -39.5q-16 -23 -28.5 -45.5t-16.5 -50.5q-4 -33 4 -62 t19 -55q8 -25 18 -50.5t21 -54.5q8 -25 18 -56.5t18.5 -66t12.5 -69.5t2 -64q-4 -55 -23 -110q-10 -25 -22.5 -53.5t-34.5 -28.5q-10 0 -7 10t11 24.5t18.5 32t16.5 31.5q29 82 18.5 157t-36 144.5t-54.5 135t-35 130.5q-4 33 -1 66zM95.5 -390q-3.5 34 0.5 66q6 63 35 129 t54.5 136.5t36 145.5t-18.5 157q-6 14 -16.5 30.5t-18.5 30.5t-11 24.5t7 10.5q23 0 35 -28.5t22 -53.5q18 -55 23 -108q2 -29 -2 -64t-12.5 -69.5t-18.5 -67.5t-18 -58q-10 -27 -20.5 -53t-18.5 -51q-10 -27 -18.5 -54.5t-4.5 -62.5q4 -29 16.5 -51t28.5 -45 q10 -16 28.5 -39.5t16.5 -44.5q-4 -16 -17.5 -25.5t-31.5 -7.5q-27 2 -41 32t-22 54q-10 33 -13.5 67zM162 327q-4 5 0 7q12 4 26.5 -8.5t24.5 -22.5q25 -29 39 -53q16 -29 24.5 -75t12.5 -77v-32.5t2 -32.5t4 -33.5t12 -34.5q10 -16 21.5 -24.5t25.5 -16.5q10 -6 25.5 -14 t19.5 -21q6 -20 -18 -28q-14 -6 -28.5 7t-24.5 23q-27 29 -39 68q-12 37 -13.5 80t-4.5 86t-15 86t-49 80q-6 6 -15.5 12t-17.5 12.5t-12 11.5zM162 512q-4 2 0 6t12 10.5t17.5 13.5t15.5 13q37 37 49 79t15 86t4 86t14 79q6 18 15 35.5t24 31.5l24.5 24.5t28.5 6.5 q25 -8 18 -29q-4 -12 -19 -19t-26 -13q-14 -10 -25.5 -18.5t-21.5 -22.5q-10 -16 -12 -35t-4 -35t-2 -32.5v-33.5q-4 -31 -12.5 -75.5t-24.5 -75.5q-8 -12 -18.5 -26.5t-20.5 -24.5q-10 -12 -24.5 -24.5t-26.5 -6.5z" />
<glyph unicode="`" d="M745 1421q-4 10 6.5 12.5t24.5 2.5q27 0 74 3t78 17q8 4 14 8q33 18 45 38t23 36q8 10 21 21.5t34 13.5q10 2 17.5 1t13.5 -3q4 -2 9 -4t9 -4q12 -4 24.5 -23t12.5 -29q0 -35 -10.5 -51t-26.5 -26q-16 -12 -34.5 -15.5t-35.5 -3.5h-264h2h-23t-14 6z" />
<glyph unicode="a" horiz-adv-x="671" d="M20 197q0 23 5.5 51t14.5 54t21.5 47.5t24.5 31.5l274 102q0 -2 6.5 4.5t13.5 16.5t14 21.5t7 21.5v125q0 61 -41 88.5t-122 27.5q-78 0 -118 -28.5t-40 -69.5q0 -12 10 -25.5t21.5 -25.5t21.5 -24.5t10 -24.5q0 -20 -18 -21q-12 0 -23.5 10.5t-19.5 24.5t-13.5 31.5 t-5.5 30.5q0 45 24 79.5t60.5 57t80.5 35t87 12.5q35 0 69 -8t61.5 -28.5t45 -53.5t21.5 -84v-498q0 -53 3 -85t10 -48t17.5 -21.5t26.5 -5.5q10 0 21.5 1t25.5 1q12 0 21.5 -2t9.5 -8q0 -8 -9 -9t-20 -1h-139q-23 4 -39 12t-27.5 23.5t-11.5 42.5v49q-33 -63 -93 -105 t-111 -42q-41 0 -74 18t-55.5 49t-35 70t-12.5 80zM102 256q0 -41 12.5 -78t33 -65.5t46 -45t52.5 -16.5q20 0 46.5 11.5t51.5 38t41 67.5t16 102v185q0 4 -3 10t-13 6l-264 -98q-6 -16 -10 -35q-4 -16 -6.5 -37.5t-2.5 -44.5z" />
<glyph unicode="b" horiz-adv-x="774" d="M20 1376q0 6 10.5 8t20.5 2h15h124q20 -4 37 -12q14 -8 26.5 -24.5t12.5 -42.5v-60v-102v-453q2 4 3 7t3 8q10 20 25.5 45.5t39 47t58.5 37t84 15.5q80 0 132.5 -39t83 -99.5t43 -133t12.5 -138.5v-12q0 -18 -2.5 -56t-8.5 -83t-19 -94.5t-38 -90.5q-29 -47 -58.5 -72.5 t-58 -36.5t-52.5 -13t-38 -2q-66 0 -102.5 24.5t-59 53t-38 54t-37.5 27.5q-41 0 -50.5 -23.5t-9.5 -51.5v-35q0 -27 -12 -27q-10 0 -10 21q0 6 1 12t1 12v295q0 4 -1 10t-1 13q0 2 1 4t1 6v930q0 41 -23.5 50t-50.5 9h-31q-12 0 -22.5 2t-10.5 8zM266 293q6 -96 25 -150 q2 -4 11 -26.5t29.5 -47t50.5 -45t71 -20.5q70 0 108.5 36t57 95.5t21.5 134t3 152.5v12v37q0 106 -14.5 177t-39 113t-57 58.5t-69.5 16.5t-65.5 -21.5t-49 -50.5t-35 -59t-20.5 -46q-8 -27 -15.5 -65.5t-11.5 -91.5v-209z" />
<glyph unicode="c" horiz-adv-x="557" d="M23 420v4q0 25 3 61.5t10 76.5t19.5 81t32.5 76q31 47 60.5 72.5t57 38t49 14.5t38.5 2h4q49 0 92 -22.5t75 -56.5t50 -73t18 -71q0 -12 -5 -25.5t-17 -13.5q-14 0 -19.5 10t-5.5 22q0 16 6.5 37t6.5 35v2q-2 6 -12.5 26.5t-32 44t-55 42t-81.5 18.5q-68 0 -104.5 -33.5 t-55 -88t-23.5 -124t-7 -141.5v-20v-21q2 -72 7 -141.5t23.5 -123.5t55.5 -88t104 -34q47 0 82 19.5t56.5 43t32 44t10.5 24.5q0 12 -6.5 34t-6.5 40q0 10 5.5 21.5t19.5 11.5q12 0 17 -13.5t5 -25.5q0 -37 -19 -77t-52 -71.5t-76 -52t-88 -20.5q-82 0 -134 46t-83 112.5 t-43 138t-14 122.5q-1 3 -1 5z" />
<glyph unicode="d" horiz-adv-x="862" d="M20 434q0 14 1.5 51t9.5 83t24.5 95.5t46 90.5t74.5 67.5t113 26.5q55 0 92 -17.5t60.5 -42t37 -53t23.5 -49.5v440v52q0 61 -1 98t-8.5 56.5t-22.5 26.5t-42 7h-31q-10 0 -20 2t-10 8q0 10 18 10h25h125q20 -4 38 -12q14 -8 26.5 -23.5t12.5 -43.5v-109v-858v-270 q4 -35 24.5 -43.5t43.5 -8.5q10 0 18.5 1t16.5 1q12 0 22.5 -2t10.5 -10q0 -10 -21 -10q-6 0 -12 1t-13 1h-102h-22q-23 4 -39 12q-14 8 -25.5 23.5t-11.5 44.5v41q-16 -18 -30.5 -44t-37 -48.5t-55.5 -38t-84 -15.5q-63 0 -108.5 29t-76 74t-49 99t-27.5 105.5t-11.5 92.5 t-2.5 59zM131 383q0 -70 3 -138.5t20.5 -122.5t55.5 -88t105 -34q41 0 71 20.5t50.5 45t29.5 47t11 26.5q10 25 17.5 63t7.5 87v209q-4 53 -10.5 92t-16.5 63q-6 18 -19.5 48t-34 58.5t-49 50t-65.5 21.5q-39 0 -71.5 -18t-55 -63t-36 -122t-13.5 -194v-39v-12z" />
<glyph unicode="e" horiz-adv-x="565" d="M20 434q0 14 2.5 51t9.5 83t23.5 96.5t45 91.5t73.5 67.5t109 26.5q66 0 110.5 -29.5t73.5 -75t46 -100.5t28 -106v-9q0 -35 -30 -55t-75 -30.5t-98 -13.5t-98 -3h-68q-45 0 -45 -4v-25q2 -74 6 -144.5t22.5 -126.5t56.5 -91t105 -35q41 0 74 15.5t55.5 37t35 42 t14.5 30.5q0 4 2 6q0 12 -6.5 33.5t-6.5 40.5q0 10 5.5 21.5t19.5 11.5q12 0 17 -13.5t5 -25.5t-4 -28.5t-10 -31t-11 -25.5l-5 -10q-12 -20 -32.5 -42.5t-47.5 -42t-58.5 -32t-68.5 -12.5q-63 0 -108.5 29t-76 74t-49 99t-27.5 104.5t-11.5 91.5t-2.5 59zM127 475 q0 -10 47 -19.5t111 -9.5q37 0 73.5 4.5t66.5 13.5t50.5 24.5t22.5 39.5q0 29 -5.5 62t-15.5 67q-6 18 -19.5 48t-34 59t-49 49.5t-65.5 20.5q-39 0 -71.5 -16.5t-57 -57.5t-39 -109.5t-14.5 -175.5z" />
<glyph unicode="f" horiz-adv-x="479" d="M39 823q0 6 10.5 9.5t22.5 3.5q8 0 17 -1t20 -1q23 0 45 9t22 44v194q2 20 15.5 72.5t41 107t70.5 96.5t103 42q14 0 32.5 -5t34.5 -14.5t27.5 -21.5t11.5 -27q0 -18 -20 -18q-14 0 -26.5 11t-24 25.5t-23.5 25.5t-27 11q-47 0 -72.5 -34.5t-33.5 -85.5v-254v-121 q0 -37 21.5 -47t45.5 -10q10 0 19.5 1t17.5 1t19.5 -2.5t13.5 -6.5v-4q0 -10 -21 -10h-49q-25 0 -46 -9t-21 -46v-70v-538v-80q0 -37 21.5 -47.5t45.5 -10.5q10 0 19.5 1t17.5 1q12 0 22.5 -2t10.5 -10t-27 -8h-18l-125 6l-168 -6h-16q-27 0 -27 10q0 6 9 8t22 2q8 0 17 -1 t20 -1q25 0 46 10.5t21 47.5v86v606q0 35 -23.5 43t-46.5 8h-34h-6q-8 0 -17.5 1t-9.5 9zM176 166v31v-31z" />
<glyph unicode="g" horiz-adv-x="684" d="M20 -344q0 33 21.5 69.5t48.5 36.5q18 0 19 -20q0 -16 -11.5 -27.5t-26 -22.5t-25.5 -23.5t-11 -28.5q0 -33 16.5 -54.5t44 -34t63.5 -16.5t72 -4q29 0 60 1t59 1h27q74 0 123 11.5t79.5 29.5t44 44t15.5 54v15q0 39 -5 74.5t-30.5 61t-80 41t-152.5 15.5q-31 0 -61.5 -3 t-61.5 -3q-29 0 -67 9t-71.5 34t-56 68t-22.5 110q0 23 6 44t14 44t22.5 43.5t29 35.5t24.5 24.5t10 11.5q0 4 -1 6t-1 6q-29 53 -39 114.5t-10 125.5q0 27 5 85t40 118q33 53 84 74.5t102 21.5t106.5 -25.5t82.5 -72.5q39 43 96 43q8 0 32.5 -4.5t24.5 -22.5 q0 -12 -9 -16.5t-19 -4.5q-18 0 -41 8.5t-37 8.5q-25 -4 -41 -23q29 -59 34 -115.5t5 -78.5q0 -10 -1 -37t-6 -61.5t-15.5 -73.5t-30.5 -70q-20 -33 -44 -50t-45.5 -26.5t-39 -12.5t-29.5 -3h-6h-29q-18 0 -42.5 4t-53.5 21q-16 10 -32.5 24t-31.5 12q-16 -2 -31.5 -19 t-27.5 -42t-19.5 -52.5t-7.5 -47.5q0 -74 36 -94.5t100 -20.5q27 0 54 1t58 1q72 0 148.5 -19.5t142.5 -91.5l8 -10q31 -31 38 -69.5t7 -83.5v-56q0 -80 -41 -123t-93 -63.5t-101 -23.5t-68 -3q-18 0 -71.5 4t-109.5 23.5t-101.5 60.5t-45.5 113zM168 545q0 -57 2 -113.5 t16.5 -100.5t44 -71t84.5 -27t86 26t45.5 67t17.5 95t3 111v13v28q0 86 -13.5 138.5t-35 79t-52 35t-63.5 8.5q-29 -2 -53.5 -15.5t-43 -44.5t-28.5 -81t-10 -126v-22z" />
<glyph unicode="h" horiz-adv-x="833" d="M20 2q0 8 10.5 10t22.5 2q8 0 17.5 -1t19.5 -1q25 0 46.5 10.5t21.5 47.5v1241q0 35 -22.5 44t-45.5 9h-37q-12 2 -22.5 4t-10.5 8t10.5 8t20.5 2h15h124q20 -4 37 -12q14 -8 26.5 -23.5t12.5 -41.5v-62v-559v-18q23 51 56.5 86t72.5 55t83 29.5t89 9.5h29q2 -2 14.5 -5 t26.5 -10.5t24.5 -22.5t10.5 -40v-61v-21v8v-628q0 -37 21.5 -47.5t45.5 -10.5q10 0 19.5 1t17.5 1q12 -2 22.5 -4t10.5 -10q0 -6 -9 -7t-20 -1h-16l-168 8l-98 -8h-19q-25 0 -24 8q0 8 10 10l20 4q8 0 15.5 -1t15.5 -1q18 0 32.5 10.5t14.5 47.5v710q-2 39 -20 41 q-72 0 -120 -20.5t-81 -55t-50.5 -81t-25.5 -97.5v-497q0 -37 13.5 -47.5t33.5 -10.5q8 0 15.5 1t15.5 1q12 0 22.5 -2t10.5 -10q0 -6 -10.5 -7t-20.5 -1h-14l-99 6l-167 -6h-19q-27 0 -27 8z" />
<glyph unicode="i" horiz-adv-x="448" d="M29 0q-1 3 -1 5q0 6 8 7q11 2 25 2q12 0 30 -1t35 3t28.5 15.5t11.5 38.5v688q0 25 -12.5 37t-28.5 16t-33.5 3t-30.5 -1q-14 0 -25 2q-8 1 -8 7q0 2 1 5q2 6 16 6.5t29 0.5h125q20 -4 37 -13q14 -8 26 -23.5t12 -41.5v-62v-10v-2v-612q0 -27 11.5 -38.5t28 -15.5t35 -3 t30.5 1q14 0 24.5 -2t8.5 -12q-4 -6 -18.5 -6h-26.5l-125 6h-43l-125 -6h-28.5t-16.5 6zM137 1090q0 27 18.5 44t45.5 17t45 -17t18 -44t-18.5 -45.5t-44.5 -18.5q-27 0 -45.5 18.5t-18.5 45.5z" />
<glyph unicode="j" horiz-adv-x="407" d="M22 -494q-5 6 -5 11q0 8 10 14q12 8 23 2t22.5 -18.5t20.5 -25.5t20 -19q18 -10 41.5 -5t46.5 21q20 16 30.5 40.5t14.5 55.5v1176q0 25 -12.5 37t-29 15t-33.5 3h-30q-14 0 -25.5 2t-6.5 12q2 6 17 6.5t28 0.5h125q20 -4 36 -13q14 -8 26.5 -23.5t12.5 -41.5v-66v-2 v-917v-2v-2q0 -12 -6 -38t-16 -58.5t-25.5 -68.5t-34.5 -67q-12 -18 -23 -29.5t-18 -15.5l-6 -6q-23 -20 -53 -29q-25 -7 -46 -7q-48 0 -83 34q-10 10 -21 24zM211 1090q0 27 17.5 44t43.5 17q27 0 45.5 -17t18.5 -44t-18.5 -45.5t-45.5 -18.5t-44 18.5t-17 45.5z" />
<glyph unicode="k" horiz-adv-x="880" d="M20 0v4q0 8 10.5 10t22.5 2q8 0 16.5 -1t18.5 -1q25 0 46.5 10.5t21.5 47.5v1243q-2 35 -23.5 43t-46.5 8h-33q-12 0 -22.5 2t-10.5 10v4q0 4 17 4h29h124q20 -4 37 -12q14 -8 26.5 -22.5t12.5 -40.5v-62v-526q0 -8 6 -8t17.5 9t25 21.5t26.5 24.5t24 21q33 27 69.5 42 t75.5 15q82 0 126 -51.5t44 -122.5q0 -49 -17.5 -82t-48.5 -62q-18 -18 -42.5 -35.5t-46 -33t-36 -29.5t-14.5 -26q0 -6 6 -13q4 -2 5 -5t6 -3q10 -6 18 -14.5t16 -16.5q25 -29 49.5 -77t48 -97t44 -90t34.5 -55l3 -2q10 -10 25 -13.5t34 -3.5q16 0 31.5 1t29.5 1 q12 -2 21.5 -4t9.5 -8v-4q-2 -6 -25 -6l-153 4l-131 -4h-19q-23 0 -24 6v4q0 6 9 8t22 4q16 0 29.5 -1t25.5 -1q16 0 28.5 3.5t22.5 13.5q4 4 4 12q0 18 -18.5 67.5t-41 100.5t-44 90t-29.5 39q-37 35 -75 51.5t-70 16.5q-82 0 -101 -95v-243q0 -37 13.5 -47.5t31.5 -10.5 q8 0 15.5 1t15.5 1q12 0 22.5 -2t10.5 -10v-4q-4 -6 -17 -6q-6 0 -14 1t-14 1l-105 4h-43l-116 -4q-8 0 -15.5 -1t-13.5 -1q-16 0 -17 6zM266 455h64q39 0 79 2t60 10q16 6 39.5 20.5t47.5 38t41 57t19 83.5v4q0 20 -8 44.5t-25.5 45t-43 35t-60.5 14.5q-23 0 -47 -6 q-47 -12 -76.5 -41t-46.5 -53q-10 -16 -25.5 -52t-17.5 -100v-39v-63z" />
<glyph unicode="l" horiz-adv-x="448" d="M51 4q0 8 10.5 9t22.5 1h31q27 0 50 8.5t23 49.5v1251q-8 33 -34.5 40t-59.5 7h-10h-12q-6 0 -12.5 2t-6.5 8q2 4 9.5 5t17.5 1h18h125q20 -4 37 -12q14 -8 26.5 -23.5t12.5 -41.5v-42.5v-58.5t-1 -111.5t-1 -202.5v-329.5v-492.5q0 -37 21.5 -47.5t46.5 -10.5q10 0 19 1 t17 1q6 0 19.5 -2t13.5 -14q-2 -4 -9 -5t-17 -1h-19l-125 8h-43l-125 -8h-22q-23 0 -23 10z" />
<glyph unicode="m" horiz-adv-x="1224" d="M35 14q10 2 22 2q8 0 17.5 -1t19.5 -1q25 0 46.5 10.5t21.5 47.5v690q-2 35 -24.5 43t-47.5 8h-33q-10 0 -21 7t-11 9q2 4 18 5h27h125q20 -4 36 -13q14 -8 26.5 -22.5t12.5 -40.5v-68v-18q45 102 126 140t169 38h10h9h16q2 -2 4 -2t4 -1t6 -1q16 -4 39 -19.5t23 -54.5 v-82v-24q45 104 127 144t170 40h10h8h17q2 -2 4 -2t5 -1t7 -1q16 -4 38.5 -19.5t22.5 -54.5v-74v-626q0 -37 21.5 -47.5t46.5 -10.5q10 0 19.5 1t17.5 1q12 -2 21.5 -4t9.5 -8v-4q-2 -6 -25 -6h-18l-125 8h-45l-90 -8h-19q-23 0 -25 6v4q0 6 9.5 8t21.5 4q8 0 14.5 -1 t14.5 -1q16 0 28.5 10.5t12.5 47.5v708q0 23 -6 31t-17 10q-12 0 -18 -2h-16q-61 -6 -104.5 -29.5t-71 -59.5t-43 -81t-23.5 -96v-481q0 -37 12 -47.5t29 -10.5q8 0 14 1t14 1q12 -2 22.5 -3t10.5 -9v-4q0 -6 -2 -6h-8l-125 8h-43l-90 -8h-23q-23 0 -22 10q0 8 10 9t23 3 q8 0 14 -1t14 -1q16 0 28.5 10.5t12.5 47.5v708q-2 23 -7 31t-15 10q-12 0 -19 -2h-16q-59 -6 -101 -28.5t-70 -55.5t-44 -75t-25 -91v-497q0 -37 10.5 -47.5t26.5 -10.5q6 0 12.5 1t14.5 1h6q8 0 17.5 -2t9.5 -12q-2 -4 -9.5 -5t-17.5 -1h-18l-84 8l-43 -2l-125 -6h-23 q-22 0 -22 7q0 9 10 11z" />
<glyph unicode="n" horiz-adv-x="833" d="M20 2q0 8 10.5 10t22.5 2q8 0 17.5 -1t19.5 -1q25 0 46.5 10.5t21.5 47.5v692q-2 35 -24.5 43t-47.5 8h-33q-33 0 -33 16q2 4 19 5h27h124q20 -4 37 -13q14 -8 26.5 -22.5t12.5 -40.5v-70v-18q45 102 126 141t169 39h10h9h16q2 -2 4 -2t4 -1t6 -1q16 -4 39 -19.5 t23 -54.5v-702q0 -37 21.5 -47.5t45.5 -10.5q10 0 19.5 1t17.5 1q6 0 19.5 -2t13.5 -14q-2 -4 -9 -5t-18 -1h-18l-125 8h-43l-96 -8h-23q-23 0 -22 10q0 8 10 9t22 3q8 0 15.5 -1t15.5 -1q18 0 31.5 10.5t13.5 47.5v710q-2 23 -7 31t-15 10q-12 0 -19 -2h-16 q-59 -6 -101.5 -28.5t-70 -56.5t-44 -76t-24.5 -91v-497q0 -37 14.5 -47.5t32.5 -10.5h45q10 0 14.5 -5t4.5 -7q-2 -4 -9.5 -5t-17.5 -1h-18l-99 8l-43 -2l-124 -6h-23q-23 0 -23 8z" />
<glyph unicode="o" horiz-adv-x="638" d="M23 440q0 16 1 47t6 69t16 80t34 83q6 10 18.5 28.5t32.5 38.5q35 31 78 44.5t84 15.5q4 0 11 1t15 1t14.5 -1t10.5 -1q41 -2 84 -15.5t80 -44.5q20 -20 32.5 -38.5t18.5 -28.5q35 -66 46 -136.5t11 -146.5q0 -14 -1 -51t-7 -84t-20.5 -98t-38.5 -94q-16 -27 -29.5 -41.5 t-21.5 -22.5q-51 -47 -93.5 -54t-64.5 -7h-41q-23 0 -66 7t-92 54q-10 8 -22.5 22.5t-28.5 41.5q-41 72 -54 158.5t-13 172.5zM131 438q2 -66 3 -132t10.5 -123.5t31 -101.5t64.5 -65q14 -6 35.5 -9t43.5 -3q51 0 80 12q43 20 64.5 64.5t31 102t11.5 124t4 131.5v33 q0 102 -13.5 171t-37 111t-54 61.5t-67.5 21.5h-29h-10q-37 -2 -67.5 -20.5t-53 -59.5t-35 -108.5t-12.5 -166.5v-43z" />
<glyph unicode="p" horiz-adv-x="778" d="M23 -547q-1 3 -1 5q0 6 8 8q11 2 25 2q12 0 30.5 -1.5t35 4t28 17.5t11.5 39v78v4v29v817q-2 8 -1 16t1 16v271q0 25 -12.5 37t-29 16t-33.5 3t-30 -1q-14 0 -25 2q-9 1 -9 7q0 2 2 5q2 8 17 7.5t28 -0.5h125q20 -4 36 -13q14 -8 26.5 -23.5t12.5 -43.5v-49q8 8 12.5 16 t8.5 14q23 39 65.5 76t122.5 37q23 0 65 -7.5t91 -54.5q8 -8 21.5 -22t29.5 -39q25 -45 39 -96t20.5 -99.5t7.5 -84t1 -50.5q0 -16 -1 -47t-6.5 -69.5t-16.5 -81.5t-34 -84q-6 -12 -18 -32t-33 -38q-35 -33 -77 -47t-83 -14q-72 0 -114.5 31.5t-63.5 58.5q-8 12 -16 26.5 t-21 42.5v-432v-34.5t2 -36.5l-2 -5v-106q0 -27 11.5 -39t28 -17.5t34.5 -4t31 1.5q14 0 25.5 -2.5t7.5 -12.5q-2 -7 -14 -7h-4q-15 1 -28 1l-124 6h-43l-125 -6q-12 0 -28 -1h-3q-12 0 -14 7zM268 330q4 -53 11.5 -92t17.5 -64q6 -16 19.5 -46t34 -58.5t49 -50t65.5 -21.5 q39 0 71.5 18.5t55 62.5t35 120.5t12.5 193.5q0 76 -1 153t-16.5 139.5t-54.5 101t-112 38.5q-41 0 -71 -20.5t-50.5 -45t-29.5 -47t-11 -26.5q-18 -49 -25 -149v-207z" />
<glyph unicode="q" horiz-adv-x="778" d="M23 391q0 14 1 50t7 84t20.5 99.5t38.5 96.5q16 25 29.5 40t21.5 21q49 47 91 55.5t65 8.5q80 0 123 -38t65 -77q4 -10 16.5 -26.5t28.5 -20.5h5q27 0 39 13.5t16 33t4 40v32.5t2 23.5t12 7.5q6 -2 6 -16.5v-29.5v-1128v-49v-80q0 -29 11.5 -41t28 -16t35 -3t30.5 1 q14 0 25 -2q9 -1 9 -8q0 -2 -1 -5q-2 -7 -14 -7h-4q-15 1 -27 1l-125 6h-43l-125 -6q-12 0 -28 -1h-3q-12 0 -14 7q-4 10 7 12.5t25 2.5q12 0 31 -1t35 3t27.5 16t11.5 39v203v405q-12 -29 -20.5 -43t-16.5 -26q-20 -27 -63.5 -59t-112.5 -32q-41 0 -84 14.5t-78 47.5 q-20 18 -32.5 37.5t-18.5 32.5q-23 41 -34 84t-16 81.5t-6 69.5t-1 47zM135 389q0 -117 12.5 -193.5t36 -120.5t55 -62.5t70.5 -18.5q37 0 65.5 21.5t49 50t34 58.5t19.5 46q10 25 17.5 64.5t11.5 93.5v204q-6 98 -25 152q-2 2 -11 24.5t-29.5 48t-50.5 46t-71 20.5 q-74 0 -112.5 -40t-54 -102.5t-16.5 -139t-1 -152.5z" />
<glyph unicode="r" horiz-adv-x="530" d="M23 0q-1 3 -1 5q0 6 8 7q11 2 25 2q12 0 29.5 -1t35 3t29 16.5t11.5 39.5v688q0 25 -12.5 36t-29 15t-33.5 3t-30 -1t-25 2q-8 1 -9 7q0 2 2 5q2 6 16 6.5t29 0.5h125q20 -2 36 -11q14 -8 26.5 -22.5t12.5 -40.5v-12q14 40 52 74q32 28 75 29q8 0 15 -1q14 -2 30.5 -8 t10.5 -23q-6 -14 -19.5 -15t-29 2t-31 8t-25.5 5q-25 -2 -41 -26.5t-26 -51.5q12 8 18 11q23 10 51.5 12t54.5 -6q23 -6 43.5 -20.5t34.5 -32.5q11 -18 19 -45q5 -18 5 -36q0 -10 -1 -20q-12 -80 -78 -108q-12 -4 -30.5 -7.5t-20.5 15.5q-2 14 7 21t23.5 12.5t30 8.5t23.5 9 q14 10 21 28.5t7 40t-5 43t-15 35.5q-19 26 -63 40q-18 6 -36 6q-25 0 -49 -11q-23 -10 -33 -36.5t-13 -57.5t-3 -60.5t-2 -45.5v-467q0 -25 11.5 -37.5t28 -16.5t34.5 -3t31 1q14 0 24.5 -2t8.5 -12q-4 -6 -18.5 -6h-27.5l-124 6h-43l-125 -6h-28.5t-16.5 6z" />
<glyph unicode="s" horiz-adv-x="520" d="M33 614q-1 20 -1 42t1 46q2 50 14 68q16 29 54 47.5t82 25.5q34 5 67 5h19q42 -2 71 -12q23 -8 43 -22.5t33 -33.5q25 -33 25 -79q0 -10 -1 -21q-12 -84 -78 -111q-14 -6 -31.5 -8t-21.5 14q-2 14 8.5 22.5t24.5 13.5t28.5 9.5t24.5 10.5q14 10 21.5 29.5t7.5 41t-6 42 t-17 34.5q-16 25 -51 36q-34 11 -74 14q-17 1 -34 1q-22 0 -43 -2q-37 -4 -58 -12q-53 -23 -73 -63v-4q-8 -41 4 -57.5t18 -22.5q16 -20 38 -40t44 -38q31 -25 78 -60.5t91 -69.5t78 -59.5t40 -31.5q4 -4 18.5 -22.5t18.5 -47.5v-115q0 -88 -50 -135t-120 -61q-34 -7 -68 -8 q-36 0 -72 8q-70 16 -110 55l-6 6q-23 20 -35 49q-13 32 -13 61q0 40 25 74q8 12 22.5 23.5t24.5 -2.5q8 -10 4 -23.5t-13 -28t-20.5 -26.5t-15.5 -22q-10 -20 -6 -41t43 -56q70 -49 138 -56q17 -2 34 -2q48 -1 88 15q53 20 87 65q32 42 32 93v6q0 20 -23.5 50t-54.5 61 q-49 41 -108.5 87t-110.5 86t-87 67.5t-38 31.5q-4 10 -6 23.5t-4 29.5z" />
<glyph unicode="t" horiz-adv-x="544" d="M84 819v4v4q2 6 20 7h13h29.5t33 3t26.5 13t13 35v149v2v2l4 -2h25q27 0 39 13.5t17 33t4 40t-1 34.5v8q0 13 2 23q2 9 10 8h3h2q6 -2 6 -17.5v-27.5v-264q0 -25 12 -36t27.5 -14t34 -3h30.5h10q20 0 21 -7q2 -2 2 -4l-2 -4q0 -6 -21 -6h-10q-12 0 -30.5 1t-35 -3 t-27.5 -16.5t-11 -38.5v-76v-580v-45q0 -33 16 -43q8 0 14.5 -1t12.5 1q10 0 20 4t23 9q18 10 30.5 24t12.5 33q0 10 -5 26.5t-9.5 32t-3.5 27.5t14 18q16 8 23 -8t8 -31q2 -12 3 -23q0 -57 -51 -99q-18 -18 -51 -29q-4 -2 -8 -2q-18 -8 -53 -10h-4h-5h-6l-16 2 q-23 4 -39 12q-14 8 -25.5 22.5t-11.5 40.5v72v2v596v33q-2 23 -13 34t-26.5 14t-33 2t-29.5 -1h-13q-18 0 -20 6z" />
<glyph unicode="u" horiz-adv-x="835" d="M23 827q2 6 16 6.5t27 0.5h124q20 -4 39 -13q14 -8 26.5 -23.5t12.5 -41.5v-72v-635q0 -23 5.5 -31t15.5 -10h22q2 2 8 2q61 6 104.5 27.5t72 56.5t44 78t23.5 92l2 492q0 27 -11 38t-28.5 15t-35 4h-29.5q-14 0 -25.5 2t-7.5 12q2 6 16.5 6.5t28.5 0.5h125q20 -4 37 -13 q14 -8 26.5 -23.5t12.5 -41.5v-72v-608q0 -25 12 -37t27.5 -15.5t34 -3.5h30.5t24 -2q9 -1 8 -7q0 -2 -1 -5q-2 -6 -16.5 -6h-26.5h-125q-23 4 -39 12t-27.5 23.5t-11.5 42.5v63v2v19q-45 -100 -126 -141t-167 -41h-6h-28h-5q-6 0 -10 2q-16 4 -39.5 20t-23.5 53v670v31 q0 27 -11.5 38t-28 15t-34.5 4h-31q-11 0 -23 2q-8 1 -9 7q0 2 2 5z" />
<glyph unicode="v" horiz-adv-x="770" d="M18 825q2 8 16.5 8.5t26.5 0.5h261h25t18 -9q2 -10 -8.5 -12t-24.5 -2h-22.5t-24.5 2q-18 -6 -29.5 -19.5t-1.5 -41.5l158 -590l2 -2q4 -8 12 0l53 209q2 10 10.5 34.5t17.5 58.5t19.5 72.5t20.5 75.5q4 16 8 32.5t8 33.5v2q4 16 9.5 30.5t13.5 26.5q27 49 67 82 q16 11 39 25q13 8 25 8q9 0 18 -4q11 -6 17 -18q3 -6 3 -12t-3 -13q-8 -16 -30 -22.5t-38 -12.5q-23 -8 -41 -17.5t-35 -27.5q-12 -16 -19 -33.5t-11 -34.5q-2 -4 -3.5 -9t-3.5 -9q-10 -41 -21 -85t-21.5 -82t-18.5 -67.5t-12 -42.5l-68 -268q-8 -27 -12 -44t-8 -28 q-4 -12 -9 -20h-53l-198 752q-8 25 -20.5 38t-26 17t-28 4h-26.5q-11 0 -23 2q-9 1 -9 7q0 2 1 5z" />
<glyph unicode="w" horiz-adv-x="1185" d="M27 827q4 6 17 6.5t26 0.5h247h26.5t16.5 -7q4 -10 -7 -13t-23 -3t-27.5 1t-27 -3t-16.5 -17.5t5 -39.5l148 -584l2 -2q4 -6 12 2l53 207q6 18 21.5 77.5t31.5 127.5q4 20 10.5 45.5t14.5 52.5q6 16 11 30.5t12 24.5q25 47 67 84q16 11 40 25q14 8 26 8q9 0 16 -4 q29 -18 16 -45q-8 -16 -29.5 -22.5t-37.5 -12.5q-2 0 -10 -4l159 -594l2 -2q4 -6 13 2l53 207q6 23 25.5 91.5t37.5 143.5q4 16 7.5 32.5t7.5 33.5q8 31 22 57q25 47 68 84q15 11 39 25q14 8 26 8q9 0 17 -4q20 -12 20 -29q0 -7 -4 -16q-8 -16 -29.5 -22.5t-37.5 -12.5 q-20 -8 -40 -17.5t-34 -27.5q-14 -16 -21.5 -32.5t-11.5 -33.5l-6 -18q-10 -41 -20.5 -84t-19.5 -80t-16 -65.5t-12 -40.5l-67 -269q-14 -47 -21 -73l-6 -25h-55l-180 688q-4 -8 -6.5 -16t-6.5 -17q-4 -12 -6 -20t-4 -15.5t-4 -17.5q-10 -37 -19.5 -75t-17.5 -69.5t-14 -55 t-8 -35.5l-68 -269q-14 -47 -20 -73l-7 -25h-55l-190 752q-8 27 -19.5 39t-25 16t-27.5 4h-27q-14 0 -24 3t-8 13z" />
<glyph unicode="x" horiz-adv-x="897" d="M14 8q0 10 4 17q6 14 18.5 19t29.5 5q23 0 47 -6t43 -6h6q25 2 50.5 17.5t49 35t42 43t30.5 45.5l47 105l27 67l-164 404q-8 25 -20.5 37t-26 17t-27.5 5h-27q-12 0 -21 2t-9 8v4q2 6 18 7h25h123h122h25q16 0 18 -7v-4q0 -6 -9 -8t-21 -2q-20 -2 -46 -3t-26 -28 q0 -12 6 -26l113 -277q29 63 47 105.5t18 44.5q20 45 48 85t61 70.5t68.5 49t72.5 18.5q20 0 45 -10q14 -8 15 -23q0 -2 -5 -14q-6 -14 -18 -19.5t-29 -5.5q-23 0 -47 6.5t-45 6.5h-6q-51 -10 -79.5 -52.5t-51.5 -85.5q-6 -12 -18.5 -39.5t-28.5 -64.5q-10 -23 -19.5 -46.5 t-19.5 -45.5l160 -383q12 -43 35.5 -51.5t46.5 -8.5h6h10h6q8 0 17.5 -2t9.5 -12q-2 -6 -21 -6l-143 4h-23l-104 -4q-6 0 -12 -1t-13 -1q-18 0 -18 12q0 8 10 9t21 1h28q16 0 29.5 5.5t13.5 25.5q0 4 -1 7t-1 7l-110 269q-23 -53 -37 -87t-14 -36q-18 -45 -53.5 -86t-75 -73 t-81.5 -51.5t-79 -19.5q-23 0 -47 11q-14 6 -15 20z" />
<glyph unicode="y" horiz-adv-x="798" d="M12 -416q0 14 5.5 31.5t21.5 13.5q14 -4 17 -16t2 -26.5t-4 -30t-1 -25.5q2 -18 16.5 -31.5t33 -20.5t39 -9t36.5 2q14 4 29.5 9t29 20.5t28 44t26.5 77.5q12 43 23.5 87t20.5 83t16 70t11 43l15 63l-68 248l-164 537q-8 25 -19 38t-25.5 17t-29 4h-26.5t-22.5 2t-8.5 12 q4 8 17.5 7.5t25.5 -0.5h121h41h80q12 0 25 1h3q11 0 13 -8q4 -10 -6 -12t-25 -2q-12 0 -26.5 1t-23.5 -4t-13 -17.5t6 -38.5l170 -551q2 0 2 -2q4 -8 12 0l43 159q4 14 14.5 49t21.5 80.5t22.5 95.5t19.5 94t10 75.5t-6 40.5q-18 20 -29.5 19t-44.5 -1q-14 0 -24 2t-6 12 q2 8 16 7.5t27 -0.5h71h41h121q12 0 25 1h3q11 0 15 -8q2 -10 -8 -12t-23 -2q-33 0 -68.5 1t-53.5 -19q-8 -8 -19.5 -41t-24 -77t-24.5 -94.5t-23.5 -96.5t-20.5 -81.5t-13 -50.5l-58 -221q0 -6 -2 -11t-4 -11v-5v-2l-53 -206q-6 -23 -25.5 -93.5t-38.5 -148.5 q-4 -14 -7 -27.5t-7 -25.5v-6h-2q-8 -25 -16.5 -48.5t-24.5 -46.5q-10 -20 -33.5 -33.5t-46.5 -17.5q-11 -2 -25 -2q-10 0 -22 1q-27 3 -53 20q-68 41 -68 114z" />
<glyph unicode="z" horiz-adv-x="651" d="M16 6q0 16 35 17h22.5t25 4t23.5 17t19 38l271 674q8 25 5 38t-11.5 18t-21.5 5h-26h-23.5t-36.5 -1t-39.5 -7t-35.5 -18q-12 -10 -25.5 -29t-26.5 -35t-27.5 -24.5t-30.5 -0.5q-18 4 -21.5 14.5t-3.5 14.5q25 59 84 81t170 22h16h123h6h115h24.5t14.5 -5q3 -4 3 -7 q0 -5 -8 -8q-12 -5 -20 -5q-12 0 -26.5 1t-28.5 -2t-26.5 -15.5t-18.5 -36.5l-272 -674q-8 -25 -3 -38t16 -19.5t26.5 -7.5t27.5 -1h37t57.5 2t60.5 8.5t46 18.5q12 8 25.5 23.5t28 28t29.5 18.5t34 -2q14 -9 15 -19v-6q0 -5 -1 -8q-12 -37 -52 -54q-41 -16 -111 -22 q-60 -5 -146 -5h-30q-106 1 -249 1q-8 0 -21.5 1t-17.5 5z" />
<glyph unicode="{" horiz-adv-x="1087" d="M106 367q0 27 25 55q-25 31 -25 57q2 12 17 13q16 -2 20 -15.5t9 -30.5v-4q25 20 55.5 33.5t64.5 18.5q39 2 68 -9q25 -6 48.5 -21t43.5 -36q6 8 12.5 15.5t10.5 17.5q8 12 10 18q-2 4 -4 5t-4 3l-4 5q-8 8 -21 14q-4 2 -11 3t-13 3q-16 2 -29.5 6t-16.5 21q-4 6 3 12 q4 4 10 6q18 2 45 -14q-18 35 -21 73q-2 39 12.5 78t37.5 66q18 27 53 45q23 10 50.5 18t55.5 8q29 0 50.5 -8t37.5 -18q25 -2 46.5 -11.5t50.5 -29.5l8 -4q12 -10 20 -10t13 12q-2 6 -2.5 13t-2.5 16q-8 37 -33.5 56t-33.5 23h-6q-4 0 -8.5 -1t-8.5 -1q-14 -4 -24 -4 t-15 10q-2 2 2 11q8 8 21 8q25 -2 43 -12q4 -4 8 -4q8 -6 25.5 -21.5t31.5 -44.5q-8 12 -12 20l7 -14t8 -12v31q-2 43 -2.5 79.5t-0.5 59.5q-2 6 -2 14v6q0 8 5 29v133.5t-3 77.5q-2 27 -16 55.5t-37 42.5q-6 4 -24 8q-16 4 -29.5 9.5t-13.5 19.5q-2 10 3 13t9 3h2 q29 0 57 -28q29 -29 45.5 -68t16.5 -73v-19q0 -23 -1 -61.5t-1 -83.5l12 30q18 39 45 62.5t51 23.5q8 0 13 -4q4 -4 4 -12q-2 -16 -15.5 -22.5t-29.5 -10.5q-6 -2 -12.5 -3t-10.5 -3q-25 -14 -40 -44t-17 -54v-32.5v-51.5v-58.5v-54.5q2 2 2 4q6 10 12 15q14 4 30.5 5 t28.5 -3t23.5 -12.5t17.5 -18.5q6 -8 11.5 -22.5t1.5 -30.5q-6 -41 -41 -58q-8 -4 -19 -4q-10 0 -10 8q-2 10 8.5 14.5t20.5 8.5q12 4 16 6q8 6 12 25q4 12 1 26.5t-11 24.5q-10 16 -33.5 22.5t-42.5 -4.5q-23 -10 -24 -51v-14v-51t2 -99q0 -61 2 -137q0 -4 -2 -6t-4 -6 q2 0 3 -1t3 -1q4 -4 12 -8q29 -10 66.5 -13.5t60.5 -3.5q27 0 27 -10t-27 -10q-23 0 -60.5 -2t-66.5 -15l-12 -6q-2 -2 -4 -3t-4 -3q8 -4 8 -12q-2 -76 -2 -137q-2 -53 -2 -99.5v-50.5v-16q2 -41 24 -50q18 -8 42 -2.5t34 21.5q8 10 11.5 24.5t-1.5 26.5q-4 18 -12 25 q-4 2 -16 6q-10 4 -20.5 8t-8.5 14q0 8 10 9q10 0 19 -5q35 -16 41 -57q4 -31 -13 -53q-14 -23 -41 -29q-12 -4 -28.5 -3t-30.5 5q-8 4 -14 15v-35v-160q2 -25 17 -54.5t40 -43.5q4 -2 10 -3t13 -3q16 -4 29.5 -9.5t15.5 -21.5q0 -8 -4 -12t-11 -5q-31 0 -63.5 34t-48.5 81 v-33q2 -35 3 -64.5t1 -45.5v-19q0 -37 -16.5 -75.5t-45.5 -67.5q-31 -31 -55 -31h-4l-8 4q-4 4 -4 15q0 14 13 19t30 9q18 4 24 9q23 12 37 41.5t16 56.5q2 18 2.5 78.5t0.5 132.5l-3.5 14t-1.5 14v7q0 8 2 14v71t3 93v-39v45q0 -4 -5 -8q-12 -25 -29.5 -41.5t-25.5 -20.5 h-2h-2l-4 -4q-18 -10 -41 -12q-16 0 -23 8q-4 6 -2 10q4 10 14.5 10.5t24.5 -3.5q4 0 8.5 -1.5t8.5 -1.5h6q10 4 34.5 22.5t32.5 55.5q2 8 2 15.5t3 13.5q-4 12 -13 12q-8 0 -20 -10l-8 -4q-29 -20 -50.5 -29.5t-46.5 -11.5q-31 -25 -88 -25q-63 0 -106 25q-37 20 -58 49 q-20 29 -33.5 66t-11.5 75q2 39 21 74q-25 -14 -39 -14h-6q-4 2 -9.5 5t-3.5 13q2 14 15.5 18.5t30.5 6.5q6 2 13 3t11 3q12 6 21 14l2 2h2q2 2 3 4t5 7q-2 6 -10 18q-4 10 -10.5 17.5t-12.5 15.5q-20 -23 -45 -37t-49 -23q-10 -4 -22.5 -6t-24.5 -2q-4 0 -9.5 1t-9.5 1 q-59 6 -114 45l-6 6v-4q-4 -16 -8.5 -29.5t-18.5 -15.5h-2q-14 0 -17 13zM158 422q29 -53 118 -62h3h-3q-6 2 -6 11q-2 2 2 12q6 10 20.5 9t31.5 -5q20 -4 24 -4q43 0 78 39q-35 41 -78 41q-4 0 -24 -4q-16 -4 -30.5 -5t-21.5 9q-4 10 -2 14q0 4 6 8h3h-3q-90 -8 -118 -61 v-2zM410 233q-2 -92 45 -124q4 -4 10 -5.5t12 -5.5q16 -4 28.5 -10t12.5 -22q0 -14 -14 -15h-2v-2q82 -41 135 -12l6 6q-29 6 -55.5 18.5t-48.5 28.5q-31 25 -47 60q-12 25 -17.5 57.5t-1.5 62.5q0 10 4 23q0 10 -2 26.5t-6 34.5q-6 -10 -13 -17t-16 -15q-8 -10 -19 -35 t-11 -54zM410 612q0 -29 11 -52.5t21 -35.5q6 -8 13.5 -16t13.5 -16q4 18 6 35.5t2 27.5q-2 2 -2 8l-2 2h2q-6 31 -2 67t19 64q16 35 49 62q45 33 102 45q-4 4 -6 4q-51 33 -135 -12h2q14 0 14 -15q0 -16 -12 -22t-29 -10q-6 -4 -12 -5.5t-10 -5.5q-47 -33 -45 -125z M438 422q14 -14 23 -31q8 -12 10 -16q15 22 21 47q-6 27 -21 49l-4 -8t-6 -8q-4 -10 -10.5 -17.5t-12.5 -15.5zM475 365q4 -10 6 -21.5t4 -24.5q2 6 11 19q2 10 3 24.5t-1 28.5q0 4 -1 8t-1 9q-4 -10 -9.5 -21.5t-11.5 -21.5zM475 481q6 -10 11.5 -21t9.5 -22q0 4 1 8.5 t1 8.5q2 14 1 28.5t-3 24.5q-8 12 -11 20q-2 -14 -4 -25t-6 -22zM482 205.5q5 -27.5 20 -55.5q0 4 3 9t13 5q14 0 20.5 -13.5t10.5 -27.5q4 -18 8 -23q31 -43 94 -49l4 4q10 10 22.5 19.5t24.5 1.5q6 -2 9 -8q0 -8 -2 -11q0 -2 -1 -3t-1 -3q23 4 41 13.5t26 15.5 q23 12 35 29.5t18.5 47t7.5 78t1 121.5v-106v131q-18 -14 -26.5 -27.5t-16.5 -25.5q-6 -8 -17.5 -16.5t-27.5 -10.5q-12 -2 -25 2q-4 0 -8 2l-8 4q-10 4 -20.5 19.5t-10.5 23.5q0 29 8 42.5t23 23.5q4 2 16 6q-12 4 -16 8q-14 8 -22.5 22.5t-8.5 43.5q0 8 10 23.5t21 19.5 q4 4 16 8t25 2q16 -2 27 -11.5t18 -19.5q8 -10 16 -24.5t27 -28.5v22v-2v19v-14v100q-2 43 -5.5 70.5t-9.5 47t-17 33t-30 23.5q-8 6 -26.5 15.5t-40.5 13.5q0 -2 1 -3t1 -4q2 -4 2 -10q-2 -6 -9 -8q-12 -8 -24 1t-23 20l-4 4q-63 -6 -94 -50q-4 -4 -5 -10t-3 -12 q-4 -16 -10.5 -28.5t-20.5 -12.5q-10 0 -13 5t-3 9q-31 -61 -19 -104v-4q2 -8 11 -25l8 -8t10 -8q10 -10 20.5 -22.5t4.5 -26.5q-6 -10 -15 -11q-2 0 -3 1t-3 1q-4 2 -5 3.5t-5 3.5q2 -20 0 -45q0 -8 -1 -14.5t-3 -14.5q4 -16 4 -27q2 -25 0 -45q4 2 5 3t5 3t10 2t11 -10 q6 -14 -4.5 -25.5t-20.5 -21.5q-8 -6 -18 -16q-8 -16 -11 -25v-4q-6 -23 -1 -50.5zM522 375l6 4q20 29 45 43h2q0 2 -2 2q-12 8 -24 19.5t-23 23.5l-4 6q4 0 8 -4l19 -16q12 -10 33 -17q4 -2 16 -2q6 2 23 6h16h10q4 0 6 -1t4 -1q6 -6 7 -16q0 -8 -7 -14q-2 0 -4 -1t-6 -1 h-10h-16q-16 4 -23 6q-12 0 -16 -2q-20 -6 -33 -17l-4 -6q-4 -4 -7 -6t-8 -6q-2 0 -2 -1t-2 -1h-2zM745.5 -138.5q-0.5 15.5 2.5 23.5q2 29 20 58q8 12 21.5 25.5t27.5 23.5l2 4q2 2 4 2q0 -2 1 -3t-3 -5l-20 -23q-12 -16 -19 -35q-4 -10 -4 -22t2 -25q0 -2 1 -4t1 -4 q2 -8 3 -17.5t-3 -15.5q-4 -8 -14 -8q-4 0 -12 4q-10 6 -10.5 21.5zM745.5 978.5q-0.5 14.5 10.5 22.5q18 8 26 -4q4 -6 3 -15t-3 -17q0 -4 -1 -5.5t-1 -3.5q-2 -12 -2 -23t4 -22q6 -23 19 -34l18 -23q4 -8 4 -6v-2q-2 0 -4 2l-2 2q-14 12 -27.5 25.5t-21.5 25.5 q-18 29 -20 53q-2 10 -2.5 24.5zM770 877q2 -1 2 -3q0 2 -2 3zM772 874v3v-3zM836 340q0 10 2 16h-2v-16zM836 383l2 -2v2h-2zM836 492q0 -2 1 -2.5t1 -2.5q-2 6 -2 19v-14zM840 -203v-4q6 -16 16 -35q-4 10 -8 19.5t-8 19.5zM840 1049v36q2 -8 2 -16v-16q0 -2 -1 -2t-1 -2z M842 27q0 -2 2 -2zM842 817v2v39v-41zM879 -362l2 -3q4 -4 9 -10t9 -10q8 -14 29 -25q10 -6 20.5 -7t20.5 -1h19t18 -4q8 -8 0 -22q-8 -10 -20.5 -8.5t-22.5 6.5q-29 10 -45 26q-10 10 -20.5 26.5t-18.5 31.5zM881 1219q-2 0 2 4q10 14 20 29.5t21 25.5q20 18 45 27 q10 4 22.5 5t18.5 -7q12 -12 2 -23q-6 -6 -17.5 -5t-19.5 1q-10 0 -21.5 -1t-21.5 -7q-18 -10 -27 -23q-6 -6 -18 -22q-4 -4 -6 -4z" />
<glyph unicode="|" horiz-adv-x="669" d="M51 4q-4 10 6.5 13t24.5 3h2q8 0 14 -2h17q25 0 48 9.5t23 48.5l215 1233q0 39 -21.5 48t-45.5 9h-17q-6 -2 -14 -2h-2q-12 0 -23.5 3t-7.5 13q2 6 23 6q4 0 10 -1t10 -1h281q4 0 10 1t10 1q18 0 23 -6q4 -10 -7.5 -13t-23.5 -3h-2q-8 0 -14 2h-17q-25 0 -46 -9t-21 -48 l-219 -1233q0 -39 21.5 -48.5t45.5 -9.5h17q4 2 14 2q14 0 24.5 -3t8.5 -13q-4 -6 -23 -6q-6 0 -11 1t-9 1h-121h-41h-119q-4 0 -10 -1t-10 -1q-20 0 -23 6z" />
<glyph unicode="}" horiz-adv-x="1116" d="M53 422q0 6 8.5 7t18.5 3q23 0 61.5 2t65.5 15q2 2 10 6l8 4q-6 6 -6 14v137q0 53 1 97.5t1 50.5v16q-2 39 -22 49q-18 8 -42 3t-34 -21q-8 -10 -11 -24.5t1 -26.5q4 -18 14 -25q4 -2 16 -6q10 -4 20.5 -8t8.5 -15q-2 -8 -12 -8t-19 4q-35 16 -41 58q-4 35 13 53 q18 23 41 29q14 4 29.5 3t27.5 -5q6 -2 16 -17v53v92t-2 50q-2 25 -16 54.5t-37 43.5q-10 2 -25 6q-16 4 -29.5 9t-13.5 22q-2 10 3.5 13t9.5 3q31 0 62.5 -33.5t47.5 -80.5v32q-2 35 -2 65t-2 46v18q0 35 16.5 74t45.5 68t57 28q4 0 10 -3t6 -13q-2 -14 -15 -19.5t-30 -9.5 q-6 -2 -12 -3t-10 -5q-23 -14 -38 -43t-17 -55q-2 -16 -2.5 -76.5t2.5 -132.5q0 -8 1 -15.5t1 -13.5v-18q-2 -25 -2 -70v-94q-2 10 -2.5 20.5t-0.5 20.5v-47q2 2 3.5 4t3.5 4q12 25 29.5 40t23.5 19l2 2h2l4 5q18 10 41 12q20 -4 25 -8q2 -6 0 -11q-4 -10 -14.5 -10t-24.5 4 q-4 0 -8.5 1t-8.5 1h-6q-8 -4 -32.5 -23.5t-32.5 -54.5q-4 -8 -4 -15v-13q0 -12 10 -12q8 0 20 10l8 4q29 20 50.5 29.5t48.5 11.5q31 25 88 24q29 0 55.5 -7t48.5 -17q37 -20 58 -51q8 -12 12 -21q4 -4 5 -7t3 -7q0 -2 2 -2q25 -53 21 -101q0 -23 -4.5 -39t-14.5 -34 q20 14 45 14q8 -4 10 -6t3 -12q-4 -16 -17.5 -19.5t-30.5 -5.5q-16 -4 -22 -6q-16 -8 -23 -14l-2 -5l-2 2q-2 -4 -3 -5t-3 -5q4 -12 8 -18q6 -10 11.5 -17.5t11.5 -15.5q47 47 96 59q31 8 64 7q33 -4 63.5 -17.5t54.5 -34.5v4q4 16 8.5 29.5t20.5 16.5q12 -1 16 -13 q2 -27 -24 -57q27 -29 24 -55q-4 -12 -14 -13h-2q-16 2 -20.5 15.5t-8.5 29.5v2q-25 -18 -55.5 -31.5t-62.5 -17.5q-4 0 -9.5 -1t-9.5 -1q-25 0 -51 10q-49 16 -90 58q-6 -8 -11.5 -15.5t-11.5 -17.5q-4 -6 -8 -18q12 -18 33 -27q6 -2 22 -6q16 -2 29.5 -6t18.5 -19 q0 -10 -3 -12q-2 -2 -10 -6h-6q-18 0 -39 14q18 -37 19 -74q2 -39 -12.5 -77.5t-37.5 -67.5q-18 -25 -51 -43q-23 -12 -49.5 -18.5t-54.5 -6.5q-61 0 -88 25q-27 2 -48.5 11t-50.5 30l-8 4q-12 10 -20 10q-10 0 -10 -12v-13t4 -16q8 -37 32.5 -56t32.5 -21h6q4 0 8.5 1 t8.5 1q14 4 24 4t15 -11q2 -6 0 -10q-6 -8 -23 -8q-25 2 -43 12l-8 4q-6 4 -24.5 20.5t-32.5 43.5q6 -14 14 -19q-12 16 -17 25v-31q2 -43 3.5 -79.5t1.5 -59.5v-18q0 -8 -1 -14.5t-1 -14.5q-2 -72 -2.5 -132.5t2.5 -78.5q2 -25 17 -54.5t38 -41.5q4 -4 10 -5t12 -3 q16 -4 29.5 -9.5t15.5 -19.5q0 -10 -5 -13.5t-9 -5.5h-2q-27 0 -57 31q-29 29 -45.5 68t-16.5 73v19q2 23 2 60.5v82.5q-4 -16 -12 -30q-16 -37 -43 -60.5t-51 -23.5q-4 0 -13 4q-4 4 -2 12q0 16 13.5 21.5t29.5 9.5q14 2 25 6q23 14 37 44t16 54q4 33 0 195q0 -2 -1 -2 t-1 -2q-2 -8 -12 -13q-12 -4 -27.5 -5t-29.5 3q-23 6 -41 29q-16 23 -13 53q6 41 41 58q8 4 19 4q10 0 12 -9q2 -10 -8 -14t-21 -8q-12 -4 -16 -6q-10 -6 -14 -25q-4 -12 -1 -26.5t11 -24.5q10 -16 33.5 -21.5t42.5 3.5q20 10 22 49v16q0 4 -1 49t-1 99v137q0 4 4 12 q-2 0 -3 1t-3 1q-4 4 -6 5t-4 3q-27 10 -66 13.5t-61 3.5q-27 0 -27 10zM59 -428q6 6 16.5 5t20.5 -1t20.5 1t20.5 7q14 8 29 23q4 6 16 22q4 4 6 4t-2 -4q-10 -14 -19 -29.5t-22 -25.5q-20 -18 -45 -27q-10 -4 -22 -6t-19 8q-12 10 0 23zM63 1262q-10 10 3 22q6 10 18 8 t22 -6q29 -10 46 -26q10 -10 20 -25.5t21 -30.5q4 -4 2 -3t-7 5q-4 4 -9 10.5t-9 10.5q-8 12 -27 22q-10 6 -21.5 7t-21.5 1h-19t-18 5zM211 1083q4 -10 8 -19.5t8 -19.5v5q-6 16 -16 34zM223 819q2 0 2 -1t2 -1v-2zM225 29q0 -14 1 -27.5t1 -26.5v54h-2zM227 -199v-4v-33 v37zM231 254q2 -41 5.5 -69.5t9.5 -47t17 -32t30 -23.5q10 -6 27.5 -15.5t41.5 -13.5q-2 2 -2 3t-2 3t-2 11q2 6 9 8q12 8 25 -1t24 -22l2 -2q68 6 92 49q4 4 8 23q4 14 10 27.5t23 13.5q10 0 12 -5t2 -9q31 59 21 104h-2v4q-2 8 -11 25l-16 16q-12 10 -21.5 21.5t-3.5 25.5 q4 10 9.5 10t9.5 -2t5 -3t5 -3q-2 20 0 45q2 10 6 27q-2 8 -3 14t-3 15q-2 25 0 45q-4 -2 -5 -3t-5 -4q-2 0 -3 -1t-3 -1q-8 0 -13 11q-6 14 3.5 25.5t21.5 21.5l16 16q8 16 11 25v4h2q10 45 -21 104q0 -4 -2 -9t-12 -5q-16 0 -22.5 12.5t-10.5 28.5q-2 6 -3 12t-5 10 q-25 43 -92 50l-2 -5q-10 -8 -19.5 -16t-19.5 -8q-2 0 -10 4q-10 4 -9.5 9t2.5 9q2 2 2 3.5t2 3.5q-25 -4 -42 -13.5t-27 -15.5q-23 -12 -35 -29.5t-18.5 -47.5t-7.5 -76t-1 -119v104v-107v17v-19v-6v-2v10v-10v-14q18 14 26.5 27.5t16.5 23.5q6 10 17.5 18.5t27.5 10.5 q14 2 27 -2q4 -2 7 -3t7 -3q10 -4 20.5 -19.5t10.5 -23.5q0 -29 -8 -42.5t-23 -23.5q-4 -2 -7 -3t-7 -3q4 -2 7 -4t7 -4q14 -8 22.5 -22.5t8.5 -43.5q0 -8 -10 -23.5t-21 -19.5q-4 -2 -7 -3t-7 -3q-12 -4 -27 -2q-16 2 -27 10t-18 19q-8 10 -16 24.5t-27 28.5v-2v-23v-14v14 v-100zM231 340v14v-14zM244 2v2q2 0 4 -2l4 -4q29 -23 49 -49q14 -25 18 -53q2 -10 2.5 -25.5t-10.5 -22.5q-4 -2 -12 -2t-14 7q-4 6 -3 15t3 17q2 4 2 9q2 12 3 23t-3 22q-10 25 -21 34l-18 23q-4 4 -4 6zM244 846v2q0 -2 4 6l18 23q12 14 21 34q4 10 3 21.5t-3 21.5 q0 8 -2 11q-2 8 -3 17t3 15q8 12 26 4q10 -6 10.5 -21t-2.5 -24q-4 -31 -18 -55q-10 -12 -23.5 -25.5t-25.5 -23.5l-4 -4l-2 -2h-2zM295 -27h2h-2zM406 422q-4 10 6 16q2 0 3 1t5 1h10h16l25 -6q10 0 14 2q16 6 31 17l19 16l8 4l-2 -2l-2 -6l-21.5 -21.5t-23.5 -19.5l-2 -2 h2q10 -8 21 -19.5t22 -21.5l6 -8q-2 0 -3 1t-5 1l-19 18q-14 10 -31 17q-4 2 -14 2l-25 -6h-16h-10q-4 0 -5 1t-3 1q-8 6 -6 14zM424 45q4 -4 8 -6q49 -29 131 12v2h-2q-14 0 -14 15q0 16 13 22t28 10q20 8 22 11q49 35 47 122q-2 29 -13 54t-19 35q-14 14 -27 32 q-12 -35 -8 -61v-8q2 0 2 -2q4 -31 0 -67t-19 -64q-18 -39 -47 -60q-41 -35 -102 -47zM424 801q31 -6 59.5 -20.5t48.5 -30.5q12 -10 22.5 -23.5t18.5 -32.5q14 -29 18.5 -63.5t0.5 -67.5q0 -2 -2 -2v-8q-4 -27 8 -61l12 16t15 14q8 12 19 36t13 52q2 90 -47 125q-4 4 -9 5 t-13 5q-14 4 -27.5 10.5t-13.5 22.5q0 14 14 15h2q-82 43 -131 12q-4 0 -8 -4zM567 391q-4 -28 4 -53l4.5 -9t4.5 -10q2 12 4 23.5t6 22.5q-4 10 -10.5 21t-10.5 22q0 -4 -1 -8.5t-1 -8.5zM567 455q0 -4 1 -8.5t1 -8.5q4 10 9.5 21.5t11.5 21.5q-4 10 -6 21.5t-4 23.5 l-4.5 -9l-4.5 -9q-8 -24 -4 -53zM573 422q10 -33 21 -47q4 4 5 8t5 8q8 18 25 31q-16 16 -25 33q-4 4 -5 8t-5 8q-11 -16 -21 -49zM639 422q39 -39 78 -39q4 0 24 4q16 4 30.5 5t21.5 -9q6 -10 2.5 -15.5t-7.5 -7.5q88 8 117 62v2q-29 51 -117 61q4 -4 7.5 -8t-2.5 -14 t-20.5 -9t-31.5 5q-16 4 -24 4q-41 0 -78 -41z" />
<glyph unicode="~" d="M580 344q-2 14 4 25.5t20 15.5q16 4 35.5 -9.5t34.5 -21.5q18 -12 37.5 -21t44.5 -9q18 0 33.5 4t31.5 10q27 14 54.5 26.5t52.5 16.5q59 10 108 -2q20 -4 45 -13.5t29 -31.5q2 -14 -4 -25.5t-19 -13.5q-16 -4 -35.5 8t-35.5 23q-18 10 -38 19t-44 9q-16 2 -32.5 -3 t-33.5 -11q-27 -14 -54.5 -25.5t-51.5 -17.5q-55 -10 -109 2q-20 4 -44.5 13.5t-28.5 31.5zM580 461q-2 14 4 25.5t20 13.5q16 4 35.5 -8.5t34.5 -22.5q18 -10 37.5 -19.5t44.5 -9.5q18 0 33.5 4.5t31.5 10.5q27 14 54.5 26.5t52.5 16.5q59 10 108 -2q20 -4 45 -13.5 t29 -31.5q2 -14 -4 -25.5t-19 -15.5q-16 -4 -35.5 9t-35.5 23q-18 10 -38 19.5t-44 9.5q-31 0 -66 -14q-27 -14 -54.5 -26.5t-51.5 -16.5q-55 -10 -109 2q-20 4 -44.5 13t-28.5 32z" />
<glyph unicode="&#xa8;" d="M623 1485q0 25 17 42t44 17q25 0 43 -17.5t18 -41.5q0 -27 -18 -44.5t-43 -17.5q-27 0 -44 17.5t-17 44.5zM860 1485q0 25 17.5 42t44.5 17q25 0 43 -17.5t18 -41.5q0 -27 -18 -44.5t-43 -17.5q-27 0 -44.5 17.5t-17.5 44.5z" />
<glyph unicode="&#xa9;" horiz-adv-x="3104" d="M117 651q-2 8 6 17q-8 12 -6 16q0 6 4 6q10 -2 10 -14q18 14 35 14q14 2 35 -8v-2q8 -4 10 -8q2 2 3 4t3 4t2 4t-2 2l-6 6h-6q-4 2 -9.5 3t-5.5 7v5q2 0 2.5 1t2.5 1q4 0 12 -4q-6 8 -6 20q0 6 2 14.5t6 14.5h-2q2 2 2 4q2 2 2 4q10 12 20 18q10 8 31 8q20 0 27 -8 q12 0 28 -10l2 -2q8 -4 7 -4l2 4v8q-4 10 -10.5 15.5t-8.5 5.5h-6q-12 -4 -14 2v4q4 4 8 4q8 0 12 -4l2 -2l8 -4q-4 4 -6 5t-4 5q-6 6 -6 16v8.5t4 6.5q4 4 8 -2q4 -4 0 -11v-2q0 -4 -1 -6t1 -6q4 -8 7 -10l4 -6q2 -2 2 -4h-2h-2q0 2 -5 6q2 -4 4.5 -5t4.5 -6v50v8v61 q0 18 -15 29q-4 0 -8 2q-12 0 -12 10q-2 2 4 6q8 0 18 -10q18 -18 19 -43v-39q10 27 28 27q4 0 7 -2v-4q0 -6 -15 -11q-4 0 -6 -2q-6 -4 -10 -12t-4 -14q-2 -6 -1 -22.5t1 -31.5l2 3q8 2 18 0q8 -4 13 -9q4 -8 4 -16q-2 -12 -15 -18l-4 -3q-2 0 -6 5q0 4 3 5t7 3q2 0 4 2 q4 4 5 6q0 10 -5 14q-2 4 -8 6t-12 -2q-4 -4 -6 -14v-4v-10q0 -11 1 -24t1 -26.5v-19.5v-2v-2v-24.5t-1 -37t-1 -34v-17.5v-4q2 -10 6 -14q16 -4 20 6q4 2 5 14q0 2 -5 7l-4 2q-10 0 -10 6q2 4 10 4q10 -6 15 -19q0 -8 -4 -16q-8 -8 -13 -10q-12 0 -18 2l-2 2 q0 -14 -1 -31.5t1 -21.5q0 -18 14 -29q2 0 3 -1t3 -1q4 -2 9.5 -3t5.5 -7v-4q-2 0 -2 -1t-2 -1q-20 0 -31 28v-41q0 -20 -19 -43q-12 -8 -18 -8q-2 0 -4 2v4q0 6 12 10q6 0 8 2q6 4 10.5 12.5t4.5 14.5v64v8v49q-2 -4 -9 -10l5 4l2 2q2 -2 0 -4l-4 -8q-2 -2 -3.5 -4.5 t-3.5 -4.5q-2 -4 -1 -6t1 -6v-4q4 -4 0 -10q0 -2 -4 -2h-4q-4 4 -4 8v6q0 10 6 16q2 4 4 6.5t4 6.5q-4 -8 -4 -6h-2q-8 -4 -14 -5q-6 0 -8 2v5q2 4 14 4q0 -2 4 -2h2q2 2 8.5 7t10.5 15v8q0 2 -2 2t-7 -2l-2 -2q-8 -6 -14 -8t-14 -4q-6 -6 -27 -6q-18 0 -31 6q-12 8 -20 20 l-2 3q0 2 -2 4v2q-6 12 -6 28q0 8 6 19q-4 -2 -10 -2h-2q-2 0 -5 2v4q0 8 15 8q2 0 3 1t3 1t6 4l2 2q0 4 -2 4q-2 4 -3 5.5t-3 5.5q-4 -6 -10 -11h-2l-13 -6q-8 -4 -16 -4q-2 0 -4 2q-10 0 -18.5 4t-16.5 8q0 -12 -8 -12h-2q-4 0 -4 4zM133 668q10 -14 31 -17v6q4 6 16 2 q0 -2 4 -2h2q12 0 23 11q-8 10 -21 10h-8q-12 -4 -16 2v4q-23 -4 -31 -16zM207 612q-2 -23 12 -34q2 -2 6 -3q15 -4 13 -12q0 -4 -2 -4q25 -10 34 -2q-8 0 -16 6l-2 2q-4 0 -4 2q-2 0 -4 2l-2 2q-10 6 -13 17q-10 16 -6 37v2v2q0 10 -2 16q0 -2 -4 -6t-7 -10t-3 -17z M207 723q0 -20 10 -25q0 -2 2 -4l2 -2v-2q2 8 2 17v2v2v6v2q0 18 6 31q4 10 13 16l2 2q2 0 2 1t2 1l4 2l2 2h2q4 2 7 3t7 3q-14 6 -34 -2q2 -2 2 -6q2 -6 -13 -10q-2 0 -3 -1t-3 -1q-14 -12 -12 -37zM215 668q4 -4 6 -9q2 0 2 -4q4 9 4 13t-4 12l-2 -4q-4 -4 -6 -8zM225 651 q2 -4 2 -10q2 0 2 2q0 4 1 8t-1 8q0 -4 -4 -8zM225 686l4 -8q2 4 1 8t-1 8h-2q0 -6 -2 -8zM227 607q0 -7 4 -15q2 2 7 2q4 0 6 -4l4 -8q0 -4 1 -5.5t1 -3.5q6 -8 26 -12q11 10 15 6q4 -2 4 -6q10 2 16 8q14 8 16.5 39t2.5 72v8q0 43 -3 57.5t-16 22.5q-4 4 -16 8v-4l-4 -4 q-6 -4 -15 8q-20 -4 -26 -14q0 -2 -1 -3t-1 -3q-4 -14 -10 -15q-2 0 -7 4q-4 -8 -4 -15v-13h2q0 -4 2 -6q0 -2 5 -6q10 -6 8 -15l-2 -4h-2h-4v2v-12q0 -2 -1.5 -3t-1.5 -5q0 -2 1.5 -3t1.5 -3v-13h4q2 0 4 -2q2 -8 -8 -16q-4 0 -5 -4q-2 -2 -2 -6v-3h-2v-11zM307 799h2h-2z M313 367q0 10 9 18q18 18 43 18h41q-10 4 -19.5 12.5t-9.5 18.5q4 4 6 4q10 0 10 -14q2 -2 2 -6q10 -14 29 -15q4 -2 19.5 -2t33.5 2q-2 0 -2 3q-4 8 0 16q0 6 8 14q8 4 17 2q12 0 18 -12v-8l-2 -2q-8 0 -8 10q-2 2 -2 4q-8 8 -21 0q-12 -4 -4 -20q0 -2 13 -7h4h12h23.5 t25.5 1.5t19 1.5h2h2h26.5t37 -1.5t33.5 -1.5h17h4q12 4 13 7q4 6 2 12t-6 8q-4 4 -11.5 4t-9.5 -4q0 -2 -1 -2t-1 -2q0 -10 -6 -10h-4v2v8q6 12 18 12q8 2 17 -2q8 -8 8 -14q4 -8 0 -16q0 -2 -2 -3q18 -2 33.5 -2t19.5 2q18 0 29 15q0 4 2 6q0 14 8 14q6 0 6 -4 q2 -10 -7 -18t-20 -13h39q23 0 45 -18q8 -12 9 -18q0 -6 -7 -7q-6 2 -7 6.5t-3 8.5l-2 4v2q-10 16 -28 16h-62h-8h-49q4 -2 8 -6l-2 2t-2 4q2 0 4 -2l6 -4q4 -4 5 -4t5 -2q6 -4 13 0h4q2 0 4 1t6 -1q4 -4 0 -10q0 -2 -8 -2h-6q-8 0 -17 6q-2 2 -4 3t-6 5l4 -4v-2v2l2 -4 q4 -4 4 -12q0 -4 -2 -7q-2 -2 -4 -2q-4 2 -4 13q0 2 1 3t1 3h-2q0 4 -5 10t-15 8q-4 2 -9 2q-2 0 -2 -2t2 -6l2 -2q10 -16 13 -29q6 -10 6 -27.5t-6 -29.5q-8 -12 -15 -14q0 -4 -4 -4v-2q-2 0 -3 -1t-5 -1v-3h-2q-12 -6 -27 -6h-2q-6 0 -10 1t-8 3q2 -4 2 -10q0 -4 -6 -4 q-8 0 -8 14q-2 2 -2 7q-2 6 -9 8l-4 -2q-2 -2 -4 -3t-4 -3q2 -2 10 -13v-2q2 0 2 -2l2 -2v-4q2 0 2 -4q4 -12 2 -21q0 -14 -14 -32q14 -4 14 -8q0 -6 -6 -9q-4 0 -16 9q-8 -8 -14 -9h-2q0 2 -2 2q-2 2 -3 7q0 4 4.5 5t8.5 3q-4 8 -8.5 16t-4.5 16q-2 10 3 23v2q2 2 2 4 q2 2 2 4q2 0 2 2v2q4 4 5 6.5t5 4.5q-2 2 -4 3t-4 3t-6 2l-2 -2q-2 -2 -2.5 -3t-2.5 -3q0 -4 -2 -7q0 -14 -8 -14q-6 0 -6 4q0 6 2 10q-12 -4 -18 -4h-2q-14 0 -29 6l-2 3q-2 0 -6 4q-2 0 -6 4q-4 2 -13 14q-6 12 -7 29.5t7 27.5q2 8 4 14.5t9 14.5l2 2q2 4 2 6l-2 2 q-4 0 -9 -2q-10 -2 -15 -8t-7 -10q0 -4 2 -6q0 -10 -4 -13q-4 0 -4 2q-2 2 -2 7q0 8 4 12v4h2q2 2 5 6t9 8h-49h-8h-62q-8 0 -16 -4t-12 -12l-2 -2v-4q-4 -12 -11 -15q-6 0 -6 7zM319 967q0 6 5 6q8 0 12 -15q0 -4 2 -6q6 -12 27 -16h61q4 0 5 1t3 1l51 -2q-4 2 -10 8l4 -4 v-2v-2l-4 2l-4 4q-6 6 -12 6q-2 2 -13 2l-2 -2h-10q-6 2 -2 10t14 3q10 0 17 -7q4 -2 10 -8q-4 4 -4 6l-2 2q-2 4 -2 13q-4 2 2 8h2q8 -2 4 -12v-7h-2h2q0 -4 6 -10t17 -8q2 -2 8 -2q2 0 2 2t-2 6l-2 2q-12 14 -13 29q-4 4 -8 22q0 20 8 35q8 12 13 17q2 0 6 4q2 0 6 4h2 q14 6 29 6q8 0 20 -4q-4 8 -2 10q0 6 4 6q6 -2 7 -7t4 -9q0 -4 2 -6q0 -2 4 -6l2 -3q2 0 2 1.5t2 1.5q4 2 8 6q-2 4 -4 6t-4 6q-2 0 -2 2l-2 2v2q-2 2 -2 4t-2 4q-2 6 -2 21q2 18 14 33q-12 4 -12 10v4q2 0 2 1t2 1q4 0 16 -8q8 8 14 8q4 0 4.5 -1t2.5 -1v-4q0 -6 -13 -10 q12 -14 15 -33q0 -14 -2 -21q-2 -2 -2 -4l-3 -4v-2l-2 -2l-2 -2v-2q-2 -4 -4 -5t-4 -5q4 -4 8 -6q2 0 2 -1.5t2 -1.5h3v3q4 4 4 6q2 2 2 6q0 14 8 16q6 0 6 -6q2 -2 -2 -10q12 4 18 4q18 0 31 -6h2q4 -4 6 -4q4 -4 6 -4q4 -4 13 -17q8 -14 8 -35q-4 -18 -8 -22 q0 -14 -13 -29l-2 -2q-2 -4 -2 -6l2 -2q6 0 9 2q10 2 16 8t6 10v7q-4 8 2 12h4q4 -6 2 -8q0 -8 -2 -13l-2 -2q-2 -2 -2 -3t-2 -3q2 4 10 8q6 6 17 7q10 6 14 -3q4 -8 -2 -10h-10h-2q-10 2 -13 0q-6 0 -10 -4l-6 -6q-2 -2 -4 -2l-2 2l2 2l4 4q-6 -6 -10 -8l51 2q2 0 3 -1 t5 -1h62q6 2 14 6t12 10q2 2 2 6q4 14 11 15q6 0 6 -6q0 -8 -8 -17q-16 -20 -43 -20l-39 2q27 -14 26 -31q0 -6 -6 -6t-10 14q0 4 -2 6q-4 6 -12.5 10.5t-14.5 6.5h-53v-4q4 -10 2 -17q-2 -6 -8 -12q-4 -4 -15 -4h-4q-12 0 -16 12q-2 2 -2 8q2 0 2 1.5t2 1.5q4 0 8 -9 q0 -4 2 -6q2 -4 9.5 -4t11.5 4q10 10 4 21q-4 6 -14 6h-5h-79h-3h-2h-112h-4q-12 0 -15 -6q-4 -6 -2 -12.5t6 -8.5q4 -4 11.5 -4t9.5 4q2 2 2 6q4 8 8 9q2 0 2 -1.5t2 -1.5q0 -6 -2 -8q-4 -12 -16 -12h-4q-10 0 -15 4q-4 2 -8 12t2 17v4h-53q-6 -2 -14 -6t-13 -11 q-2 -2 -2 -6q-4 -14 -10 -14t-6 6q0 16 27 31l-39 -2q-27 0 -43 20q-8 8 -9 17zM426 502q-2 16 6 17t8 -5q0 -2 -2 -10t1 -16.5t14.5 -14.5t40.5 -6q23 -2 45 15.5t22 66.5q0 35 -13 52t-28 26q-4 0 -5 1t-3 1l-8 4l-12 6q-23 6 -33 18q-10 8 -21 25q-4 4 -5 12t3 13 q4 10 13 2q4 -4 5 -10.5t1 -10.5q2 -6 3 -13t5 -11q10 -8 22.5 -14.5t24.5 -6.5q27 0 51.5 24.5t24.5 80.5q0 27 -6.5 50t-14.5 40q-6 12 -24.5 21t-34.5 9h-6h-2q-6 0 -13.5 -1t-13.5 -5t-9 -9t-7 -9t-7.5 -10.5t-7.5 -8.5q-6 -4 -10 9q-4 4 2 10l10 10t20.5 12t35.5 8 q39 0 64.5 -17t39.5 -44q14 27 41 44t66 17q18 0 33.5 -8t21.5 -12q4 -4 9 -10t3 -10q-4 -10 -12 -9q-4 2 -7 8.5t-7 10.5t-7.5 9t-9.5 9t-13 5t-13 1h-7q-16 0 -34.5 -9t-24.5 -21q-8 -16 -15.5 -40t-7.5 -50q0 -55 25 -80t51 -25q14 0 25.5 6t21.5 15q8 8 9 24q2 4 2 10.5 t4 10.5q6 6 14 -2q4 -4 2 -12.5t-6 -12.5q-6 -16 -18 -25q-16 -12 -33 -18q-4 -2 -7 -3t-8 -3l-8 -4q-2 0 -3 -1t-3 -1q-16 -8 -28.5 -25.5t-12.5 -52.5q0 -49 22.5 -66.5t43.5 -15.5q27 0 39 6t15 14.5t1 16.5t-2 10q2 6 9 5t5 -17q-2 -10 -18 -25.5t-51 -15.5 q-37 0 -65 23.5t-28 62.5q0 35 23 53t49 33q2 2 0 4q-57 6 -86 59q-31 -53 -86 -59h2q-2 -2 0 -4q27 -14 49.5 -32.5t22.5 -53.5q0 -39 -27.5 -62.5t-66.5 -23.5q-35 0 -51.5 15.5t-18.5 25.5zM428 375q-4 6 0 10q2 2 5 1t5 -1h4q6 -4 13 0q8 4 10 6l6 4l2 2v-4 q-8 -10 -14 -14q-10 -6 -17 -6h-6q-8 0 -8 2zM479 756l2 2l-2 2h2v2v2q0 2 2 2v2h2v2h2l2 2h3h2h2h2h2h2v-2h2l2 -2l2 -2v-2l2 -2v-2v-2v-2v-2v-2h-2v-2v-2h-2v-3h-2h-2v-2h-2l-2 -2v2q-2 0 -2 -2l-2 2l-2 -2v2h-3l-2 2h-2q0 2 -2 3v2h-2v2v2zM485 340q-8 -10 2 -35q2 2 5 2 q8 0 12 -12q0 -2 1 -3t1 -3q8 -12 33 -13h2q10 0 16 3.5t10 7.5q2 0 2 1t2 1q0 2 2 2q-4 2 -14 2h-2l-2 -2v2h-6l-4 -2l2 2h-2q-12 0 -29 4q-12 8 -16 14l-2 2q0 2 -1 2t-1 2q-2 0 -2 5q-2 0 -2 2v2q-4 4 -4.5 7t-2.5 7zM489 344q4 -18 15 -25q0 -2 6 -2q12 -4 12 -10 q0 -4 -2 -6q18 -6 27 -4h2q2 2 3 2t3 2q2 0 6 4q6 10 14 8q2 -2 3 -4q4 0 0 -4h12q2 0 3 -1t3 -1q4 0 5 1t3 1h12q-4 4 2 8q8 2 15 -8q4 -4 6 -4q2 -2 3 -2t3 -2q12 -2 29 4q-2 2 -2 6q0 6 12 10q6 0 6 2q10 6 15 25v2q-4 4 -7.5 7t-1.5 7t6 5h3q-4 12 -9 16q-8 12 -39.5 14 t-72.5 2h-6q-43 0 -57.5 -2t-22.5 -14q-4 -4 -9 -16h3q4 0 6 -5q2 -4 -9 -14v-2zM489 993h3q2 14 14 31l4 4q4 2 6 4t6 4q12 6 29 6q6 0 8 -2v2l2 -2h2h2q8 0 15 2l-2 2l-5 5l-10 5t-16 5h-4q-20 0 -31 -15q2 0 -4 -6q-4 -12 -10 -12q-4 0 -4 2q-10 -18 -5 -35zM496 971 q2 -6 4 -10.5t4 -8.5q8 -12 38.5 -14t71.5 -2h9q43 0 57 2t20 14q2 4 4.5 8.5t4.5 10.5l-2 -2l-5 4q-4 4 -0.5 8t7.5 8q0 18 -13 25q-2 2 -3 2t-3 2q-14 0 -14 10q0 2 1 2t1 2q-16 6 -27 4l-8 -4l-4 -4q-8 -8 -12 -8h-4q0 2 -1 2t-1 2v4h-5q-4 0 -6 2h-8h-8q-2 -2 -6 -2 q-2 0 -3 1t-3 1l2 -2q0 -6 -4 -8t-7.5 1t-7.5 7l-4 4q-4 4 -8 4q-10 2 -27 -4q0 -2 1 -2t1 -2q0 -10 -14 -10q-2 -2 -3 -2t-3 -2q-12 -6 -12 -25q4 -4 7 -8t-1 -8l-4 -4zM563 260v2v-2zM569 297q8 0 11 -2q4 4 8 4q-4 2 -8.5 1t-8.5 -1zM575 1036l3 -2h14h2q-4 2 -5 2t-5 2 q-2 0 -4 -1t-5 -1zM580 233q2 -25 16 -30q14 6 18 30q-2 0 -2 -2q-2 0 -2 1t-2 1q-6 4 -2 17v4q0 2 2 2q-4 16 -12 23q-10 -10 -10 -23v-2q0 -2 2 -4q4 -12 -2 -17q-2 0 -2 -1t-2 -1zM580 309l8 8l4 9v4q0 4 -2 6q0 6 2 10v2h2q0 2 2 2t4 -2h2v-2q4 -6 0 -10v-6v-4 q0 -5 4 -9l6 -8v-2h-2l-14 15q-2 -4 -10 -13l-4 -2zM586 293l2 -2q4 -2 8 -6q4 2 5 3t5 3l2 2q-4 4 -12 4q-6 0 -10 -4zM586 471l2 2h-2q0 2 2 2v2v2q0 2 2 2v2h2v2h2h2l2 2h2h2h2h2q0 -2 1 -1t1 -1h2l2 -2l2 -2v-2q0 -2 2 -2v-2v-2v-2v-2v-2h-2v-2v-2h-2v-2h-2l-2 -2h-2 l-2 -2v2l-2 -2l-2 2l-2 -2v2h-2h-2q0 2 -2 2l-2 2q0 2 -2 2v2v2zM586 1024v2l2 2l2 -2l12 -12q2 4 5 6t7 6h2h5l-9 -8q-2 -4 -3 -5t-3 -5v-4q0 -2 1 -3.5t1 -3.5v-10q-4 -4 -6 -4t-6 4v10q0 2 1 3t1 4v4q-2 4 -3 5t-3 5zM586 1100q2 2 4 0q6 -2 2 -17v-6q0 -10 10 -20 q10 10 10 20v6q-4 14 2 17q0 4 4 0q-2 25 -16 30q-14 -6 -16 -30zM590 1040q4 -2 6 -2t6 -2q4 2 6 2t6 2q-2 2 -4 2q-2 2 -4 3.5t-4 3.5q-2 -2 -4 -3.5t-4 -3.5q-2 0 -4 -2zM606 299l8 -4q2 2 11 2l-2 2q-4 0 -8.5 1t-8.5 -1zM610 1034h2q11 0 15 2h2q-2 0 -4 1t-4 1 q-4 -2 -5.5 -2t-5.5 -2zM618 291q2 0 5 -2l4 -2q10 -10 26 -11h2q23 0 33 13q0 2 1 3t1 3q4 12 10 12q4 0 7 -2q8 20 2 35q-2 -4 -3 -8t-4 -8q0 -2 -2 -2q0 -2 -2 -5q0 -2 -1 -2t-1 -2q-2 0 -2 -2q-4 -6 -16 -14q-16 -4 -29 -4h-10h-2h-2h-2q-8 0 -15 -2zM625 1042 q6 -2 14 -2h2h2l2 2v-2q2 0 3 1t3 1h2q16 0 29 -6q8 -4 16 -12q2 -2 2 -4l5 -4q0 -2 2 -2q0 -2 2 -4q4 -12 4 -17q8 14 -2 35q0 -2 -4 -2q-6 0 -11 12q-6 6 -4 6q-10 14 -30 15h-5q-10 -2 -16 -5l-10 -5l-4 -5zM690 752v2v2v2v2v2l2 2q0 2 2 2v2h2v2h2v2h2h2h3h2h2h2l2 -2h2 v-2h2v-2l2 -2l2 -2v-2v-2v-2v-2v-2h-2v-2l-2 -2l-2 -3h-2q0 -2 -2 -2l-2 -2l-2 2l-2 -2v2l-3 -2q0 2 -2 2h-2v2h-2l-2 3v2h-2v2h-2zM829 453q0 6 15 10q4 0 6 2q6 4 10 12t6 15v53h-4q-10 -6 -16 -2q-10 4 -12 8q-6 10 -5 18q0 12 13 17q2 2 6 2t4 -4t-8 -9q-4 0 -6 -2 q-2 0 -2 -6q-2 -6 2 -14q8 -8 20 -4q6 2 6 14v4v80v2v2v113v4q0 10 -6 14q-12 4 -20 -4q-4 -10 -2 -14q0 -6 2 -6q2 -2 6 -2q8 -4 8 -8t-4 -5q-4 0 -6 2q-12 4 -13 17q-2 8 5 18q6 6 12 8t16 -2h4v54q-2 6 -6 14t-10 12q-2 2 -6 2q-14 4 -15 11q0 6 7 6q16 0 30 -27 q0 8 -1 14.5t-1 12.5v12q0 20 19 43q8 8 18 8q6 0 6 -6t-14 -10q-4 0 -6 -2q-6 -4 -10.5 -12.5t-6.5 -14.5v-61q0 -4 1 -5t1 -3l-2 -52q2 4 9 11l-5 -5l-2 -2l-2 2l2 5l7 6q4 4 4 10q2 4 2 12l-2 2v11q2 6 10 2q8 -8 2 -15q0 -10 -6 -16q-4 -8 -8 -10q4 4 6 4l2 2q4 2 12 2 q6 0 8 -2v-4q0 -6 -12 -2h-4l-2 2v-2q-4 0 -10.5 -6.5t-8.5 -16.5q-2 -2 -2 -8q0 -2 2 -2t7 2l2 2q14 12 28 12q12 8 27 8q14 0 31 -8q14 -6 20 -18q0 -2 2 -4q0 -2 1 -2t1 -2v-2q6 -12 6 -29q0 -6 -4 -19q2 2 8 3q6 0 7 -3q2 0 2 -4q-2 -4 -6.5 -6t-8.5 -2q-6 0 -8 -2 q-2 0 -6 -4l-2 -2q0 -2 1 -2t1 -2q2 -4 6 -8q4 2 6 4t6 4q12 10 35 10q8 -2 17.5 -5t15.5 -9q4 12 10 12t6 -4q0 -8 -6 -16q6 -10 6 -17q0 -4 -6 -4t-10 12q-12 -10 -33 -14h-6q-4 0 -16 4q-4 0 -13 4v2q-8 4 -12 9q-4 -4 -6 -9q0 -2 -1 -2t-1 -2l2 -2q4 -4 6 -4q2 -2 8 -2 q4 -2 8.5 -3t6.5 -5q0 -4 -2 -6h-4l-3 -2q-4 0 -8 4q4 -12 4 -19q0 -16 -6 -30q0 -2 -1 -2t-1 -3q0 -2 -1 -2t-1 -2q-6 -12 -20 -18q-16 -8 -31 -8q-14 0 -27 8q-14 0 -28 12h-2q-8 4 -7 4l-2 -2q0 -6 2 -8q2 -10 8.5 -16t10.5 -6h6q12 4 12 -2v-5q-2 -2 -8 -2q-8 0 -12 2 l-2 2q-2 2 -3 2.5t-5 4.5q8 -8 10 -13q6 -6 6 -16q6 -10 -2 -14q-2 0 -2 -1t-2 -1t-6 4v10l2 2q0 8 -2 12q0 6 -4 10l-7 7q-2 2 -2 4l2 2l2 -2l5 -4q-6 6 -9 10l2 -51q0 -2 -1 -3t-1 -6v-61q4 -20 17 -27q2 -2 6 -2q14 -4 14 -10t-6 -6q-10 0 -18 8q-18 23 -19 43l2 39 q-14 -27 -30 -27q-4 0 -5 3q-2 0 -2 4zM870 645q0 -43 2 -57.5t15 -22.5q4 0 8 -2t10 -4v2q0 4 2 4q8 2 17 -6v-2q18 4 24 14q2 2 2 3t2 4q0 14 11 14q2 0 4 -2q6 16 4 26q0 4 -4 9l-4 4q-4 4 -7.5 7t-1.5 7t7 4h2h2q-4 4 0 10v9v8q-4 6 0 10h-2h-2q-4 0 -7 2q-2 4 1 8t8 8 l4 5q4 4 4 8q2 10 -4 26l-4 -2q-10 0 -11 15q-2 2 -2 3t-2 3q-6 12 -24 12q-8 -8 -13 -8q-2 0 -2 1t-2 1q-6 2 -2 6q-6 -2 -10 -4l-8 -4q-12 -8 -14.5 -39t-2.5 -72v-8zM891 535v2v-2zM920 666q0 4 2 6h4h6q2 0 3 -1t3 -1h6q4 4 8 6l9 6v-4q-4 -4 -6.5 -7t-6.5 -5l13 -13v-2 v-2h-3l-6 6l-8 4q-2 2 -6 3q-2 -2 -6 -3h-4h-2h-2h-2q-2 2 -2 7zM928 553q16 -6 35 4q-2 2 -2 4q0 6 12 10q6 6 6 4q14 8 14 35q-2 10 -5 16.5t-5 10.5l-6 6q-2 -4 -2 -9v-7v-2l2 -2h-2q2 -2 2 -7v-2q0 -16 -6 -28q-4 -8 -13 -17q-2 -2 -4 -2q0 -2 -1 -2t-1 -2q-4 0 -4 -2 q-2 0 -4 -2q-12 -4 -16 -4v-2zM928 776q10 0 16 -6v2q2 -2 4 -2q0 -2 4 -2q0 -2 1 -2t1 -2q2 0 4 -2q8 -8 13 -17q8 -18 4 -36h2l-2 -2v-2v-7.5t2 -9.5l6 6q2 4 5 10.5t5 16.5q0 27 -14 35q0 -2 -6 4q-12 4 -12 10q0 2 2 4q-20 10 -35 2zM969 655q0 -10 2 -16q0 4 1 5t1 5 l-4 8v-2zM969 674l4 8q0 4 -1 5t-1 5v-2q-2 -4 -2 -14v-2zM971 666q2 -4 2 -6.5t2 -6.5q2 2 2 4q2 2 3 4.5t3 4.5q-2 2 -3 4t-3 4q0 2 -2 4q-2 -4 -2 -6t-2 -6zM991 666q10 -10 21 -11h6q14 4 16 -2q2 0 2 -4q23 4 29 17q-6 14 -31 16q4 -4 0 -4q-2 -4 -16 -4q-2 2 -6 2 q-10 0 -21 -10zM1180 182v965q0 4 5 4t5 -4v-965q0 -6 -6 -6q-4 0 -4 6zM1370 553q0 4 2 4h2h8q12 0 13 8v27h6q4 0 6 2q4 4 4 8v8v4q0 6 2 7q2 -2 2 -9v-47q2 -8 12 -8h7q6 0 6 -2v-2l-4 -2h-9q-12 0 -12 -8v-125q0 -6 4 -6h4q4 0 7 2q8 4 8 8q0 2 -1 3t-1 3q-4 12 2 14 q6 0 6 -8q2 -12 -8 -22q-4 -2 -5 -3t-6 -3h-2q-2 0 -4 -1.5t-6 -1.5h-4q-4 0 -8 3q-6 2 -6 14v125q-2 6 -13 6h-6h-4q-2 0 -2 2zM1370 711l2 2q0 2 6 2h6q12 0 13 10v248q0 10 -13 10h-6q-6 0 -8 2v2q2 2 6 2h60h6q4 0 4 -2v-2q0 -2 -6 -2h-6q-14 0 -15 -10v-248 q0 -10 13 -10h10h10q47 0 53 6q18 10 23 43q0 2 -1 3t-1 3q0 12 4 14h2q2 -2 2 -8v-35v-30l-16 -1q-15 -1 -32.5 -1h-32.5h-17h-60q-4 0 -6 2zM1460 336q0 8 4 8q6 -2 6 -5v-7v-6q0 -6 7.5 -8.5t13.5 -2.5q4 2 10 6.5t10 20.5q2 8 3.5 16.5t3.5 14.5q2 14 6 20l2 13l-13 43 l-28 96q-6 10 -12 10h-3q-4 -2 -4 -1t-2 1h-2h-2v2q2 2 6 2h45h5h6v-2v-2q-2 0 -3 -1t-3 -1l-7 2q-2 0 -4 -2t0 -8l31 -99l10 35q16 68 13 70l-5 4h-4q-6 -6 -10 0v2q0 2 4 2h47h2h6v-2v-2q-4 -4 -12 0q-12 0 -16 -4q-2 -4 -7 -23.5t-14 -54.5l-12 -41v-2l-10 -39 q0 -4 -3 -16.5t-7 -26.5q-2 -4 -2 -5t-3 -5q0 -10 -6 -19q-8 -8 -16 -8l-4 -2q-6 0 -14 4q-12 8 -13 23zM1573 783v10v110q0 6 6 28.5t35 41.5q2 0 16.5 7t30.5 7h2q16 0 33 -8q8 -4 14 -6q29 -16 36 -38t7 -32v-112q0 -6 -7 -29t-36 -41q-6 -4 -14 -8q-12 -6 -31 -6h-4 q-16 0 -30.5 7t-16.5 7q-23 16 -31 35q-2 0 -4 6q-2 2 -2 6q-4 10 -4 15zM1595 774q0 -6 2 -12q2 -4 4.5 -11.5t8.5 -13.5q14 -16 30.5 -20t20.5 -4h2q4 0 21.5 4t29.5 20q10 12 13.5 21.5t3.5 13.5v150q-2 4 -4.5 13t-12.5 21q-12 16 -28.5 19.5t-20.5 3.5h-4 q-6 0 -21.5 -3t-29.5 -20q-10 -14 -12.5 -24t-2.5 -12v-146zM1608 311v2v2h6h6q12 0 12 11v161v7v51q0 10 -12 10l-6 -2q-2 0 -3 1t-3 1v2q0 2 4 2h26q2 0 7 -2q8 -4 8 -12v-10l2 2q4 10 11 16t24 6q4 0 11 -1t17 -9q4 -4 11 -12q4 -10 8 -25.5t4 -34.5q0 -6 -1 -20.5 t-9 -30.5q-2 -2 -4.5 -5t-6.5 -7q-14 -10 -28 -11q-14 0 -21.5 6.5t-11.5 10.5t-6 10v-33v-39q0 -8 2 -12l-2 -20q0 -10 12 -11h6h6v-2v-2q-2 -2 -4 -2l-35 2l-24 -2h-4q-2 0 -2 2zM1653 430v2q0 -2 2 -4zM1653 467q4 -20 6 -29q2 -6 9 -18t20 -12q10 0 20 11t10 58v6 q0 18 -1 36t-11 28q-6 6 -20 6q-16 0 -27 -23q-4 -4 -4 -10t-2 -16v-37zM1653 532v5v-5zM1751 487q0 6 1 20.5t9 31.5q2 2 4 5t7 7q14 10 28 10h6h4q18 0 29 -10q4 -4 6 -7t4 -5q8 -16 9.5 -30.5t1.5 -21.5q0 -39 -13 -59l-6 -6l-4 -4q-10 -10 -17.5 -11t-11.5 -1h-6 q-4 0 -11 1t-17 11q-2 2 -4.5 4t-6.5 6q-12 20 -12 59zM1772 487l2 -12q0 -20 2 -37.5t16 -23.5q14 -4 29 0q12 6 14 24.5t4 38.5v10q0 70 -31 70h-4h-2q-31 0 -30 -70zM1784 981v2q0 2 6 2h59h4q6 0 7 -2v-2q-2 -2 -7 -2h-12q-8 0 -12 -4t-4 -12.5v-16.5v-8v-158 q0 -2 2 -15t12 -28q4 -10 12.5 -13t16.5 -7t18 -4q6 0 20.5 4t26.5 20q4 4 7.5 10.5t3.5 10.5v211q0 10 -13 10h-6q-4 0 -5 1t-3 1v2q0 2 6 2h62h4q4 0 4 -2v-2q0 -2 -6 -2h-7q-12 0 -12 -10v-181l-2 -2q0 -10 -7 -29.5t-30 -35.5q0 -2 -11 -8t-26 -6l-2 2v-2h-2 q-27 0 -43 16q-20 14 -26 41v174v8v16.5t-4 12.5q-2 4 -13 4h-10h-6q-2 0 -2 2zM1867 429q1 7 3 13q6 12 16 21v2q-4 8 -4 10q-4 12 -4 33q0 4 1 15.5t7 21.5q0 4 6 10q6 4 12.5 6t10.5 2h8q4 0 10 -2t13 -6q4 -4 5 -6t3 -4q6 8 18 8q8 0 8 -4q2 0 2 -4q-2 -4 -6 -3t-8 3h-6 q-2 0 -6 -4q4 -10 5 -19.5t1 -13.5q0 -8 -1 -21.5t-7 -23.5l-8 -8q-8 -6 -13.5 -7.5t-9.5 -1.5h-6q-10 0 -16 5q-4 4 -5 4q-4 2 -8 2q-8 -4 -12 -15.5t0 -21.5t31 -10q16 2 32.5 -1t30.5 -20h2q2 -2 2 -4q6 -10 6 -20v-15q0 -14 -8 -22q-4 -4 -6 -5t-4 -4q-10 -6 -20.5 -7 t-14.5 -1h-2q-27 0 -43 11q-4 2 -8 6l-2 2q-4 4 -4 10q-6 12 4 25q4 4 6 4q4 0 4 -2q2 -4 -6 -13l-4 -4q-4 -8 2 -14q6 -8 33 -8h18h4q43 0 47 24v13q0 8 -8 15t-41 7h-8q-12 -2 -23.5 0t-21.5 19q-4 4 -4 8q-4 8 -3 15zM1894 500q0 -16 2 -28.5t13 -16.5q4 -2 11 -2t11 2 q10 4 12.5 17t2.5 30v6v10v6q-4 23 -10.5 28t-12.5 7h-6q-23 -2 -23 -51v-8zM1952 545h2h-2zM1993 406v2q2 2 6 2h4q14 2 14 10v125q0 10 -12 10l-6 -2h-4q-2 0 -2 2q0 4 4 4h26q2 0 7 -2q8 -4 8 -12l2 4q10 14 22 10q4 0 9 -4v-2q-2 -6 -13 -2h-6q-8 0 -12 -10h2v2 q6 2 20 2q6 -2 15 -10q4 -6 4 -19q-2 -14 -15 -20q-2 0 -3 -1t-3 -1q-4 0 -4 4q-2 4 10 8q4 0 5 2q4 2 4 8q2 6 -2 16q-8 12 -27 7q-4 -4 -6 -12.5t-2 -16.5v-6v-84q0 -10 12 -10h4q8 0 8 -2t-4 -2h-35h-26h-4zM2011 711q0 4 8 2h6q8 0 9 4q0 2 -2 5t-4 7q-16 23 -17 45 q0 23 13.5 45.5t29.5 22.5q6 0 6 -6t-6 -8.5t-10 -4.5t-6 -2t-4 -2q-18 -12 -19 -47q0 -12 4 -21.5t9 -13.5q10 -18 31.5 -21t84.5 -3h10q8 0 10.5 14t2.5 33q0 35 -7.5 47t-19.5 22l-6 7q-2 0 -17.5 13t-35 28.5t-34.5 28t-17 14.5q-8 8 -9 14v41q0 12 9 12h34h56 q23 0 38 -13t15 -36q0 -20 -13.5 -33.5t-33.5 -13.5q-16 0 -30.5 11t-14.5 30q0 8 6 8q8 0 9 -5t3 -11q2 -10 5 -17.5t20 -7.5q18 0 33 10q10 14 10 27q0 27 -15.5 35t-58.5 8q-47 0 -55 -2t-8 -12q2 -16 7 -21.5t15 -13.5l18 -16q19 -15 42.5 -33.5t42 -35t18.5 -18.5v-112 q-4 -8 -6 -8h-125h-12q-14 0 -16.5 1t-2.5 3zM2097 422q-12 25 2 47q0 2 1 2t1 2l2 2l58 23v28v2v4q-2 8 -10.5 11.5t-18.5 3.5q-16 0 -23 -6q-8 -8 -4 -15q0 -4 4 -4q8 -8 7 -14q-4 -4 -7.5 -1t-3.5 5q-8 10 -4 25q2 4 3 5t3 5q4 2 6.5 3t6.5 3q6 6 26 6q10 0 22.5 -5 t12.5 -26v-108q0 -8 12 -8h7q4 0 6 -2v-2q0 -2 -4 -2h-27q-4 0 -8 2q-6 2 -6 12v8l-7 -6q-4 -10 -13 -13t-17 -3q-16 0 -27 16zM2108 449.5q1 -9.5 6 -15.5q8 -12 16 -14h2q2 0 7 1t11 5q10 10 11 29v34l-50 -18q-4 -12 -3 -21.5zM2161 426v2v-2zM2191 711v2q2 0 3 1t4 1h8 q12 0 12 10v246q0 10 -12 10h-8q-4 0 -7 2v2q0 2 7 2h59h4q6 0 6 -2v-2q-2 -2 -8 -2h-6q-12 0 -12 -10v-246q0 -10 12 -10h6q4 0 5 -1t3 -1v-2q0 -4 -6 -4l-63 2v-2q-6 0 -7 4zM2198 313l2 2h6h6q12 0 12 11v161q-2 2 -2 7l2 51q-2 10 -12 10l-6 -2h-4q-2 0 -2 2v2q0 2 4 2 h26q2 0 6 -2q8 -4 9 -12v-10v2q10 23 36 22q4 0 11.5 -1t17.5 -9q0 -2 2 -4t6 -8q12 -18 13 -60q0 -6 -1 -20.5t-10 -30.5l-8 -12q-14 -10 -31 -11q-12 0 -20 6.5t-12 10.5q-2 2 -2 4t-4 6v-33l2 -39v-12v-20q0 -10 12 -11h6h6v-2v-2l-2 -2h-4l-33 2l-26 -2q-2 0 -4 2z M2243 430q2 0 2 -2q0 2 -2 4v-2zM2243 532h2l-2 5v-5zM2245 467q0 -16 4 -29q4 -6 10 -18t20 -12q10 0 19.5 11t9.5 58v6q2 18 1 36t-11 28q-10 6 -21 6q-6 0 -14 -4t-14 -19q-4 -12 -4 -26v-37zM2292 711l2 2q0 2 6 2h4h8q8 0 10 2q4 4 12.5 22.5t14.5 34.5l18 49l52 148 q0 12 -15 12l-6 -2h-4q-2 0 -2 2l-2 2l2 2h4h62h4h4v-2v-2l-2 -2h-4l-6 2q-12 0 -13 -12l43 -246q0 -10 13 -10h6q6 0 8 -2v-2q0 -2 -6 -2h-64q-6 0 -6 2v2q2 2 8 2h6q12 0 13 10l-21 119q-4 0 -5 -1t-3 -1q-59 -27 -80 -72q-14 -35 -15 -43t-1 -10q4 -2 12 -2h8h4q6 0 6 -2 v-2q0 -2 -4 -2h-61h-4q-4 0 -6 2zM2347 408v2q0 2 6 2h6q10 0 11 10v217q0 10 -11 10h-6h-6q0 6 2 6h2l27 -2q2 0 6 -2q8 -4 8 -12v-109q2 4 3 5.5t3 5.5q14 18 45 18h11q2 -2 6 -4t4 -10v-15v2v-2v-53v-57q0 -8 14 -8h4q6 0 6 -2v-2q0 -2 -4 -2l-35 2l-20 -2q-4 0 -6 2l2 2 q0 2 6 2h8t4 8v127q0 6 -4 6h-2q-39 -6 -45 -43v-88q0 -10 8 -10h4q6 0 6 -2v-2q0 -2 -4 -2h-4l-24 2l-27 -2q-4 0 -4 2zM2380 838q0 -11 12 -11h2q4 2 14.5 7.5t20.5 9.5l10 6l-18 106l-39 -110q-2 -4 -2 -8zM2392 528v2v-2zM2441 844l2 -15zM2470 336q0 8 6 8q4 -2 4 -12 v-6q2 -6 8 -8.5t13 -2.5q6 2 11 6.5t9 20.5q2 8 3 16.5t5 14.5q2 8 2 12t2 8l2 13l-12 43l-29 96q-2 10 -12 10h-2q-4 -2 -4 -1t-2 1h-2l-2 2q2 2 6 2h47h4h4v-2v-2q-2 0 -2 -1t-4 -1l-6 2q-2 0 -4 -2v-8l31 -99l10 35q18 66 12 70l-4 4h-2q-8 -4 -12 0v2q0 2 6 2h45h4h4v-2 v-2q-4 -4 -12 0h-8t-6 -4q-2 -2 -7.5 -15.5t-15.5 -60.5l-10 -43l-2 -2l-11 -39q0 -4 -3 -16.5t-7 -26.5q0 -4 -1 -5t-1 -5q-4 -12 -8 -19q-8 -8 -14 -8q-2 0 -3 -1t-3 -1t-15 4q-12 8 -12 23zM2531 711h2q0 2 7 2h10q10 0 12 4q4 4 5 12t1 19v4v194v10q0 12 -4 21 q-4 4 -18 4q-10 0 -13 2v2q0 2 4 2h62h4q4 0 4 -2h2l-2 -2q-2 -2 -12 -2q-14 0 -19 -4q-4 -4 -4 -11.5v-15.5q2 -4 6 -8q2 0 2 -2q4 -4 8.5 -8t8.5 -8q6 -4 23.5 -18.5t37 -30t34.5 -27.5l15 -12l5 -5v41l-2 70l2 4q0 10 -1 18.5t-6 12.5q-4 4 -16 4q-10 0 -12 2l-2 2 q2 2 6 2h61h4q4 0 4 -2h3l-3 -2q-2 -2 -12 -2q-14 0 -16 -4q-4 -4 -5 -12.5t-1 -18.5v-4v-194q0 -10 1 -18.5t5 -12.5q2 -4 12 -4h10q6 0 6 -2v-2q0 -2 -4 -2h-61h-4q-4 0 -6 2v2h2q0 2 6 2h10q10 0 12 4q4 4 5.5 12t1.5 19l-2 53q-4 8 -11.5 14t-15.5 12q-8 4 -10 7 q-10 8 -26.5 21t-32 26.5t-27 22.5t-13.5 11q-2 0 -2 3v-68v-98v-4q0 -10 1 -18.5t5 -12.5q2 -4 13 -4h10q6 0 6 -2v-2q0 -2 -4 -2h-61h-5q-4 0 -4 2zM2572 918v2v-2zM2777 711q0 4 6 4h6q12 0 13 10v246q0 10 -13 10h-6h-6v2v2q0 2 4 2h62h6h2h86q2 -8 2 -16v-17v-34 q0 -6 -2 -7l-2 -2q-4 2 -4 15q2 2 2 6q0 31 -21 45q-6 4 -30.5 4h-34.5h-11q-10 -4 -10 -10v-78h31h10q18 0 25 6l4 8q0 6 2 8v3q4 10 10 10q2 -4 -2 -8q-2 -2 -2 -4.5t-2 -4.5q-6 -16 -2 -30.5t10 -28.5q8 -20 10 -31q0 -14 -2 -22q-4 -14 -12 -15q-8 0 -8 7q0 6 4 10 q2 2 2 4q8 8 8 16q0 4 -4 17q-2 4 -2 6t-2 6l-2 6q0 2 -1 3t-1 3q-4 8 -6 14.5t-8 8.5q-4 2 -21 2h-22h-19l2 -162q0 -10 13 -10h6q29 -2 48 -1t23 5q16 12 21 43q0 2 -1 3t-1 3q0 12 4 14h2q2 -2 2 -6v-35v-32h-2h-2l-154 -2l-4 2v-2q-4 0 -4 4zM2935 987h2h-2zM2941 709v2 v-2z" />
<glyph unicode="&#xab;" d="M317 422q0 27 25 55q-25 31 -25 58q2 12 17 12q16 -2 20 -15.5t8 -29.5v-4q25 20 56 33.5t63 17.5q39 2 68 -8q25 -6 48.5 -21.5t43.5 -36.5q6 8 12 15.5t11 17.5q8 12 10 19q-2 4 -4 5t-4 3l-4 4q-8 8 -21 14q-4 2 -11 3t-14 3q-16 2 -29.5 5t-15.5 20q-4 6 2 12 q4 4 11 6q18 2 45 -14q-18 35 -21 74q-2 39 12.5 77.5t36.5 65.5q18 27 54 45q23 10 49 17.5t55 7.5q53 0 88 -25q25 -2 46.5 -11t49.5 -30l9 -4q12 -10 20 -10t12 12q-2 6 -2 13.5t-2 15.5q-8 35 -33.5 54.5t-33.5 23.5h-6q-4 0 -8.5 -1t-8.5 -1q-14 -4 -24.5 -4.5 t-14.5 10.5q-2 2 2 10q8 8 21 8q25 -2 43 -12q4 -4 8 -4q8 -6 25.5 -21.5t31.5 -42.5l-12 19q6 -8 14 -25v29q-2 43 -2 80v59q-2 6 -2 14v7q0 8 4 28v132.5t-2 76.5q-2 27 -16 55.5t-37 42.5q-6 4 -24 9q-16 4 -29.5 9t-13.5 19q-2 10 3 13.5t9 3.5h2q29 0 57 -29 q29 -29 45.5 -68t16.5 -73v-19q0 -23 -1 -60.5t-1 -82.5l12 31q16 37 42.5 60.5t51.5 23.5q8 0 12 -5q4 -4 4 -12q-2 -16 -15 -21t-30 -10q-6 -2 -12 -3t-10 -3q-23 -14 -38 -43.5t-17 -54.5v-32.5v-51.5v-58.5v-52.5q2 2 2 5q6 8 12 12q12 4 28.5 5t28.5 -3q27 -6 41 -29 q6 -8 11.5 -22.5t1.5 -30.5q-6 -41 -41 -57q-8 -4 -19 -4q-10 0 -10 8q-2 10 8 14t21 8q12 4 16 6q8 6 12 25q4 12 1 26.5t-11 24.5q-10 16 -33.5 21.5t-42.5 -2.5q-20 -10 -22 -52v-14v-50t2 -97q0 -61 2 -138q0 -4 -2 -6t-4 -6q2 0 3 -1t3 -1q4 -4 12 -8 q27 -10 64.5 -13.5t60.5 -3.5q27 0 27 -10t-27 -10q-23 0 -60.5 -2t-64.5 -14l-12 -7q-2 -2 -4 -3t-4 -3q8 -4 8 -12q-2 -76 -2 -137q-2 -53 -2 -98.5v-49.5v-16q2 -39 22 -49q18 -8 42 -3t34 21q8 10 11 24.5t-1 26.5q-4 18 -12 25q-4 2 -16 6q-10 4 -20.5 8t-8.5 15 q0 8 10 8t19 -4q35 -16 41 -58q4 -31 -13 -53q-14 -23 -41 -28q-12 -4 -28.5 -3.5t-28.5 5.5q-8 4 -14 14v-35v-158q2 -25 17 -54.5t38 -43.5q4 -2 10 -3t12 -3q16 -4 29.5 -9t15.5 -22q0 -8 -4 -12t-10 -4q-31 0 -62.5 33.5t-47.5 81.5v-33q2 -35 3 -64.5t1 -46.5v-18 q0 -35 -16.5 -74t-45.5 -68q-31 -31 -55 -30h-4l-8 4q-4 4 -4 14q0 14 13 19.5t30 9.5q18 4 24 8q23 12 37 42t16 54q2 18 2 79v132q-2 8 -3 14.5t-1 14.5v6q0 8 2 14v70t2 92v-39v45q0 -4 -4 -8q-12 -25 -29.5 -41t-25.5 -20h-2h-2l-4 -4q-18 -10 -41 -13q-16 0 -23 8 q-4 6 -2 11q4 10 14.5 10t24.5 -4q4 0 8 -1t9 -1h6q10 4 34.5 22.5t32.5 55.5q2 8 2 15t2 13q-4 12 -12 13q-8 0 -20 -11l-9 -4q-29 -20 -50 -29.5t-46 -11.5q-31 -25 -88 -24q-61 0 -104 24q-37 20 -58 49q-20 29 -33.5 66t-11.5 74q2 39 21 73q-25 -14 -39 -14h-6 q-4 2 -9.5 5t-3.5 14q2 14 15.5 18t29.5 6q6 2 13.5 3t11.5 3q12 6 21 15l2 2h2q2 2 3 4t5 6q-2 6 -10 18q-4 10 -10.5 17.5t-12.5 15.5q-20 -23 -45 -37t-49 -22q-10 -4 -22.5 -6t-24.5 -2q-4 0 -9.5 1t-9.5 1q-57 6 -112 45l-7 6v-4q-4 -16 -8 -29.5t-18 -15.5h-2 q-14 0 -17 12zM369 477q27 -53 116 -61h2h-2q-6 2 -6 10q-2 2 2 12q6 10 20.5 9t30.5 -5q21 -4 25 -4q43 0 78 39q-35 41 -78 41q-4 0 -25 -4q-16 -4 -30.5 -5t-20.5 9q-4 10 -2 14q0 4 6 9h2h-2q-90 -10 -116 -62v-2zM618 289q-4 -90 46 -123q4 -4 10 -5t12 -5 q16 -4 28.5 -10.5t12.5 -22.5q0 -14 -14 -14h-2v-3q80 -41 133 -12l6 6q-29 6 -55.5 18.5t-46.5 28.5q-31 25 -48 60q-12 25 -17 56.5t-1 62.5q0 10 4 22q0 10 -2 26.5t-6 35.5q-6 -10 -13.5 -17.5l-15.5 -15.5q-8 -10 -19.5 -35t-11.5 -53zM618 666q0 -29 11.5 -52.5 t21.5 -35.5q6 -6 13.5 -14.5t13.5 -16.5q4 18 6 34.5t2 26.5q-2 2 -2 8l-2 2h2q-6 31 -2 67t18 65q16 35 50 61q41 33 100 45q-4 4 -6 4q-53 31 -133 -12h2q14 0 14 -14q0 -16 -12.5 -22.5t-28.5 -10.5q-6 -4 -12 -5t-10 -5q-47 -33 -46 -125zM647 477q14 -14 23 -31 q8 -12 10 -16q14 22 20 47q-6 27 -20 49l-4 -8t-6 -8q-4 -10 -10.5 -17.5t-12.5 -15.5zM684 420q4 -10 6 -21.5t4 -23.5q2 6 11 18q2 10 3 24.5t-1 28.5q0 4 -1 8.5t-1 8.5q-4 -10 -9.5 -21.5t-11.5 -21.5zM684 537q6 -10 11 -21.5t10 -21.5q0 4 1 8t1 8q2 14 1 28.5 t-3 24.5q-8 12 -11 19q-2 -12 -4 -23.5t-6 -21.5zM692 311q-10 -41 19 -104q0 4 3 9t13 5q14 0 20.5 -13t10.5 -28q4 -18 8 -22q27 -43 92 -49l4 4q10 10 22.5 19t24.5 1q6 -2 9 -8q0 -8 -3 -10q0 -2 -1 -3t-1 -3q23 4 41.5 13t26.5 15q23 12 35 29.5t18 47.5t7 77t1 121 v-107v107v24q-18 -14 -26 -27.5t-17 -25.5q-6 -8 -17 -16.5t-28 -10.5q-12 -2 -24 2q-4 0 -8 2t-9 5q-10 4 -20 19t-10 24q0 29 8 42t22 23q4 2 17 6q-12 4 -17 8q-14 8 -22 22.5t-8 43.5q0 8 10 22.5t20 18.5q4 4 17 8q12 4 24 2q16 -2 27.5 -10t17.5 -19q8 -10 16.5 -24 t26.5 -29v23v-2v18v-14v98q-2 43 -5 70.5t-9 47t-17.5 33t-29.5 23.5q-8 6 -26.5 15.5t-41.5 13.5q0 -2 1 -3t1 -3q2 -4 3 -11q-2 -6 -9 -8q-12 -8 -24.5 1.5t-22.5 19.5l-4 4q-66 -6 -92 -49q-4 -4 -5 -10.5t-3 -12.5q-4 -16 -10.5 -28.5t-20.5 -12.5q-10 0 -13 5t-3 10 q-31 -61 -19 -105v-4q2 -8 10 -25q4 -4 8.5 -8t10.5 -8q10 -10 20.5 -21.5t3.5 -25.5q-6 -10 -14 -10q-2 0 -3 1t-3 1q-4 2 -5 3t-5 3q2 -20 0 -45q0 -8 -1 -14.5t-3 -14.5q4 -16 4 -26q2 -25 0 -45q4 2 5 3t5 3t10 2t10 -11q6 -14 -4 -25l-20 -22q-8 -6 -19 -16 q-8 -16 -10 -25v-4zM731 430l6 4q20 27 43 43h2q0 2 -2 2q-20 14 -45 43l-4 6q4 0 8 -4l19 -16q14 -10 30 -16q4 -2 17 -3q6 2 22 7h17h10q4 0 6 -1t4 -1q6 -6 6 -17q0 -8 -6 -14q-2 0 -4 -1t-6 -1h-10h-17q-16 4 -22 6q-12 0 -17 -2q-16 -6 -30 -16l-4 -7q-4 -4 -7.5 -6 t-7.5 -6q-2 0 -2 -1t-2 -1h-2zM952 1030q0 14 11 23q18 8 26 -4q4 -6 3 -15.5t-3 -17.5q0 -4 -1 -5t-1 -3q-2 -12 -2 -23.5t4 -21.5q6 -23 19 -35l18 -23q4 -8 4 -6v-2q-2 0 -4 2l-2 2q-14 12 -27.5 25.5t-21.5 25.5q-18 29 -21 54q-2 10 -2 24zM952.5 -78.5 q-0.5 15.5 1.5 23.5q2 27 21 55q8 12 21.5 25.5t27.5 23.5l2 4q2 2 4 2q0 -2 1 -3t-3 -5l-20 -22q-12 -16 -19 -35q-4 -10 -4 -21.5t2 -23.5q0 -2 1 -4t1 -4q2 -8 3 -17.5t-3 -15.5q-4 -8 -14 -8q-4 0 -12 4q-10 6 -10.5 21.5zM977 928h2v-2q0 2 -2 2zM979 926v2v-2z M1028 51v2v-2zM1042 395q0 10 2 17h-2v-17zM1042 438l2 -2v2h-2zM1042 547q0 -2 1 -2t1 -2q-2 6 -2 18v-14zM1047 -143v-4q6 -16 16 -35q-4 10 -8 19t-8 20zM1047 1100v37q2 -8 2 -16.5v-16.5q0 -2 -1 -2t-1 -2zM1049 84q0 -2 2 -2zM1049 870v2v37v-39zM1083 -303l2 -2 q4 -4 9.5 -10.5t9.5 -10.5q10 -12 29 -22q10 -6 20.5 -7t20.5 -1h19t17 -4q8 -8 0 -23q-8 -10 -20 -8t-23 6q-29 10 -45 27q-10 10 -20 25.5t-19 29.5zM1085.5 1268q-2.5 0 1.5 4q10 14 20.5 29.5t20.5 25.5q20 18 46 27q10 4 22 5t18 -7q12 -12 3 -23q-6 -6 -17.5 -5 t-19.5 1q-10 0 -21.5 -1t-21.5 -7q-18 -10 -27 -23q-6 -6 -18 -22q-4 -4 -6.5 -4z" />
<glyph unicode="&#xae;" horiz-adv-x="3028" d="M92 651q-2 8 6 17q-8 12 -6 16q0 6 4 6q10 -2 10 -14q18 14 35 14q14 2 35 -8v-2q8 -4 10 -8q2 2 3 4t4 4q2 2 2 4t-2 2l-7 6h-6q-4 2 -9 3t-5 7v5q2 0 2 1t2 1q4 0 12 -4q-6 8 -6 20q0 6 2 14.5t6 14.5h-2q2 2 2 4q2 2 2 4q10 12 21 18q10 8 31 8q20 0 26 -8 q12 0 29 -10l2 -2q8 -4 6 -4l2 4v8q-4 10 -10 15.5t-8 5.5h-6q-12 -4 -15 2v4q4 4 8 4q8 0 13 -4l2 -2l8 -4q-4 4 -6 5t-4 5q-6 6 -6 16v8.5t4 6.5q4 4 8 -2q4 -4 0 -11v-2q0 -4 -1 -6t1 -6q4 -8 6 -10l4 -6q2 -2 2 -4h-2h-2q0 2 -4 6q2 -4 4 -5t4 -6v50v8v61q0 18 -14 29 q-4 0 -8 2q-12 0 -13 10q-2 2 4 6q8 0 19 -10q18 -18 18 -43v-39q10 27 29 27q4 0 6 -2v-4q0 -6 -14 -11q-4 0 -6 -2q-6 -4 -10.5 -12t-4.5 -14q-2 -6 -1 -22.5t1 -31.5l2 3q8 2 19 0q8 -4 12 -9q4 -8 4 -16q-2 -12 -14 -18l-4 -3q-2 0 -6 5q0 4 3 5t7 3q2 0 4 2q4 4 4 6 q0 10 -4 14q-2 4 -8 6t-13 -2q-4 -4 -6 -14v-4v-10q0 -11 1 -24t1 -26.5v-19.5v-2v-2v-24.5t-1 -37t-1 -34v-17.5v-4q2 -10 6 -14q16 -4 21 6q4 2 4 14q0 2 -4 7l-4 2q-10 0 -10 6q2 4 10 4q10 -6 14 -19q0 -8 -4 -16q-8 -8 -12 -10q-12 0 -19 2l-2 2q0 -14 -1 -31.5 t1 -21.5q0 -18 15 -29q2 0 3 -1t3 -1q4 -2 9 -3t5 -7v-4q-2 0 -2 -1t-2 -1q-20 0 -31 28v-41q0 -20 -18 -43q-12 -8 -19 -8q-2 0 -4 2v4q0 6 13 10q6 0 8 2q6 4 10 12.5t4 14.5v64v8v49q-2 -4 -8 -10l4 4l2 2q2 -2 0 -4l-4 -8q-2 -2 -3 -4.5t-3 -4.5q-2 -4 -1 -6t1 -6v-4 q4 -4 0 -10q0 -2 -4 -2h-4q-4 4 -4 8v6q0 10 6 16q2 4 4 6.5t4 6.5q-4 -8 -4 -6h-2q-8 -4 -15 -5q-6 0 -8 2v5q2 4 15 4q0 -2 4 -2h2q2 2 8 7t10 15v8q0 2 -2 2t-6 -2l-2 -2q-8 -6 -14.5 -8t-14.5 -4q-6 -6 -26 -6q-18 0 -31 6q-12 8 -21 20l-2 3q0 2 -2 4v2q-6 12 -6 28 q0 8 6 19q-4 -2 -10 -2h-2q-2 0 -4 2v4q0 8 14 8q2 0 3 1t3 1t7 4l2 2q0 4 -2 4q-2 4 -3.5 5.5t-3.5 5.5q-4 -6 -10 -11h-2l-12 -6q-8 -4 -17 -4q-2 0 -4 2q-10 0 -18 4t-17 8q0 -12 -8 -12h-2q-4 0 -4 4zM109 668q10 -14 30 -17v6q4 6 17 2q0 -2 4 -2h2q12 0 22 11 q-8 10 -20 10h-8q-12 -4 -17 2v4q-23 -4 -30 -16zM182 612q-2 -23 13 -34q2 -2 6 -3q14 -4 12 -12q0 -4 -2 -4q25 -10 35 -2q-8 0 -17 6l-2 2q-4 0 -4 2q-2 0 -4 2l-2 2q-10 6 -12 17q-10 16 -6 37v2v2q0 10 -2 16q0 -2 -4 -6t-7.5 -10t-3.5 -17zM182 723q0 -20 11 -25 q0 -2 2 -4l2 -2v-2q2 8 2 17v2v2v6v2q0 18 6 31q4 10 12 16l2 2q2 0 2 1t2 1l4 2l2 2h2q4 2 7.5 3t7.5 3q-14 6 -35 -2q2 -2 2 -6q2 -6 -12 -10q-2 0 -3 -1t-3 -1q-14 -12 -13 -37zM190 668q4 -4 7 -9q2 0 2 -4q4 9 4 13t-4 12l-2 -4q-4 -4 -7 -8zM201 651q2 -4 2 -10 q2 0 2 2q0 4 1 8t-1 8q0 -4 -4 -8zM201 686l4 -8q2 4 1 8t-1 8h-2q0 -6 -2 -8zM203 607q0 -7 4 -15q2 2 6 2t6 -4l4 -8q0 -4 1 -5.5t1 -3.5q6 -8 27 -12q10 10 14 6q4 -2 4 -6q10 2 17 8q14 8 16 39t2 72v8q0 43 -3 57.5t-15 22.5q-4 4 -17 8v-4l-4 -4q-6 -4 -14 8 q-20 -4 -27 -14q0 -2 -1 -3t-1 -3q-4 -14 -10 -15q-2 0 -6 4q-4 -8 -4 -15v-13h2q0 -4 2 -6q0 -2 4 -6q10 -6 8 -15l-2 -4h-2h-4v2v-12q0 -2 -1 -3t-1 -5q0 -2 1 -3t1 -3v-13h4q2 0 4 -2q2 -8 -8 -16q-4 0 -4 -4q-2 -2 -2 -6v-3h-2v-11zM283 799h2h-2zM289 367q0 10 8 18 q18 18 43 18h41q-10 4 -19.5 12.5t-9.5 18.5q4 4 6 4q10 0 11 -14q2 -2 2 -6q10 -14 28 -15q4 -2 19.5 -2t34.5 2q-2 0 -2 3q-4 8 0 16q0 6 8 14q8 4 16 2q12 0 19 -12v-8l-2 -2q-8 0 -9 10q-2 2 -2 4q-8 8 -20 0q-12 -4 -4 -20q0 -2 12 -7h4h12.5h23.5t25.5 1.5t18.5 1.5h2 h2h26.5t37 -1.5t34 -1.5h17.5h4q12 4 12 7q4 6 2 12t-6 8q-4 4 -11 4t-9 -4q0 -2 -1 -2t-1 -2q0 -10 -7 -10h-4v2v8q6 12 19 12q8 2 16 -2q8 -8 8 -14q4 -8 0 -16q0 -2 -2 -3q18 -2 33.5 -2t19.5 2q18 0 29 15q0 4 2 6q0 14 8 14q6 0 7 -4q2 -10 -7.5 -18t-19.5 -13h39 q23 0 45 -18q8 -12 8 -18t-6 -7q-6 2 -7 6.5t-3 8.5l-2 4v2q-10 16 -29 16h-61h-9h-49q4 -2 8 -6l-2 2t-2 4q2 0 4 -2l7 -4q4 -4 5 -4t5 -2q6 -4 12 0h4q2 0 4 1t6 -1q4 -4 0 -10q0 -2 -8 -2h-6q-8 0 -16 6q-2 2 -4 3t-7 5l5 -4v-2v2l2 -4q4 -4 4 -12q0 -4 -2 -7 q-2 -2 -4 -2q-4 2 -5 13q0 2 1 3t1 3h-2q0 4 -5 10t-15 8q-4 2 -8 2q-2 0 -2 -2t2 -6l2 -2q10 -16 12 -29q6 -10 6 -27.5t-6 -29.5q-8 -12 -14 -14q0 -4 -4 -4v-2q-2 0 -3 -1t-6 -1v-3h-2q-12 -6 -26 -6h-2q-6 0 -10.5 1t-8.5 3q2 -4 2 -10q0 -4 -6 -4q-8 0 -8 14q-2 2 -2 7 q-2 6 -8 8l-4 -2q-2 -2 -4 -3t-5 -3q2 -2 11 -13v-2q2 0 2 -2l2 -2v-4q2 0 2 -4q4 -12 2 -21q0 -14 -14 -32q14 -4 14 -8q0 -6 -6 -9q-4 0 -17 9q-8 -8 -14 -9h-2q0 2 -2 2q-2 2 -2 7q0 4 4 5t8 3l-8 16t-4 16q-2 10 2 23v2q2 2 2 4q2 2 2 4q2 0 2 2v2q4 4 5 6.5t5 4.5 q-2 2 -4 3t-4 3t-6 2l-2 -2q-2 -2 -2 -3t-2 -3q0 -4 -2 -7q0 -14 -8 -14q-6 0 -7 4q0 6 3 10q-12 -4 -19 -4h-2q-14 0 -29 6l-2 3q-2 0 -6 4q-2 0 -6 4q-4 2 -12 14q-6 12 -7 29.5t7 27.5q2 8 4 14.5t8 14.5l2 2q2 4 2 6l-2 2q-4 0 -8 -2q-10 -2 -15.5 -8t-7.5 -10 q0 -4 2 -6q0 -10 -4 -13q-4 0 -4 2q-2 2 -2 7q0 8 4 12v4h2q2 2 5.5 6t9.5 8h-49h-9h-61q-8 0 -16.5 -4t-12.5 -12l-2 -2v-4q-4 -12 -10 -15q-6 0 -6 7zM295 967q0 6 4 6q8 0 12 -15q0 -4 2 -6q6 -12 27 -16h61q4 0 5.5 1t3.5 1l51 -2q-4 2 -10 8l4 -4v-2v-2l-4 2l-5 4 q-6 6 -12 6q-2 2 -12 2l-2 -2h-10q-6 2 -2 10t14 3q10 0 16 -7q4 -2 11 -8q-4 4 -5 6l-2 2q-2 4 -2 13q-4 2 2 8h2q8 -2 5 -12v-7h-3h3q0 -4 6 -10t16 -8q2 -2 8 -2q2 0 2 2t-2 6l-2 2q-12 14 -12 29q-4 4 -8 22q0 20 8 35q8 12 12 17q2 0 6 4q2 0 6 4h3q14 6 28 6 q8 0 21 -4q-4 8 -2 10q0 6 4 6q6 -2 7 -7t3 -9q0 -4 2 -6q0 -2 4 -6l2 -3q2 0 2 1.5t2 1.5q4 2 8 6q-2 4 -4 6t-4 6q-2 0 -2 2l-2 2v2q-2 2 -2 4t-2 4q-2 6 -2 21q2 18 14 33q-12 4 -12 10v4q2 0 2 1t2 1q4 0 17 -8q8 8 14 8q4 0 4 -1t2 -1v-4q0 -6 -12 -10q12 -14 14 -33 q0 -14 -2 -21q-2 -2 -2 -4l-2 -4v-2l-2 -2l-2 -2v-2q-2 -4 -4 -5t-4 -5q4 -4 8 -6q2 0 2 -1.5t2 -1.5h2v3q4 4 4 6q2 2 2 6q0 14 8 16q6 0 6 -6q2 -2 -2 -10q12 4 19 4q18 0 31 -6h2q4 -4 6 -4q4 -4 6 -4q4 -4 12 -17q8 -14 8 -35q-4 -18 -8 -22q0 -14 -12 -29l-2 -2 q-2 -4 -2 -6l2 -2q6 0 8 2q10 2 16.5 8t6.5 10v7q-4 8 2 12h4q4 -6 2 -8q0 -8 -2 -13l-2 -2q-2 -2 -2 -3t-2 -3q2 4 10 8q6 6 16 7q10 6 15 -3q4 -8 -3 -10h-10h-2q-10 2 -12 0q-6 0 -10 -4l-6 -6q-2 -2 -5 -2l-2 2l2 2l5 4q-6 -6 -11 -8l51 2q2 0 3.5 -1t5.5 -1h61 q6 2 14.5 6t12.5 10q2 2 2 6q4 14 10 15q6 0 6 -6q0 -8 -8 -17q-16 -20 -43 -20l-39 2q27 -14 27 -31q0 -6 -6 -6t-11 14q0 4 -2 6q-4 6 -12 10.5t-14 6.5h-54v-4q4 -10 2 -17q-2 -6 -8 -12q-4 -4 -14 -4h-4q-12 0 -17 12q-2 2 -2 8q2 0 2 1.5t2 1.5q4 0 9 -9q0 -4 2 -6 q2 -4 9 -4t11 4q10 10 4 21q-4 6 -14 6h-4h-80h-2h-2h-113h-4q-12 0 -14 -6q-4 -6 -2 -12.5t6 -8.5q4 -4 11 -4t9 4q2 2 2 6q4 8 9 9q2 0 2 -1.5t2 -1.5q0 -6 -2 -8q-4 -12 -17 -12h-4q-10 0 -14 4q-4 2 -8 12t2 17v4h-54q-6 -2 -14 -6t-12 -11q-2 -2 -2 -6q-4 -14 -10 -14 t-7 6q0 16 27 31l-39 -2q-27 0 -43 20q-8 8 -8 17zM401 502q-2 16 6.5 17t8.5 -5q0 -2 -2 -10t1 -16.5t14 -14.5t40 -6q23 -2 45.5 15.5t22.5 66.5q0 35 -13.5 52t-27.5 26q-4 0 -5.5 1t-3.5 1l-8 4l-12 6q-23 6 -33 18q-10 8 -20 25q-4 4 -5 12t3 13q4 10 12 2 q4 -4 5 -10.5t1 -10.5q2 -6 3 -13t5 -11q10 -8 22.5 -14.5t24.5 -6.5q27 0 51.5 24.5t24.5 80.5q0 27 -6 50t-14 40q-6 12 -24.5 21t-35.5 9h-6h-2q-6 0 -13 -1t-14 -5q-6 -4 -9 -9t-7 -9t-7 -10.5t-7 -8.5q-6 -4 -10 9q-4 4 2 10l10 10t20.5 12t34.5 8q39 0 64.5 -17 t40.5 -44q14 27 40.5 44t65.5 17q18 0 33.5 -8t21.5 -12q4 -4 9.5 -10t3.5 -10q-4 -10 -13 -9q-4 2 -7 8.5t-7 10.5t-7 9t-9 9t-13.5 5t-13.5 1h-6q-16 0 -34.5 -9t-25.5 -21q-8 -16 -15 -40t-7 -50q0 -55 24.5 -80t51.5 -25q14 0 25.5 6t21.5 15q8 8 8 24q2 4 2 10.5 t4 10.5q6 6 14 -2q4 -4 2 -12.5t-6 -12.5q-6 -16 -18 -25q-16 -12 -33 -18q-4 -2 -7 -3t-7 -3l-8 -4q-2 0 -3 -1t-3 -1q-16 -8 -28.5 -25.5t-12.5 -52.5q0 -49 22.5 -66.5t42.5 -15.5q27 0 39 6t15 14.5t1 16.5t-2 10q2 6 9.5 5t5.5 -17q-2 -10 -18.5 -25.5t-51.5 -15.5 q-37 0 -64.5 23.5t-27.5 62.5q0 35 22.5 53t49.5 33q2 2 0 4q-57 6 -86 59q-31 -53 -86 -59h2q-2 -2 0 -4q27 -14 49 -32.5t22 -53.5q0 -39 -27.5 -62.5t-66.5 -23.5q-35 0 -51.5 15.5t-18.5 25.5zM403 375q-4 6 0 10q2 2 5.5 1t5.5 -1h4q6 -4 12 0q8 4 10 6l6 4l3 2v-4 q-8 -10 -15 -14q-10 -6 -16 -6h-6q-8 0 -9 2zM455 756l2 2l-2 2h2v2v2q0 2 2 2v2h2v2h2l2 2h2h2h2h2h2h2v-2h2l2 -2l2 -2v-2l2 -2v-2v-2v-2v-2v-2h-2v-2v-2h-2v-3h-2h-2v-2h-2l-2 -2v2q-2 0 -2 -2l-2 2l-2 -2v2h-2l-2 2h-2q0 2 -2 3v2h-2v2v2zM461 340q-8 -10 2 -35q2 2 4 2 q8 0 12 -12q0 -2 1 -3t1 -3q8 -12 33 -13h2q10 0 16.5 3.5t10.5 7.5q2 0 2 1t2 1q0 2 2 2q-4 2 -14 2h-3l-2 -2v2h-6l-4 -2l2 2h-2q-12 0 -28 4q-12 8 -17 14l-2 2q0 2 -1 2t-1 2q-2 0 -2 5q-2 0 -2 2v2q-4 4 -4 7t-2 7zM465 344q4 -18 14 -25q0 -2 6 -2q12 -4 13 -10 q0 -4 -2 -6q18 -6 26 -4h2q2 2 3 2t3 2q2 0 7 4q6 10 14 8q2 -2 2 -4q4 0 0 -4h12q2 0 3 -1t3 -1q4 0 5.5 1t3.5 1h12q-4 4 2 8q8 2 14 -8q4 -4 6 -4q2 -2 3 -2t4 -2q12 -2 28 4q-2 2 -2 6q0 6 12 10q6 0 7 2q10 6 14 25v2l-7 7t-1 7q2 5 6 5q0 10 -6 16q-8 12 -40 14t-73 2 h-6q-43 0 -57.5 -2t-22.5 -14q-4 -4 -8 -16h2q4 0 6 -5q2 -4 -8 -14v-2zM465 993h2q2 14 14 31l4 4q4 2 6.5 4t6.5 4q12 6 28 6q6 0 9 -2v2l2 -2h2h2q8 0 14 2l-2 2q-4 4 -4 5q-4 2 -10.5 5t-16.5 5h-4q-20 0 -31 -15q2 0 -4 -6q-4 -12 -10 -12q-4 0 -4 2q-10 -18 -4 -35z M471 989q4 -4 7 -8t-1 -8l-4 -4q0 -4 2 -8.5t4 -8.5q8 -12 39 -14t72 -2h8q43 0 57.5 2t20.5 14q2 4 4 8.5t4 10.5l-2 -2l-4 4q-4 4 -1 8t7 8q0 18 -12 25q-2 2 -3 2t-3 2q-14 0 -15 10q0 2 1 2t1 2q-16 6 -26 4q-8 -4 -9 -4l-4 -4q-8 -8 -12 -8h-4q0 2 -1 2t-1 2v4h-4 q-4 0 -6 2h-8h-9q-2 -2 -6 -2q-2 0 -3 1t-3 1l2 -2q0 -6 -4 -8t-7 1l-7 7l-4 4q-4 4 -9 4q-10 2 -26 -4q0 -2 1 -2t1 -2q0 -10 -15 -10q-2 -2 -3 -2t-3 -2q-12 -6 -12 -25zM545 297q8 0 10 -2q4 4 8 4q-4 2 -8 1t-8 -1zM551 1036l2 -2h14h2q-4 2 -5 2t-5 2q-2 0 -4 -1t-4 -1 zM555 233q2 -25 16 -30q14 6 19 30q-2 0 -2 -2q-2 0 -2 1t-2 1q-6 4 -2 17v4q0 2 2 2q-4 16 -13 23q-10 -10 -10 -23v-2q0 -2 2 -4q4 -12 -2 -17q-2 0 -2 -1t-2 -1zM555 309l8 8l4 9v4q0 4 -2 6q0 6 2 10v2h2q0 2 2 2t4 -2h3v-2q4 -6 0 -10v-6v-4q0 -4 4 -9l6 -8v-2h-2 l-15 15q-2 -4 -10 -13l-4 -2zM561 293l2 -2q4 -2 8 -6q4 2 5.5 3t5.5 3l2 2q-5 4 -13 4q-6 0 -10 -4zM561 471l2 2h-2q0 2 2 2v2v2q0 2 2 2v2h2v2h2h2l2 2h2h3h2h2q0 -2 1 -1t1 -1h2l2 -2l2 -2v-2q0 -2 2 -2v-2v-2v-2v-2v-2h-2v-2v-2h-2v-2h-2l-2 -2h-2l-2 -2v2l-2 -2l-3 2 l-2 -2v2h-2h-2q0 2 -2 2l-2 2q0 2 -2 2v2v2zM561 1024v2l2 2l2 -2l13 -12q2 4 5 6t7 6h2h4l-8 -8q-2 -4 -3 -5t-3 -5v-4q0 -2 1 -3.5t1 -3.5v-10q-4 -4 -6 -4t-7 4v10q0 2 1 3t1 4v4q-2 4 -3 5t-3 5zM561 1100q2 2 4 0q6 -2 2 -17v-6q0 -10 11 -20q10 10 10 20v6q-4 14 2 17 q0 4 4 0q-2 25 -16 30q-14 -6 -17 -30zM565 1040q4 -2 6.5 -2t6.5 -2q4 2 6 2t6 2q-2 2 -4 2q-2 2 -4 3.5t-4 3.5q-2 -2 -4.5 -3.5t-4.5 -3.5q-2 0 -4 -2zM582 299l8 -4q2 2 10 2l-2 2q-4 0 -8 1t-8 -1zM586 1034h2q10 0 14 2h2q-2 0 -4 1t-4 1q-4 -2 -5 -2t-5 -2zM594 291 q2 0 4 -2l4 -2q10 -10 27 -11h2q23 0 33 13q0 2 1 3t1 3q4 12 10 12q4 0 6 -2q8 20 2 35q-2 -4 -3 -8t-3 -8q0 -2 -2 -2q0 -2 -2 -5q0 -2 -1 -2t-1 -2q-2 0 -2 -2q-4 -6 -17 -14q-16 -4 -28 -4h-11h-2h-2h-2q-8 0 -14 -2zM600 1042q6 -2 14 -2h2h2l3 2v-2q2 0 3 1t3 1h2 q16 0 28 -6q8 -4 17 -12q2 -2 2 -4l4 -4q0 -2 2 -2q0 -2 2 -4q4 -12 4 -17q8 14 -2 35q0 -2 -4 -2q-6 0 -10 12q-6 6 -4 6q-10 14 -31 15h-4q-10 -2 -16.5 -5t-10.5 -5l-4 -5zM666 752v2v2v2v2v2l2 2q0 2 2 2v2h2v2h2v2h2h2h2h2h2h2l2 -2h2v-2h2v-2l2 -2l2 -2v-2v-2v-2v-2 v-2h-2v-2l-2 -2l-2 -3h-2q0 -2 -2 -2l-2 -2l-2 2l-2 -2v2l-2 -2q0 2 -2 2h-2v2h-2l-2 3v2h-2v2h-2zM805 453q0 6 14 10q4 0 6 2q6 4 10.5 12t6.5 15v53h-4q-10 -6 -17 -2q-10 4 -12 8q-6 10 -4 18q0 12 12 17q2 2 6 2t4 -4t-8 -9q-4 0 -6 -2q-2 0 -2 -6q-2 -6 2 -14 q8 -8 21 -4q6 2 6 14v4v80v2v2v113v4q0 10 -6 14q-12 4 -21 -4q-4 -10 -2 -14q0 -6 2 -6q2 -2 6 -2q8 -4 8 -8t-4 -5q-4 0 -6 2q-12 4 -12 17q-2 8 4 18q6 6 12 8t17 -2h4v54q-2 6 -6.5 14t-10.5 12q-2 2 -6 2q-14 4 -14 11q0 6 6 6q16 0 31 -27q0 8 -1 14.5t-1 12.5v12 q0 20 18 43q8 8 19 8q6 0 6 -6t-15 -10q-4 0 -6 -2q-6 -4 -10 -12.5t-6 -14.5v-61q0 -4 1 -5t1 -3l-2 -52q2 4 8 11l-4 -5l-2 -2l-2 2l2 5l6 6q4 4 4 10q2 4 2 12l-2 2v11q2 6 10 2q8 -8 2 -15q0 -10 -6 -16q-4 -8 -8 -10q4 4 6 4l2 2q4 2 13 2q6 0 8 -2v-4q0 -6 -13 -2h-4 l-2 2v-2q-4 0 -10 -6.5t-8 -16.5q-2 -2 -2 -8q0 -2 2 -2t6 2l2 2q14 12 29 12q12 8 26 8t31 -8q14 -6 21 -18q0 -2 2 -4q0 -2 1 -2t1 -2v-2q6 -12 6 -29q0 -6 -4 -19q2 2 8 3q6 0 6 -3q2 0 2 -4q-2 -4 -6 -6t-8 -2q-6 0 -8 -2q-2 0 -7 -4l-2 -2q0 -2 1 -2t1 -2q2 -4 7 -8 q4 2 6 4t6 4q12 10 35 10q8 -2 17 -5t15 -9q5 12 11 12t6 -4q0 -8 -6 -16q6 -10 6 -17q0 -4 -6 -4t-11 12q-12 -10 -32 -14h-6q-4 0 -17 4q-4 0 -12 4v2q-8 4 -12 9q-4 -4 -7 -9q0 -2 -1 -2t-1 -2l2 -2q4 -4 7 -4q2 -2 8 -2q4 -2 8 -3t6 -5q0 -4 -2 -6h-4l-2 -2q-4 0 -8 4 q4 -12 4 -19q0 -16 -6 -30q0 -2 -1 -2t-1 -3q0 -2 -1 -2t-1 -2q-6 -12 -21 -18q-16 -8 -31 -8q-14 0 -26 8q-14 0 -29 12h-2q-8 4 -6 4l-2 -2q0 -6 2 -8q2 -10 8 -16t10 -6h6q12 4 13 -2v-5q-2 -2 -8 -2q-8 0 -13 2l-2 2q-2 2 -3 2.5t-5 4.5q8 -8 10 -13q6 -6 6 -16 q6 -10 -2 -14q-2 0 -2 -1t-2 -1t-6 4v10l2 2q0 8 -2 12q0 6 -4 10l-6 7q-2 2 -2 4l2 2l2 -2l4 -4q-6 6 -8 10l2 -51q0 -2 -1 -3t-1 -6v-61q4 -20 16 -27q2 -2 6 -2q14 -4 15 -10q0 -6 -6 -6q-10 0 -19 8q-18 23 -18 43l2 39q-14 -27 -31 -27q-4 0 -4 3q-2 0 -2 4zM846 645 q0 -43 2 -57.5t14 -22.5q4 0 8 -2t11 -4v2q0 4 2 4q8 2 16 -6v-2q18 4 25 14q2 2 2 3t2 4q0 14 10 14q2 0 4 -2q6 16 4 26q0 4 -4 9l-4 4l-7 7t-1 7t6 4h2h2q-4 4 0 10v9v8q-4 6 0 10h-2h-2q-4 0 -6 2q-2 4 1 8t7 8l4 5q4 4 4 8q2 10 -4 26l-4 -2q-10 0 -10 15q-2 2 -2 3 t-2 3q-6 12 -25 12q-8 -8 -12 -8q-2 0 -2 1t-2 1q-6 2 -2 6q-6 -2 -10.5 -4t-8.5 -4q-12 -8 -14 -39t-2 -72v-8zM895 666q0 4 2 6h4h6q2 0 3 -1t3 -1h7q4 4 8 6l8 6v-4q-4 -4 -6 -7t-6 -5l12 -13v-2v-2h-2l-6 6l-8 4q-2 2 -7 3q-2 -2 -6 -3h-4h-2h-2h-2q-2 2 -2 7zM903 553 q16 -6 35 4q-2 2 -2 4q0 6 12 10q6 6 6 4q15 8 15 35q-2 10 -5 16.5t-6 10.5l-6 6q-2 -4 -2 -9v-7v-2l2 -2h-2q2 -2 2 -7v-2q0 -16 -6 -28q-4 -8 -12 -17q-2 -2 -4 -2q0 -2 -1 -2t-1 -2q-4 0 -4 -2q-2 0 -4 -2q-12 -4 -17 -4v-2zM903 776q10 0 17 -6v2q2 -2 4 -2q0 -2 4 -2 q0 -2 1 -2t1 -2q2 0 4 -2q8 -8 12 -17q8 -18 4 -36h2l-2 -2v-2v-7.5t2 -9.5l6 6q2 4 5.5 10.5t5.5 16.5q0 27 -15 35q0 -2 -6 4q-12 4 -12 10q0 2 2 4q-20 10 -35 2zM944 655q0 -10 2 -16q0 4 1 5t1 5l-4 8v-2zM944 674l4 8q0 4 -1 5t-1 5v-2q-2 -4 -2 -14v-2zM946 666 q2 -4 2 -6.5t2 -6.5q2 2 2 4q2 2 3 4.5t3 4.5q-2 2 -3 4t-3 4q0 2 -2 4q-2 -4 -2 -6t-2 -6zM967 666q10 -10 20 -11h6q15 4 17 -2q2 0 2 -4q23 4 28 17q-6 14 -30 16q4 -4 0 -4q-2 -4 -17 -4q-2 2 -6 2q-10 0 -20 -10zM1155 182v965q0 4 5 4t5 -4v-965q0 -6 -6 -6q-4 0 -4 6 zM1346 553q0 4 2 4h2h8q12 0 12 8v27h6q4 0 6 2q4 4 4 8v8v4q0 6 3 7q2 -2 2 -9v-47q2 -8 12 -8h6q6 0 6 -2v-2l-4 -2h-8q-12 0 -12 -8v-125q0 -6 4 -6h4q4 0 6 2q8 4 8 8q0 2 -1 3t-1 3q-4 12 2 14q6 0 6 -8q2 -12 -8 -22q-4 -2 -5 -3t-5 -3h-2q-2 0 -4 -1.5t-6 -1.5h-5 q-4 0 -8 3q-6 2 -6 14v125q-2 6 -12 6h-6h-4q-2 0 -2 2zM1346 711l2 2q0 2 6 2h6q12 0 12 10v248q0 10 -12 10h-6q-6 0 -8 2v2q2 2 6 2h59h6q4 0 4 -2v-2q0 -2 -6 -2h-6q-14 0 -14 -10v-248q0 -10 12 -10h10h10q47 0 54 6q18 10 22 43q0 2 -1 3t-1 3q0 12 4 14h2q2 -2 2 -8 v-35v-30l-15 -1t-32.5 -1h-33h-17.5h-59q-4 0 -6 2zM1436 336q0 8 4 8q6 -2 6 -5v-7v-6q0 -6 7 -8.5t13 -2.5q4 2 10.5 6.5t10.5 20.5q2 8 3 16.5t3 14.5q2 14 6 20l2 13l-12 43l-29 96q-6 10 -12 10h-2q-4 -2 -4 -1t-2 1h-2h-2v2q2 2 6 2h45h4h6v-2v-2q-2 0 -3 -1t-3 -1 l-6 2q-2 0 -4 -2t0 -8l30 -99l11 35q16 68 12 70l-4 4h-4q-6 -6 -10 0v2q0 2 4 2h47h2h6v-2v-2q-4 -4 -12 0q-12 0 -17 -4q-2 -4 -7 -23.5t-13 -54.5l-13 -41v-2l-10 -39q0 -4 -3 -16.5t-7 -26.5q-2 -4 -2 -5t-2 -5q0 -10 -6 -19q-8 -8 -17 -8l-4 -2q-6 0 -14 4 q-12 8 -12 23zM1548 783v10v110q0 6 6.5 28.5t34.5 41.5q2 0 16.5 7t30.5 7h2q16 0 33 -8q9 -4 15 -6q29 -16 36 -38t7 -32v-112q0 -6 -7.5 -29t-35.5 -41q-6 -4 -15 -8q-12 -6 -31 -6h-4q-16 0 -30.5 7t-16.5 7q-23 16 -30 35q-2 0 -5 6q-2 2 -2 6q-4 10 -4 15zM1571 774 q0 -6 2 -12q2 -4 4 -11.5t8 -13.5q14 -16 30.5 -20t20.5 -4h2q4 0 21.5 4t30.5 20q10 12 13 21.5t3 13.5v150q-2 4 -4 13t-12 21q-12 16 -28.5 19.5t-21.5 3.5h-4q-6 0 -21.5 -3t-29.5 -20q-10 -14 -12 -24t-2 -12v-146zM1583 311v2v2h6h6q12 0 13 11v161v7v51q0 10 -13 10 l-6 -2q-2 0 -3 1t-3 1v2q0 2 4 2h27q2 0 6 -2q8 -4 8 -12v-10l2 2q4 10 11.5 16t23.5 6q4 0 11.5 -1t17.5 -9q4 -4 10 -12q4 -10 8 -25.5t4 -34.5q0 -6 -1 -20.5t-9 -30.5q-2 -2 -4 -5t-6 -7q-14 -10 -29 -11q-14 0 -21.5 6.5t-11.5 10.5t-6 10v-33v-39q0 -8 2 -12l-2 -20 q0 -10 12 -11h7h6v-2v-2l-4 -2l-35 2l-25 -2h-4q-2 0 -2 2zM1628 432q0 -2 2 -4q-2 2 -2 4zM1628 467q4 -20 6 -29q2 -6 9.5 -18t19.5 -12q10 0 20.5 11t10.5 58v6q0 18 -1 36t-12 28q-6 6 -20 6q-16 0 -27 -23q-4 -4 -4 -10t-2 -16v-37zM1628 532v5v-5zM1726 487 q0 6 1.5 20.5t9.5 31.5q2 2 4 5t6 7q14 10 29 10h6h4q18 0 29 -10q4 -4 6 -7t4 -5q8 -16 9 -30.5t1 -21.5q0 -39 -12 -59l-6 -6t-5 -4q-10 -10 -17 -11t-11 -1h-6q-4 0 -11.5 1t-17.5 11l-4 4l-6 6q-12 20 -13 59zM1747 487l2 -12q0 -20 2 -37.5t16 -23.5q14 -4 29 0 q12 6 14 24.5t5 38.5v10q0 70 -31 70h-4h-2q-31 0 -31 -70zM1759 981v2q0 2 6 2h60h4q6 0 6 -2v-2q-2 -2 -6 -2h-12q-8 0 -13 -4q-4 -4 -4 -12.5v-16.5v-8v-158q0 -2 2 -15t13 -28q4 -10 12 -13t16 -7t19 -4q6 0 20 4t27 20q4 4 7 10.5t3 10.5v211q0 10 -12 10h-6 q-4 0 -5.5 1t-3.5 1v2q0 2 6 2h62h4q4 0 4 -2q0 -4 -6 -4h-6q-12 0 -12 -10v-181l-2 -2q0 -10 -7.5 -29.5t-29.5 -35.5q0 -2 -11.5 -8t-25.5 -6l-2 2v-2h-2q-27 0 -43 16q-20 14 -27 41v174v8v16.5t-4 12.5q-2 4 -12 4h-11h-6q-2 0 -2 2zM1842 429q1 7 3 13q6 12 17 21v2 q-4 8 -4 10q-4 12 -5 33q0 4 1 15.5t8 21.5q0 4 6 10q6 4 12 6t10 2h8q4 0 10.5 -2t12.5 -6q4 -4 5 -6t3 -4q6 8 19 8q8 0 8 -4q2 0 2 -4q-2 -4 -6 -3t-8 3h-7q-2 0 -6 -4q4 -10 5 -19.5t1 -13.5q0 -8 -1 -21.5t-7 -23.5l-8 -8q-8 -6 -13 -7.5t-10 -1.5h-6q-10 0 -16 5l-4 4 q-4 2 -8 2q-8 -4 -12.5 -15.5t-0.5 -21.5t31 -10q16 2 32.5 -1t31.5 -20h2q2 -2 2 -4q6 -10 6 -20v-15q0 -14 -8 -22q-4 -4 -6.5 -5t-4.5 -4q-10 -6 -20 -7t-14 -1h-2q-27 0 -43 11q-4 2 -9 6l-2 2q-4 4 -4 10q-6 12 4 25q4 4 6 4q4 0 5 -2q2 -4 -7 -13l-4 -4q-4 -8 2 -14 q6 -8 33 -8h19h4q43 0 47 24v13q0 8 -8.5 15t-40.5 7h-9q-12 -2 -23 0t-22 19q-4 4 -4 8q-4 8 -3 15zM1870 500q0 -16 2 -28.5t12 -16.5q4 -2 11.5 -2t11.5 2q10 4 12 17t2 30v6v10q-4 27 -10 33t-13 8h-6q-23 -2 -22 -51v-8zM1927 545h2h-2zM1968 406v2q2 2 6 2h4 q14 2 15 10v125q0 10 -13 10l-6 -2h-4q-2 0 -2 2q0 4 4 4h27q2 0 6 -2q8 -4 8 -12l2 4q10 14 23 10q4 0 8 -4v-2q-2 -6 -12 -2h-6q-8 0 -13 -10h2v2q6 2 21 2q6 -2 14 -10q4 -6 4 -19q-2 -14 -14 -20q-2 0 -3 -1t-3 -1q-4 0 -4 4q-2 4 10 8q4 0 4 2q4 2 4 8q2 6 -2 16 q-8 12 -27 7q-4 -4 -6 -12.5t-2 -16.5v-6v-84q0 -10 12 -10h5q8 0 8 -2t-4 -2h-35h-27h-4zM1987 711q0 4 8 2h6q8 0 8 4q0 2 -2 5t-4 7q-16 23 -16 45q0 23 13 45.5t30 22.5q6 0 6 -6t-6.5 -8.5t-10.5 -4.5t-6 -2t-4 -2q-18 -12 -18 -47q0 -12 4 -21.5t8 -13.5 q10 -18 31.5 -21t85.5 -3h10q8 0 10 14t2 33q0 35 -7 47t-19 22l-7 7q-2 0 -17 13t-34.5 28.5t-35 28t-17.5 14.5q-8 8 -8 14v41q0 12 8 12h35h55q23 0 38 -13t15 -36q0 -20 -13 -33.5t-34 -13.5q-16 0 -30.5 11t-14.5 30q0 8 6 8q8 0 9.5 -5t3.5 -11q2 -10 5 -17.5t19 -7.5 q18 0 33 10q10 14 10 27q0 27 -15.5 35t-58.5 8q-47 0 -55 -2t-8 -12q2 -16 7 -21.5t16 -13.5l18 -16q18 -15 41.5 -33.5t42 -35t18.5 -18.5v-112q-4 -8 -6 -8h-125h-12q-14 0 -16 1t-2 3zM2073 422q-12 25 2 47q0 2 1 2t1 2l2 2l57 23v28v2v4q-2 8 -10 11.5t-19 3.5 q-16 0 -22 -6q-8 -8 -4 -15q0 -4 4 -4q8 -8 6 -14q-4 -4 -7 -1t-3 5q-8 10 -4 25q2 4 3 5t3 5l6 3l6 3q6 6 27 6q10 0 22.5 -5t12.5 -26v-108q0 -8 12 -8h6q4 0 6 -2q0 -4 -4 -4h-27q-4 0 -8 2q-6 2 -6 12v8l-6 -6q-4 -10 -13.5 -13t-17.5 -3q-16 0 -26 16zM2084 449.5 q1 -9.5 5 -15.5q8 -12 16 -14h2q2 0 7.5 1t11.5 5q10 10 10 29v34l-49 -18q-4 -12 -3 -21.5zM2136 426v2v-2zM2167 711v2q2 0 3 1t3 1h8q12 0 12 10v246q0 10 -12 10h-8q-4 0 -6 2v2q0 2 6 2h59h4q6 0 7 -2v-2q-2 -2 -9 -2h-6q-12 0 -12 -10v-246q0 -10 12 -10h6q4 0 5.5 -1 t3.5 -1v-2q0 -4 -7 -4l-63 2v-2q-6 0 -6 4zM2173 313l2 2h6h6q12 0 13 11v161q-2 2 -2 7l2 51q-2 10 -13 10l-6 -2h-4q-2 0 -2 2v2q0 2 4 2h27q2 0 6 -2q8 -4 8 -12v-10v2q10 23 37 22q4 0 11.5 -1t17.5 -9q0 -2 2 -4t6 -8q12 -18 12 -60q0 -6 -1 -20.5t-9 -30.5l-8 -12 q-14 -10 -31 -11q-12 0 -20.5 6.5t-12.5 10.5q-2 2 -2 4t-4 6v-33l2 -39v-12v-20q0 -10 12 -11h6h7v-2v-2l-2 -2h-5l-32 2l-27 -2q-2 0 -4 2zM2218 432q2 -2 2 -4q0 2 -2 4zM2218 532h2l-2 5v-5zM2220 467q0 -16 4 -29q4 -6 10.5 -18t20.5 -12q10 0 19.5 11t9.5 58v6 q2 18 1 36t-12 28q-10 6 -20 6q-6 0 -14.5 -4t-14.5 -19q-4 -12 -4 -26v-37zM2267 711l2 2q0 2 6 2h4h9q8 0 10 2q4 4 12 22.5t14 34.5l19 49l51 148q0 12 -14 12l-6 -2h-4q-2 0 -3 2l-2 2l2 2h5h61h4h4v-2v-2l-2 -2h-4l-6 2q-12 0 -12 -12l43 -246q0 -10 12 -10h6q6 0 8 -2 v-2q0 -2 -6 -2h-63q-6 0 -7 2v2q2 2 9 2h6q12 0 12 10l-20 119q-4 0 -5.5 -1t-3.5 -1q-59 -27 -79 -72q-14 -35 -15.5 -43t-1.5 -10q4 -2 12 -2h9h4q6 0 6 -2q0 -4 -4 -4h-62h-4q-4 0 -6 2zM2322 408v2q0 2 7 2h6q10 0 10 10v217q0 10 -10 10h-6h-7q0 6 2 6h3l26 -2 q2 0 6 -2q8 -4 8 -12v-109q2 4 3.5 5.5t3.5 5.5q14 18 45 18h10q2 -2 6 -4t4 -10v-15v2v-2v-53v-57q0 -8 15 -8h4q6 0 6 -2q0 -4 -4 -4l-35 2l-21 -2q-4 0 -6 2l2 2q0 2 6 2h8.5t4.5 8v127q0 6 -4 6h-2q-39 -6 -46 -43v-88q0 -10 9 -10h4q6 0 6 -2v-2q0 -2 -4 -2h-4l-25 2 l-26 -2q-4 0 -5 2zM2355 838q0 -11 12 -11h3q4 2 14 7.5t20 9.5l11 6l-19 106l-39 -110q-2 -4 -2 -8zM2367 528v2v-2zM2417 844l2 -15zM2445 336q0 8 6 8q4 -2 5 -12v-6q2 -6 8 -8.5t12 -2.5q6 2 11 6.5t10 20.5q2 8 3 16.5t5 14.5q2 8 2 12t2 8l2 13l-12 43l-29 96 q-2 10 -12 10h-2q-4 -2 -4.5 -1t-2.5 1h-2l-2 2q2 2 6 2h48h4h4v-2v-2q-2 0 -2 -1t-4 -1l-7 2q-2 0 -4 -2v-8l31 -99l10 35q18 66 13 70l-4 4h-3q-8 -4 -12 0v2q0 2 6 2h45h4h5v-2v-2q-4 -4 -13 0h-8t-6 -4q-2 -2 -7 -15.5t-16 -60.5l-10 -43l-2 -2l-10 -39q0 -4 -3 -16.5 t-7 -26.5q0 -4 -1 -5t-1 -5q-4 -12 -9 -19q-8 -8 -14 -8q-2 0 -3 -1t-3 -1t-14 4q-12 8 -13 23zM2507 711h2q0 2 6 2h10q10 0 12 4q4 4 5.5 12t1.5 19v4v194v10q0 12 -4 21q-4 4 -19 4q-10 0 -12 2v2q0 2 4 2h61h4q4 0 5 -2h2l-2 -2q-2 -2 -13 -2q-14 0 -18 -4t-4 -11.5 v-15.5q2 -4 6 -8q2 0 2 -2l8 -8l8 -8q6 -4 23.5 -18.5t37 -30t35.5 -27.5l15 -12q4 -4 4 -5v41l-2 70l2 4q0 10 -1 18.5t-5 12.5t-17 4q-10 0 -12 2l-2 2q2 2 6 2h62h4q4 0 4 -2h2l-2 -2q-2 -2 -12 -2q-14 0 -17 -4q-4 -4 -5 -12.5t-1 -18.5v-4v-194q0 -10 1 -18.5t5 -12.5 q2 -4 13 -4h10q6 0 6 -2v-2q0 -2 -4 -2h-62h-4q-4 0 -6 2v2h2q0 2 6 2h11q10 0 12 4q4 4 5 12t1 19l-2 53q-4 8 -11.5 14t-15.5 12q-8 4 -10 7q-10 8 -26.5 21t-32 26.5t-26.5 22.5t-13 11q-2 0 -2 3v-68v-98v-4q0 -10 1 -18.5t5 -12.5q2 -4 12 -4h10q6 0 7 -2v-2 q0 -2 -5 -2h-61h-4q-4 0 -4 2zM2548 918v2v-2zM2753 711q0 4 6 4h6q12 0 12 10v246q0 10 -12 10h-6h-6v2v2q0 2 4 2h61h6h2h86q2 -8 2 -16v-17v-34q0 -6 -2 -7l-2 -2q-4 2 -4 15q2 2 2 6q0 31 -20 45q-6 4 -31 4h-35h-10q-10 -4 -10 -10v-78h30h11q18 0 24 6l4 8q0 6 2 8v3 q4 10 11 10q2 -4 -2 -8q-2 -2 -2.5 -4.5t-2.5 -4.5q-6 -16 -2 -30.5t11 -28.5q8 -20 10 -31q0 -14 -2 -22q-4 -14 -12 -15q-8 0 -9 7q0 6 4 10q2 2 2 4q8 8 9 16q0 4 -4 17q-2 4 -2 6t-3 6l-2 6q0 2 -1 3t-1 3q-4 8 -6 14.5t-8 8.5q-4 2 -20 2h-23h-18l2 -162q0 -10 12 -10 h6q29 -2 48.5 -1t23.5 5q16 12 20 43q0 2 -1 3t-1 3q0 12 4 14h2q2 -2 2 -6v-35v-32h-2h-2l-153 -2l-4 2v-2q-4 0 -4 4zM2910 987h2h-2zM2916 709v2v-2z" />
<glyph unicode="&#xb4;" horiz-adv-x="667" d="M100 1419q-4 10 6.5 12.5t24.5 2.5q27 0 74 3t78 17q8 4 14 8q33 18 45 38t23 36q8 10 21 21.5t34 13.5q10 2 17 1t14 -3q4 -2 9 -4t9 -4q12 -4 24.5 -23t12.5 -29q0 -35 -10.5 -51t-26.5 -26q-16 -12 -34.5 -15.5t-35.5 -3.5h-264h2h-23.5t-13.5 6z" />
<glyph unicode="&#xb7;" />
<glyph unicode="&#xbb;" d="M643 420q0 6 8 7t19 3q23 0 61.5 2t65.5 14q2 2 10 7l8 4q-6 6 -6 14v137q0 53 1 97.5t1 50.5v16q-2 39 -23 49q-18 8 -41.5 3t-33.5 -21q-8 -10 -11.5 -24.5t0.5 -26.5q4 -18 15 -25q4 -2 16 -6q10 -4 20.5 -8t8.5 -15q-2 -8 -12 -8t-19 4q-35 16 -41 58q-4 35 12 53 q18 23 41 29q14 4 29.5 3t28.5 -6q6 -2 16 -16v53v92t-2 50q-2 25 -16.5 54.5t-36.5 43.5q-10 2 -25 6q-16 4 -29.5 9t-13.5 22q-2 10 3 13t10 3q31 0 62.5 -33.5t47.5 -80.5v32q-2 35 -2 65t-2 46v18q0 35 16.5 74t44.5 68q29 29 58 28q4 0 10 -3t6 -13q-2 -14 -15 -19.5 t-30 -9.5q-6 -2 -12 -3t-10 -5q-23 -14 -38.5 -43t-17.5 -55q-2 -16 -2 -76.5t2 -132.5q0 -8 1 -15.5t1 -13.5v-18q-2 -25 -2 -70v-94q-2 10 -2 20.5v20.5v-47q2 2 3 4t3 4q12 25 30 40t24 19l2 2h2l4 4q18 10 41 13q20 -4 24 -8q2 -6 0 -11q-4 -10 -14 -10t-24 4 q-4 0 -8.5 1t-8.5 1h-6q-8 -4 -32.5 -23.5t-33.5 -54.5q-4 -8 -4 -15v-13q0 -12 11 -13q8 0 20 11l8 4q29 20 50.5 29.5t48.5 11.5q31 25 88 24q29 0 55.5 -7t48.5 -17q37 -20 57 -51q8 -12 13 -21q4 -4 5 -7t3 -7q0 -2 2 -2q25 -53 20 -101q0 -23 -4 -39t-14 -34 q20 14 45 14q8 -4 10 -6t2 -12q-4 -16 -17 -19.5t-30 -5.5q-16 -4 -22 -6q-16 -8 -23 -15l-2 -4l-2 2q-2 -4 -3 -5t-3 -5q4 -12 8 -18q6 -10 11.5 -17.5t11.5 -15.5q47 47 96 59q31 8 63 7q33 -4 64 -17.5t55 -34.5v4q4 16 8 29.5t21 15.5q12 0 16 -12q2 -27 -24 -57 q27 -29 24 -55q-4 -12 -14 -13h-2q-16 2 -20.5 15.5t-8.5 29.5v2q-25 -18 -55.5 -31.5t-63.5 -17.5q-4 0 -9 -1t-9 -1q-25 0 -51 10q-49 16 -90 58q-6 -8 -11.5 -15.5t-11.5 -17.5q-4 -6 -8 -18q12 -18 33 -27q6 -2 22 -6q16 -2 29.5 -6t17.5 -19q0 -10 -2 -12t-10 -6h-6 q-18 0 -39 14q18 -37 18 -74q2 -39 -12 -77.5t-37 -67.5q-18 -25 -51 -43q-23 -12 -49.5 -18.5t-54.5 -6.5q-61 0 -88 25q-27 2 -48.5 11t-50.5 30l-8 4q-12 10 -20 10q-10 0 -11 -12v-13.5t4 -15.5q8 -37 33 -56t33 -22h6q4 0 8 1.5t9 1.5q14 4 24 4t14 -11q2 -6 0 -10 q-6 -8 -22 -8q-25 2 -43 12l-8 4q-6 4 -24.5 20.5t-33.5 43.5q6 -14 15 -19q-12 16 -17 25v-31q2 -43 3 -79.5t1 -59.5v-18q0 -8 -1 -14.5t-1 -14.5q-2 -72 -2 -132.5t2 -78.5q2 -25 17.5 -54.5t38.5 -41.5q4 -4 10 -5t12 -4q16 -4 29.5 -9t15.5 -19q0 -10 -5 -13.5t-9 -5.5 h-2q-27 0 -58 31q-29 29 -45 68t-16 73v19q2 23 2 60.5v82.5q-4 -16 -12 -31q-16 -37 -43 -60t-51 -23q-4 0 -13 4q-4 4 -2 12q0 16 13.5 21.5t29.5 9.5q14 2 25 6q23 14 37 43.5t16 54.5q4 33 0 195q0 -2 -1 -2t-1 -2q-2 -8 -12 -13q-12 -4 -27.5 -5t-30.5 3q-23 6 -41 29 q-16 23 -12 53q6 41 41 57q8 4 19 5q10 0 12 -9q2 -10 -8.5 -14t-20.5 -8q-12 -4 -16 -6q-10 -6 -15 -25q-4 -12 -0.5 -26.5t11.5 -24.5q10 -16 33.5 -21.5t41.5 2.5q20 10 23 50v16q0 4 -1 49t-1 98v138q0 4 4 12q-2 0 -3 1t-3 1q-4 4 -6 5t-4 3q-27 10 -66 13.5t-61 3.5 q-27 0 -27 10zM649 -430q6 6 16.5 5t20.5 -1t20.5 1t20.5 7q14 8 29 23q4 6 16 22q4 4 6 4t-2 -4q-10 -14 -19 -29.5t-22 -25.5q-20 -18 -45 -27q-10 -4 -22.5 -6t-18.5 8q-12 10 0 23zM653 1260q-10 10 2 22q6 10 18.5 8t22.5 -6q29 -10 45 -27q10 -10 20.5 -25t20.5 -30 q4 -4 2 -3t-6 5t-9 10.5t-9 10.5q-8 12 -27 22q-10 6 -21.5 7t-21.5 1h-19.5t-17.5 5zM801 1081q4 -10 8 -19.5t8 -19.5v5q-6 16 -16 34zM813 817q2 0 2 -1t2 -1v-2zM815 27q0 -14 1 -27.5t1 -26.5v54h-2zM817 -201v-4v-33v37zM821 252q2 -41 5 -69.5t9.5 -47t17.5 -32 t30 -23.5q10 -6 27.5 -15.5t41.5 -13.5q-2 2 -2 3t-2 3t-2 11q2 6 8 8q12 8 25.5 -1t24.5 -22l2 -2q68 6 92 49q4 4 8 23q4 14 10 27.5t23 13.5q10 0 12 -5t2 -9q31 59 21 104h-3v4q-2 8 -10 25l-16 16q-12 10 -21.5 21.5t-3.5 25.5q4 10 9.5 10t9.5 -2t5 -3t5 -3 q-2 20 0 45q2 10 6 27q-2 8 -3 14t-3 15q-2 25 0 45q-4 -2 -5 -3.5t-5 -3.5q-2 0 -3 -1t-3 -1q-8 0 -13 11q-6 14 3.5 25t21.5 22l16 16q8 16 10 25v4h3q10 45 -21 104q0 -4 -2 -9t-12 -5q-16 0 -22.5 12t-10.5 29q-2 6 -3 12t-5 10q-25 43 -92 50l-2 -5q-10 -8 -19.5 -16 t-19.5 -8q-2 0 -11 4q-10 4 -9 9t3 9q2 2 2 3t2 4q-25 -4 -42 -13.5t-27 -15.5q-23 -12 -35 -29.5t-18.5 -47.5t-7.5 -76t-1 -120v105v-107v17v-19v-6v-2v10v-10v-14q18 14 26.5 27.5t16.5 23.5q6 10 17.5 18.5t27.5 10.5q14 2 27 -2q4 -2 7 -3t7 -3q10 -4 20.5 -19.5 t10.5 -23.5q0 -29 -8 -42.5t-23 -23.5q-4 -2 -7 -3t-7 -3q4 -2 7 -4t7 -4q14 -8 22.5 -22.5t8.5 -43.5q0 -8 -10 -23.5t-21 -19.5q-4 -2 -7 -3t-7 -3q-12 -4 -27 -2q-16 2 -27.5 10t-17.5 19q-8 10 -16 24t-27 29v-2v-23v-14v14v-100zM821 338v14v-14zM834 0v2q2 0 4 -2 l4 -4q29 -23 49 -49q14 -25 18 -53q2 -10 2 -25.5t-10 -22.5q-4 -2 -12 -2t-15 6q-4 6 -3 15.5t3 17.5q2 4 3 8q2 12 3 23.5t-3 22.5q-10 25 -21 34l-18 23q-4 4 -4 6zM834 844v2q0 -2 4 6l18 22q12 14 21 35q4 10 3 21.5t-3 21.5q0 8 -3 11q-2 8 -3 17t3 15q8 12 27 4 q10 -6 10 -21t-2 -24q-4 -31 -18 -55q-10 -12 -23.5 -25.5t-25.5 -23.5l-4 -4l-2 -2h-2zM995 420q-4 10 6 16q2 0 3.5 1t5.5 1h10h16l25 -6q10 0 14 2q16 6 31 17l18 16q8 4 9 4l-3 -2l-2 -6q-10 -10 -21 -21.5t-24 -19.5l-2 -2h2q10 -8 21.5 -19.5l21.5 -21.5l7 -8 q-2 0 -3.5 1t-5.5 1l-18 18q-14 10 -31 17q-4 2 -14 2l-25 -7h-16h-10q-4 0 -5.5 1.5t-3.5 1.5q-8 6 -6 14zM1014 43q4 -4 8 -6q49 -29 131 12v2h-2q-14 0 -14 15q0 16 13 22t28 10q20 8 22 11q49 35 47 122q-2 29 -13.5 53.5t-19.5 34.5q-14 14 -26 33q-12 -35 -8 -61v-8 q2 0 2 -2q4 -31 0 -67t-19 -64q-18 -39 -47 -60q-41 -35 -102 -47zM1014 799q31 -6 59.5 -20.5t48.5 -30.5q12 -10 22.5 -23.5t18.5 -32.5q14 -29 18.5 -63.5t0.5 -67.5q0 -2 -2 -2v-8q-4 -27 8 -62q6 8 12 16.5t14 14.5q8 12 19.5 36t13.5 52q2 90 -47 125q-2 2 -22 10 q-14 4 -27.5 10.5t-13.5 22.5q0 14 14 15h2q-82 43 -131 12q-4 0 -8 -4zM1157 389q-4 -28 4 -53q2 -4 4 -9l4 -10q2 12 4.5 23.5t6.5 21.5q-4 10 -10.5 21.5t-10.5 22.5q0 -4 -1 -8.5t-1 -8.5zM1157 453q0 -4 1 -8.5t1 -8.5q4 10 9.5 21.5t11.5 21.5q-4 10 -6.5 21.5 t-4.5 23.5q-2 -4 -4 -9t-4 -9q-8 -24 -4 -53zM1163 420q10 -33 21 -47q4 4 5 8t5 8q8 18 25 31q-16 16 -25 33q-4 4 -5 8t-5 8q-11 -16 -21 -49zM1229 420q39 -39 78 -39q4 0 24 4q16 4 30.5 5t20.5 -9t3 -15.5t-7 -7.5q88 8 117 62v2q-29 51 -117 61q4 -4 7.5 -8t-3.5 -14 q-6 -10 -20 -9t-31 5q-16 4 -24 4q-41 0 -78 -41z" />
<glyph unicode="&#xc1;" horiz-adv-x="1138" d="M29 2q-4 10 6 11t20 1h69t56 17q8 10 22.5 40.5t33 71.5t38 89.5t37.5 91.5q6 18 14.5 41.5t22.5 63.5t36.5 104.5t58.5 165t87 244.5t125 347v21q0 25 -11 37t-26.5 16t-34 3t-30.5 -1q-14 0 -24.5 1t-10.5 11q4 6 18.5 7t30.5 1h115h43h117q16 0 29.5 -1t17.5 -7 q0 -10 -8.5 -11t-24.5 -1q-12 0 -29.5 1t-33 -3t-25.5 -16.5t-10 -36.5l221 -1241q0 -25 10 -37.5t25.5 -16.5t32 -3t30.5 1q35 0 35 -12q-6 -10 -19.5 -9t-31.5 1l-117 6h-41l-117 -6q-14 0 -28.5 -1t-20.5 9q0 12 37 12q12 0 28.5 -1t31 3t24.5 16.5t10 37.5l-100 600 q-152 -51 -268.5 -140.5t-176.5 -230.5q-16 -41 -32.5 -85t-29.5 -83t-19.5 -66.5t0.5 -33.5q16 -16 52 -16.5t70 -0.5q14 0 25.5 -1t5.5 -11q0 -6 -16.5 -7t-26.5 -1l-123 6h-43l-114 -6q-12 0 -27.5 1t-15.5 7zM459 641q-4 -29 19 -47t56 -12q14 4 44 18t63 30.5t64.5 33 t52.5 26.5l-95 557q-51 -156 -84.5 -258t-56 -165.5t-35 -94.5t-18.5 -46t-7 -22.5t-3 -19.5zM522 1423q-4 10 6.5 12.5t24.5 2.5q27 0 74 3t78 17q8 4 14 8q33 18 45 38t23 36q8 10 21 21.5t34 13.5q10 2 17 1t14 -3q4 -2 9 -4t9 -4q12 -4 24.5 -23t12.5 -29 q0 -35 -10.5 -51t-26.5 -26q-16 -12 -34.5 -15.5t-35.5 -3.5h-264h2h-23.5t-13.5 6z" />
<glyph unicode="&#xc4;" horiz-adv-x="1134" d="M29 2q-4 10 6 11t20 1h69t56 17q8 10 22.5 40.5t33 71.5t38 89.5t37.5 91.5q6 18 14.5 41.5t22.5 63.5t36.5 104.5t58.5 165t87 244.5t125 347v21q0 25 -11 37t-26.5 16t-34 3t-30.5 -1q-14 0 -24.5 1t-10.5 11q4 6 18.5 7t30.5 1h115h43h117q16 0 29.5 -1t17.5 -7 q0 -10 -8.5 -11t-24.5 -1q-12 0 -29.5 1t-33 -3t-25.5 -16.5t-10 -36.5l221 -1241q0 -25 10 -37.5t25.5 -16.5t32 -3t30.5 1q35 0 35 -12q-6 -10 -19.5 -9t-31.5 1l-117 6h-41l-117 -6q-14 0 -28.5 -1t-20.5 9q0 12 37 12q12 0 28.5 -1t31 3t24.5 16.5t10 37.5l-100 600 q-152 -51 -268.5 -140.5t-176.5 -230.5q-16 -41 -32.5 -85t-29.5 -83t-19.5 -66.5t0.5 -33.5q16 -16 52 -16.5t70 -0.5q14 0 25.5 -1t5.5 -11q0 -6 -16.5 -7t-26.5 -1l-123 6h-43l-114 -6q-12 0 -27.5 1t-15.5 7zM459 641q-4 -29 19 -47t56 -12q14 4 44 18t63 30.5t64.5 33 t52.5 26.5l-95 557q-51 -156 -84.5 -258t-56 -165.5t-35 -94.5t-18.5 -46t-7 -22.5t-3 -19.5zM523 1477q0 25 17 42t44 17q25 0 43 -17.5t18 -41.5q0 -27 -18 -44.5t-43 -17.5q-27 0 -44 17.5t-17 44.5zM760 1477q0 25 17.5 42t44.5 17q25 0 43 -17.5t18 -41.5 q0 -27 -18 -44.5t-43 -17.5q-27 0 -44.5 17.5t-17.5 44.5z" />
<glyph unicode="&#xc6;" horiz-adv-x="1415" d="M31 4q-4 10 6 12t24 2q33 0 68 -1t53 18q8 8 23.5 37.5t33 70.5t37 88.5t35.5 90.5q23 59 45.5 120.5t44.5 124.5l275 776q4 12 6 17q-16 6 -36.5 5t-35.5 -1q-12 0 -23.5 2t-6.5 12q2 8 16 7t27 -1h118h41h121h24.5t56.5 -1t77 -1h86h233q-2 -74 0 -160.5t0 -166.5 q0 -10 -1 -25.5t-11 -11.5q-10 2 -12 12t-1 24.5t3 30t2 29.5q-6 162 -107 223q-14 8 -51 14.5t-83 9.5t-97 3h-94q-33 2 -58 -2q-23 -4 -40 -15.5t-17 -37.5v-389q14 -2 36.5 -3.5t46.5 -1.5h45.5h35.5h50.5t50 2.5t44 7.5t29.5 17q14 12 18.5 37t14.5 45q10 18 18 42 t31 24q6 0 3 -8.5t-10 -19.5t-15.5 -24.5t-12.5 -25.5q-23 -66 -14.5 -126.5t29 -115.5t43 -107.5t28.5 -103.5q6 -55 -10 -110q-6 -18 -17.5 -42t-33.5 -26q-14 -2 -25.5 5t-13.5 22q-2 16 12 33.5t25 31.5q14 18 24 37.5t12 44.5q4 25 -4 47.5t-14 44.5q-10 20 -17.5 41 t-15.5 41q-8 18 -15 43t-16.5 47.5t-21.5 41t-29 26.5q-27 12 -65.5 10t-77.5 -2q-31 0 -82 -1t-86 -3v-817q0 -27 11.5 -38t26.5 -15.5t33.5 -3.5t30.5 1h7h98t106.5 2.5t92.5 7.5t55 13q98 61 104 223q0 14 -2 29.5t-3 29t1 23.5t12 14t12.5 -11t2.5 -23q0 -82 -2 -169 t0 -161h-477q-4 0 -9.5 1t-9.5 1h-121h-41h-118q-12 0 -26.5 -1t-16.5 7q-4 8 7 11t23 3t29.5 -1t33 3.5t27 15.5t11.5 38v575q-133 -53 -233.5 -142t-153.5 -200q-16 -43 -34 -88t-30 -83t-16 -65.5t2 -35.5q18 -18 38.5 -17.5t51.5 0.5q14 0 24.5 -2t6.5 -12 q-2 -6 -15.5 -6h-25.5h-90h-43h-119h-26.5t-16.5 6zM455 641q4 -29 26 -47t51 -12q23 8 77.5 33.5t101.5 50.5v643q0 23 -13 39q-2 -2 -2 -4.5t-2 -6.5l-233 -659q-6 -16 -6 -37z" />
<glyph unicode="&#xc9;" horiz-adv-x="987" d="M84 8q0 8 9 10t21 2h31q25 0 47.5 9.5t22.5 48.5v1233q0 37 -21.5 47t-44.5 10q-10 0 -18 -1t-17 -1q-8 0 -19 6t-11 8q2 6 24 6h19h758v-88v-174v-71v-6q0 -8 -2.5 -17.5t-12.5 -9.5q-12 4 -12 29q0 14 2 29.5t2 31.5v6q-4 162 -104 223q-23 16 -115 21.5t-234 7.5 q-25 0 -57.5 -10t-32.5 -47v-389q29 -4 86.5 -4h120.5q39 0 76 4t55 20q14 14 17.5 38t13.5 46q10 18 19.5 43t27.5 25q4 0 4 -4q0 -10 -14.5 -34t-22.5 -42q-10 -25 -13 -49.5t-3 -46.5q0 -49 14.5 -96.5t32.5 -91.5t34.5 -87t20.5 -84q2 -6 2 -13v-14q0 -41 -12 -79 q-6 -20 -18.5 -44t-34.5 -24q-10 0 -23.5 12.5t-13.5 14.5q0 16 13.5 33.5t23.5 31.5l4 4q10 16 19.5 35t13.5 41v12q0 23 -7.5 42.5t-13.5 37.5q-14 43 -31 84q-6 18 -13 42t-16 46.5t-21.5 41t-28.5 26.5q-14 6 -32 8t-36 2q-59 0 -119.5 -2t-124.5 -4v-815 q0 -43 31 -50.5t68 -7.5h8h69q43 0 87 1.5t84 4.5t69 7t41 12q51 31 76.5 87t29.5 134q0 14 -3 33.5t-3 36.5q0 29 17 29q10 0 11 -13.5t1 -23.5q0 -66 -1 -134.5t-1 -132.5v-61h-776h-17q-27 0 -26 8zM319 1423q-4 10 6.5 12.5t24.5 2.5q27 0 74 3t78 17q8 4 14 8 q33 18 45 38t23 36q8 10 21 21.5t34 13.5q10 2 17 1t14 -3q4 -2 9 -4t9 -4q12 -4 24.5 -23t12.5 -29q0 -35 -10.5 -51t-26.5 -26q-16 -12 -34.5 -15.5t-35.5 -3.5h-264h2h-23.5t-13.5 6z" />
<glyph unicode="&#xcb;" horiz-adv-x="987" d="M84 8q0 8 9 10t21 2h31q25 0 47.5 9.5t22.5 48.5v1233q0 37 -21.5 47t-44.5 10q-10 0 -18 -1t-17 -1q-8 0 -19 6t-11 8q2 6 24 6h19h758v-88v-174v-71v-6q0 -8 -2.5 -17.5t-12.5 -9.5q-12 4 -12 29q0 14 2 29.5t2 31.5v6q-4 162 -104 223q-23 16 -115 21.5t-234 7.5 q-25 0 -57.5 -10t-32.5 -47v-389q29 -4 86.5 -4h120.5q39 0 76 4t55 20q14 14 17.5 38t13.5 46q10 18 19.5 43t27.5 25q4 0 4 -4q0 -10 -14.5 -34t-22.5 -42q-10 -25 -13 -49.5t-3 -46.5q0 -49 14.5 -96.5t32.5 -91.5t34.5 -87t20.5 -84q2 -6 2 -13v-14q0 -41 -12 -79 q-6 -20 -18.5 -44t-34.5 -24q-10 0 -23.5 12.5t-13.5 14.5q0 16 13.5 33.5t23.5 31.5l4 4q10 16 19.5 35t13.5 41v12q0 23 -7.5 42.5t-13.5 37.5q-14 43 -31 84q-6 18 -13 42t-16 46.5t-21.5 41t-28.5 26.5q-14 6 -32 8t-36 2q-59 0 -119.5 -2t-124.5 -4v-815 q0 -43 31 -50.5t68 -7.5h8h69q43 0 87 1.5t84 4.5t69 7t41 12q51 31 76.5 87t29.5 134q0 14 -3 33.5t-3 36.5q0 29 17 29q10 0 11 -13.5t1 -23.5q0 -66 -1 -134.5t-1 -132.5v-61h-776h-17q-27 0 -26 8zM316 1479q0 25 17 42t44 17q25 0 43 -17.5t18 -41.5q0 -27 -18 -44.5 t-43 -17.5q-27 0 -44 17.5t-17 44.5zM553 1479q0 25 17.5 42t44.5 17q25 0 43 -17.5t18 -41.5q0 -27 -18 -44.5t-43 -17.5q-27 0 -44.5 17.5t-17.5 44.5z" />
<glyph unicode="&#xcd;" horiz-adv-x="534" d="M84 4q0 8 9 10t21 2h31q25 0 47.5 9.5t22.5 48.5v1239q0 37 -22.5 46t-47.5 9h-31q-6 0 -18 2t-12 12q2 6 24 7h19h282h19q23 0 24 -7v-4q0 -6 -9 -8t-21 -2h-31q-25 0 -47.5 -9t-22.5 -46v-1239q0 -39 22.5 -48.5t47.5 -9.5h31q12 0 21 -2t9 -8v-4q-2 -6 -24 -6h-19 l-118 6l-164 -6h-17q-27 0 -26 8zM86 1419q-4 10 6.5 12.5t24.5 2.5q27 0 74 3t78 17q8 4 14 8q33 18 45 38t23 36q8 10 21 21.5t34 13.5q10 2 17 1t14 -3q4 -2 9 -4t9 -4q12 -4 24.5 -23t12.5 -29q0 -35 -10.5 -51t-26.5 -26q-16 -12 -34.5 -15.5t-35.5 -3.5h-264h2h-23.5 t-13.5 6z" />
<glyph unicode="&#xcf;" horiz-adv-x="534" d="M84 4q0 8 9 10t21 2h31q25 0 47.5 9.5t22.5 48.5v1239q0 37 -22.5 46t-47.5 9h-31q-6 0 -18 2t-12 12q2 6 24 7h19h282h19q23 0 24 -7v-4q0 -6 -9 -8t-21 -2h-31q-25 0 -47.5 -9t-22.5 -46v-1239q0 -39 22.5 -48.5t47.5 -9.5h31q12 0 21 -2t9 -8v-4q-2 -6 -24 -6h-19 l-118 6l-164 -6h-17q-27 0 -26 8zM91 1479q0 25 17 42t44 17q25 0 43 -17.5t18 -41.5q0 -27 -18 -44.5t-43 -17.5q-27 0 -44 17.5t-17 44.5zM328 1479q0 25 17.5 42t44.5 17q25 0 43 -17.5t18 -41.5q0 -27 -18 -44.5t-43 -17.5q-27 0 -44.5 17.5t-17.5 44.5z" />
<glyph unicode="&#xd0;" horiz-adv-x="1052" d="M45 8q0 8 10.5 10t22.5 2q8 0 16 -1t19 -1q23 0 44 10.5t21 49.5v1231q0 39 -21.5 49t-43.5 10q-10 0 -18.5 -1t-16.5 -1q-10 0 -21.5 6t-11.5 8q2 4 9 5t18 1h16h268h56h8q229 0 375.5 -85t193.5 -259q10 -35 13.5 -76.5t3.5 -88.5q2 -55 2 -107.5v-105.5v-76t-2 -74 q-2 -47 -5.5 -88t-13.5 -80q-29 -104 -92.5 -180t-155.5 -125q-47 -25 -129 -33t-166 -8h-41h-10h-22h-283q-10 0 -26.5 3t-16.5 5zM281 78q0 -39 21.5 -49.5t45.5 -10.5q10 0 18.5 1t16.5 1h92q55 0 105.5 5.5t93.5 17.5q61 18 115 52t79 87q23 51 27 119t4 143 q0 143 -2 284.5t-2 295.5q0 70 -14.5 130t-49.5 97q-57 63 -164.5 90t-224.5 27h-59h-29q-27 0 -50 -9t-23 -50v-387q31 -4 82 -4h81h43q41 0 78 4t53 20q16 14 19.5 39t13.5 45q8 18 17.5 42t27.5 24q4 0 4 -5q0 -10 -14 -32.5t-22 -40.5q-14 -45 -15 -94q0 -51 14.5 -97.5 t32 -91.5t33.5 -87t21 -83q2 -8 2 -16v-17q0 -39 -13 -75q-4 -20 -16 -45t-37 -25q-10 0 -22.5 13.5t-12.5 15.5q0 16 12.5 33.5l22.5 31.5q14 18 24.5 36.5t12.5 43.5v12q0 23 -7 42.5t-14 37.5q-14 43 -30 84q-6 18 -12.5 42t-15.5 46.5t-21.5 40t-30.5 25.5 q-29 12 -66 12q-18 0 -38.5 -2t-41.5 -2q-31 0 -81 -1t-84 -1v-815z" />
<glyph unicode="&#xd1;" />
<glyph unicode="&#xd3;" horiz-adv-x="1056" d="M82 418v540v3v16q2 20 9 61t29.5 90.5t63.5 100.5t109 94q39 20 80 37q35 14 75.5 24.5t79.5 10.5h13q39 0 79.5 -10.5t75.5 -24.5q39 -16 80 -37q66 -41 106 -90t62.5 -96t31.5 -88t11 -64l2 -18v-27t-1 -63.5t-1 -89v-101.5v-276q0 -20 -8 -61.5t-29.5 -91.5 t-63.5 -102.5t-110 -95.5q-41 -20 -80 -36q-35 -14 -75.5 -26.5t-79.5 -10.5h-13q-39 -2 -80 10t-75 27q-41 16 -80 36q-59 41 -98 86t-64 93q-2 2 -11 22.5t-14 34.5q-16 41 -20 74.5t-4 48.5zM188 319q0 -27 9 -55q6 -25 22 -58.5t45 -70.5q39 -51 86 -76.5t88 -35.5 q49 -12 96 -13q47 0 97 13q41 10 88 35.5t88 76.5q47 63 60.5 112.5t15.5 65.5v758q-2 16 -14.5 65.5t-61.5 110.5q-41 51 -89 77t-89 36q-49 12 -97 12q-47 0 -94 -12q-41 -10 -88 -36t-86 -77q-29 -35 -43 -65.5t-22.5 -56t-9.5 -42t-1 -18.5v-746zM342 1419 q-4 10 6.5 12.5t24.5 2.5q27 0 74 3t78 17q8 4 14 8q33 18 45 38t23 36q8 10 21 21.5t34 13.5q10 2 17 1t14 -3q4 -2 9 -4t9 -4q12 -4 24.5 -23t12.5 -29q0 -35 -10.5 -51t-26.5 -26q-16 -12 -34.5 -15.5t-35.5 -3.5h-264h2h-23.5t-13.5 6z" />
<glyph unicode="&#xd6;" horiz-adv-x="1056" d="M82 418v540v3v16q2 20 9 61t29.5 90.5t63.5 100.5t109 94q39 20 80 37q35 14 75.5 24.5t79.5 10.5h13q39 0 79.5 -10.5t75.5 -24.5q39 -16 80 -37q66 -41 106 -90t62.5 -96t31.5 -88t11 -64l2 -18v-27t-1 -63.5t-1 -89v-101.5v-276q0 -20 -8 -61.5t-29.5 -91.5 t-63.5 -102.5t-110 -95.5q-41 -20 -80 -36q-35 -14 -75.5 -26.5t-79.5 -10.5h-13q-39 -2 -80 10t-75 27q-41 16 -80 36q-59 41 -98 86t-64 93q-2 2 -11 22.5t-14 34.5q-16 41 -20 74.5t-4 48.5zM188 319q0 -27 9 -55q6 -25 22 -58.5t45 -70.5q39 -51 86 -76.5t88 -35.5 q49 -12 96 -13q47 0 97 13q41 10 88 35.5t88 76.5q47 63 60.5 112.5t15.5 65.5v758q-2 16 -14.5 65.5t-61.5 110.5q-41 51 -89 77t-89 36q-49 12 -97 12q-47 0 -94 -12q-41 -10 -88 -36t-86 -77q-29 -35 -43 -65.5t-22.5 -56t-9.5 -42t-1 -18.5v-746zM349 1479q0 25 17 42 t44 17q25 0 43 -17.5t18 -41.5q0 -27 -18 -44.5t-43 -17.5q-27 0 -44 17.5t-17 44.5zM586 1479q0 25 17.5 42t44.5 17q25 0 43 -17.5t18 -41.5q0 -27 -18 -44.5t-43 -17.5q-27 0 -44.5 17.5t-17.5 44.5z" />
<glyph unicode="&#xd8;" d="M475 416v540v2l2 15q2 20 9.5 61t30 90.5t63.5 101.5t108 95q39 20 80 37q35 14 76 24.5t80 10.5h10q37 0 78 -10.5t75 -24.5q39 -16 80 -37q66 -41 106 -90t63.5 -97.5t32.5 -88t11 -64.5v-16v-555q-2 -20 -9 -61.5t-29.5 -91.5t-64.5 -101.5t-110 -94.5 q-41 -20 -80 -36q-35 -14 -75.5 -26.5t-77.5 -10.5h-10q-39 -2 -80 10t-76 27q-41 16 -80 36q-59 37 -99 83t-63 92q-2 2 -11 23.5t-13 35.5q-16 43 -20.5 74.5t-4.5 46.5h-2zM582 319q0 -23 6 -45q4 -20 15 -46.5t32 -57.5l526 1114q-39 35 -80 51.5t-75 24.5q-39 8 -78 8 q-47 0 -94 -12q-41 -10 -88.5 -36t-86.5 -75q-29 -35 -44 -66.5t-23 -56t-9 -41t-1 -18.5v-744zM702 90q39 -33 78 -49t74 -23q37 -8 76 -6q47 0 94 13q41 10 87 34.5t87 75.5q49 61 62.5 111.5t13.5 66.5v754q0 14 -8.5 51t-36.5 84z" />
<glyph unicode="&#xda;" horiz-adv-x="1202" d="M84 1380q2 6 16 6h27h123h43h123h25t18 -6q2 -10 -8.5 -12t-24.5 -2q-33 0 -69 1t-54 -17q-12 -12 -17.5 -36t-5.5 -50.5t1 -54t1 -50.5v-317v-134.5v-134v-124v-101.5l1 -22q1 -21 7.5 -53.5t20.5 -70.5t41 -75q31 -41 72 -64.5t80 -37.5q45 -16 92 -23q43 0 86 12 q37 10 79 36t76 77q23 33 39.5 60.5t16.5 52.5v1069q0 27 -11.5 39t-27 16t-33.5 3t-31 -1q-12 0 -23 2t-7 12q2 8 16 7t27 -1h122h44h122q12 0 25.5 1.5t17.5 -7.5q2 -10 -8 -12t-22 -2q-14 0 -31.5 1t-34 -3t-28 -16.5t-11.5 -38.5l2 -906q0 -29 -8 -70.5t-29.5 -89.5 t-58.5 -98.5t-94 -93.5q-29 -18 -60 -33q-27 -12 -58.5 -23t-66.5 -9h-10q-70 -2 -130 25.5t-95 56.5q-51 41 -83 94t-46 114q0 2 -1 41t-1 101.5v141.5v161v438q0 20 1 48t0 55.5t-6 51t-18 36.5q-16 18 -52 17t-71 -1q-12 0 -23 2t-7 12zM411 1419q-4 10 6.5 12.5 t24.5 2.5q27 0 74 3t78 17q8 4 14 8q33 18 45 38t23 36q8 10 21 21.5t34 13.5q10 2 17 1t14 -3q4 -2 9 -4t9 -4q12 -4 24.5 -23t12.5 -29q0 -35 -10.5 -51t-26.5 -26q-16 -12 -34.5 -15.5t-35.5 -3.5h-264h2h-23.5t-13.5 6z" />
<glyph unicode="&#xdc;" horiz-adv-x="1202" d="M84 1380q2 6 16 6h27h123h43h123h25t18 -6q2 -10 -8.5 -12t-24.5 -2q-33 0 -69 1t-54 -17q-12 -12 -17.5 -36t-5.5 -50.5t1 -54t1 -50.5v-317v-134.5v-134v-124v-101.5l1 -22q1 -21 7.5 -53.5t20.5 -70.5t41 -75q31 -41 72 -64.5t80 -37.5q45 -16 92 -23q43 0 86 12 q37 10 79 36t76 77q23 33 39.5 60.5t16.5 52.5v1069q0 27 -11.5 39t-27 16t-33.5 3t-31 -1q-12 0 -23 2t-7 12q2 8 16 7t27 -1h122h44h122q12 0 25.5 1.5t17.5 -7.5q2 -10 -8 -12t-22 -2q-14 0 -31.5 1t-34 -3t-28 -16.5t-11.5 -38.5l2 -906q0 -29 -8 -70.5t-29.5 -89.5 t-58.5 -98.5t-94 -93.5q-29 -18 -60 -33q-27 -12 -58.5 -23t-66.5 -9h-10q-70 -2 -130 25.5t-95 56.5q-51 41 -83 94t-46 114q0 2 -1 41t-1 101.5v141.5v161v438q0 20 1 48t0 55.5t-6 51t-18 36.5q-16 18 -52 17t-71 -1q-12 0 -23 2t-7 12zM424 1477q0 25 17 42t44 17 q25 0 43 -17.5t18 -41.5q0 -27 -18 -44.5t-43 -17.5q-27 0 -44 17.5t-17 44.5zM661 1477q0 25 17.5 42t44.5 17q25 0 43 -17.5t18 -41.5q0 -27 -18 -44.5t-43 -17.5q-27 0 -44.5 17.5t-17.5 44.5z" />
<glyph unicode="&#xe1;" horiz-adv-x="671" d="M20 197q0 23 5.5 51t14.5 54t21.5 47.5t24.5 31.5l274 102q0 -2 6.5 4.5t13.5 16.5t14 21.5t7 21.5v125q0 61 -41 88.5t-122 27.5q-78 0 -118 -28.5t-40 -69.5q0 -12 10 -25.5t21.5 -25.5t21.5 -24.5t10 -24.5q0 -20 -18 -21q-12 0 -23.5 10.5t-19.5 24.5t-13.5 31.5 t-5.5 30.5q0 45 24 79.5t60.5 57t80.5 35t87 12.5q35 0 69 -8t61.5 -28.5t45 -53.5t21.5 -84v-498q0 -53 3 -85t10 -48t17.5 -21.5t26.5 -5.5q10 0 21.5 1t25.5 1q12 0 21.5 -2t9.5 -8q0 -8 -9 -9t-20 -1h-139q-23 4 -39 12t-27.5 23.5t-11.5 42.5v49q-33 -63 -93 -105 t-111 -42q-41 0 -74 18t-55.5 49t-35 70t-12.5 80zM102 256q0 -41 12.5 -78t33 -65.5t46 -45t52.5 -16.5q20 0 46.5 11.5t51.5 38t41 67.5t16 102v185q0 4 -3 10t-13 6l-264 -98q-6 -16 -10 -35q-4 -16 -6.5 -37.5t-2.5 -44.5zM135 1038q-4 10 6.5 12.5t24.5 2.5q27 0 74 3 t78 17q8 4 14 8q33 18 45 38t23 36q8 10 21 21.5t34 13.5q10 2 17 1t14 -3q4 -2 9 -4t9 -4q12 -4 24.5 -23t12.5 -29q0 -35 -10.5 -51t-26.5 -26q-16 -12 -34.5 -15.5t-35.5 -3.5h-264h2h-23.5t-13.5 6z" />
<glyph unicode="&#xe4;" horiz-adv-x="671" d="M20 197q0 23 5.5 51t14.5 54t21.5 47.5t24.5 31.5l274 102q0 -2 6.5 4.5t13.5 16.5t14 21.5t7 21.5v125q0 61 -41 88.5t-122 27.5q-78 0 -118 -28.5t-40 -69.5q0 -12 10 -25.5t21.5 -25.5t21.5 -24.5t10 -24.5q0 -20 -18 -21q-12 0 -23.5 10.5t-19.5 24.5t-13.5 31.5 t-5.5 30.5q0 45 24 79.5t60.5 57t80.5 35t87 12.5q35 0 69 -8t61.5 -28.5t45 -53.5t21.5 -84v-498q0 -53 3 -85t10 -48t17.5 -21.5t26.5 -5.5q10 0 21.5 1t25.5 1q12 0 21.5 -2t9.5 -8q0 -8 -9 -9t-20 -1h-139q-23 4 -39 12t-27.5 23.5t-11.5 42.5v49q-33 -63 -93 -105 t-111 -42q-41 0 -74 18t-55.5 49t-35 70t-12.5 80zM102 256q0 -41 12.5 -78t33 -65.5t46 -45t52.5 -16.5q20 0 46.5 11.5t51.5 38t41 67.5t16 102v185q0 4 -3 10t-13 6l-264 -98q-6 -16 -10 -35q-4 -16 -6.5 -37.5t-2.5 -44.5zM158 1092q0 25 17 42t44 17q25 0 43 -17.5 t18 -41.5q0 -27 -18 -44.5t-43 -17.5q-27 0 -44 17.5t-17 44.5zM395 1092q0 25 17.5 42t44.5 17q25 0 43 -17.5t18 -41.5q0 -27 -18 -44.5t-43 -17.5q-27 0 -44.5 17.5t-17.5 44.5z" />
<glyph unicode="&#xe9;" horiz-adv-x="565" d="M20 434q0 14 2.5 51t9.5 83t23.5 96.5t45 91.5t73.5 67.5t109 26.5q66 0 110.5 -29.5t73.5 -75t46 -100.5t28 -106v-9q0 -35 -30 -55t-75 -30.5t-98 -13.5t-98 -3h-68q-45 0 -45 -4v-25q2 -74 6 -144.5t22.5 -126.5t56.5 -91t105 -35q41 0 74 15.5t55.5 37t35 42 t14.5 30.5q0 4 2 6q0 12 -6.5 33.5t-6.5 40.5q0 10 5.5 21.5t19.5 11.5q12 0 17 -13.5t5 -25.5t-4 -28.5t-10 -31t-11 -25.5l-5 -10q-12 -20 -32.5 -42.5t-47.5 -42t-58.5 -32t-68.5 -12.5q-63 0 -108.5 29t-76 74t-49 99t-27.5 104.5t-11.5 91.5t-2.5 59zM84 1036 q-4 10 6.5 12.5t24.5 2.5q27 0 74 3t78 17q8 4 14 8q33 18 45 38t23 36q8 10 21 21.5t34 13.5q10 2 17 1t14 -3q4 -2 9 -4t9 -4q12 -4 24.5 -23t12.5 -29q0 -35 -10.5 -51t-26.5 -26q-16 -12 -34.5 -15.5t-35.5 -3.5h-264h2h-23.5t-13.5 6zM127 475q0 -10 47 -19.5t111 -9.5 q37 0 73.5 4.5t66.5 13.5t50.5 24.5t22.5 39.5q0 29 -5.5 62t-15.5 67q-6 18 -19.5 48t-34 59t-49 49.5t-65.5 20.5q-39 0 -71.5 -16.5t-57 -57.5t-39 -109.5t-14.5 -175.5z" />
<glyph unicode="&#xeb;" horiz-adv-x="565" d="M20 434q0 14 2.5 51t9.5 83t23.5 96.5t45 91.5t73.5 67.5t109 26.5q66 0 110.5 -29.5t73.5 -75t46 -100.5t28 -106v-9q0 -35 -30 -55t-75 -30.5t-98 -13.5t-98 -3h-68q-45 0 -45 -4v-25q2 -74 6 -144.5t22.5 -126.5t56.5 -91t105 -35q41 0 74 15.5t55.5 37t35 42 t14.5 30.5q0 4 2 6q0 12 -6.5 33.5t-6.5 40.5q0 10 5.5 21.5t19.5 11.5q12 0 17 -13.5t5 -25.5t-4 -28.5t-10 -31t-11 -25.5l-5 -10q-12 -20 -32.5 -42.5t-47.5 -42t-58.5 -32t-68.5 -12.5q-63 0 -108.5 29t-76 74t-49 99t-27.5 104.5t-11.5 91.5t-2.5 59zM105 1092 q0 25 17 42t44 17q25 0 43 -17.5t18 -41.5q0 -27 -18 -44.5t-43 -17.5q-27 0 -44 17.5t-17 44.5zM127 475q0 -10 47 -19.5t111 -9.5q37 0 73.5 4.5t66.5 13.5t50.5 24.5t22.5 39.5q0 29 -5.5 62t-15.5 67q-6 18 -19.5 48t-34 59t-49 49.5t-65.5 20.5q-39 0 -71.5 -16.5 t-57 -57.5t-39 -109.5t-14.5 -175.5zM342 1092q0 25 17.5 42t44.5 17q25 0 43 -17.5t18 -41.5q0 -27 -18 -44.5t-43 -17.5q-27 0 -44.5 17.5t-17.5 44.5z" />
<glyph unicode="&#xed;" horiz-adv-x="464" d="M33 1034q-4 10 6 12.5t24 2.5q27 0 74 3t78 17q8 4 14 8q33 18 45.5 38l22.5 36q8 10 21.5 21.5t33.5 13.5q10 2 17.5 1t13.5 -3q4 -2 9 -4t9 -4q12 -4 24.5 -23t12.5 -29q0 -35 -10 -51t-27 -26q-16 -12 -34.5 -15.5t-34.5 -3.5h-264h2h-23.5t-13.5 6zM45 0q-4 10 7 12 t26 2q12 0 29.5 -1t35 3t28.5 15.5t11 38.5v688q0 25 -12 37t-28.5 16t-34 3t-29.5 -1q-14 0 -25.5 2t-7.5 12q2 6 16.5 6.5t28.5 0.5h125q20 -4 37 -13q14 -8 26.5 -23.5t12.5 -41.5v-62v-10v-2v-612q0 -27 11 -38.5t27.5 -15.5t35 -3t30.5 1q14 0 24.5 -2t8.5 -12 q-4 -6 -18.5 -6h-26.5l-125 6h-43l-125 -6h-28.5t-16.5 6z" />
<glyph unicode="&#xef;" horiz-adv-x="448" d="M-6 1085q0 25 17.5 42.5t43.5 17.5q25 0 43.5 -17.5t18.5 -42.5q0 -27 -18.5 -44t-43.5 -17q-27 0 -44 17.5t-17 43.5zM29 0q-4 10 7 12t25 2q12 0 30 -1t35 3t28.5 15.5t11.5 38.5v688q0 25 -12.5 37t-28.5 16t-33.5 3t-30.5 -1q-14 0 -25 2t-7 12q2 6 16 6.5t29 0.5 h125q20 -4 37 -13q14 -8 26 -23.5t12 -41.5v-62v-10v-2v-612q0 -27 11.5 -38.5t28 -15.5t35 -3t30.5 1q14 0 24.5 -2t8.5 -12q-4 -6 -18.5 -6h-26.5l-125 6h-43l-125 -6h-28.5t-16.5 6zM231 1085q0 25 17.5 42.5t44.5 17.5q25 0 43 -17.5t18 -42.5q0 -27 -18 -44t-43 -17 q-27 0 -44.5 17.5t-17.5 43.5z" />
<glyph unicode="&#xf1;" horiz-adv-x="849" d="M41 2q0 8 10.5 10t22.5 2q8 0 17 -1t20 -1q25 0 46 10.5t21 47.5v692q-2 35 -24.5 43t-47.5 8h-32q-33 0 -33 16q2 4 18 5h27h125q20 -4 37 -13q14 -8 26.5 -22.5t12.5 -40.5v-66v-18q45 100 126 138t169 38h10h8h16q2 -2 5 -2q2 0 4 -1t6 -1q16 -4 38.5 -19.5 t22.5 -54.5v-67v-19v6v-622q0 -37 21.5 -47.5t46.5 -10.5q10 0 19 1t18 1q6 0 19 -2t13 -14q-2 -4 -9 -5t-17 -1h-19l-125 8h-43l-96 -8h-22q-23 0 -23 10q0 8 10.5 8t22.5 2h31q18 0 31.5 10.5t13.5 47.5v710q-2 23 -7.5 31t-15.5 10q-4 0 -9 1t-9 -1h-17q-61 0 -103 -20.5 t-69.5 -55t-43 -79.5t-23.5 -95v-501q0 -37 14 -47.5t33 -10.5h51q10 0 11 -5t1 -7q-2 -6 -20 -6h-25l-98 8l-43 -2l-125 -6q-6 0 -13 -1t-14 -1q-18 0 -18 10zM160 1077v6q0 29 22 33h8q16 0 33 -11t29 -20q2 0 2 -1t2 -1q18 -10 36.5 -18t41.5 -8q18 0 34.5 4t32.5 10 q27 14 54.5 26.5t52.5 16.5q12 2 24.5 3t24.5 1q28 0 59 -6q20 -4 44 -13t28 -32v-8q0 -10 -6 -21.5t-23 -11.5q-16 0 -33.5 11.5t-29.5 21.5q-18 10 -37.5 19t-44.5 9q-18 0 -33.5 -4t-31.5 -10q-27 -14 -54.5 -26.5t-54.5 -16.5q-12 -2 -24.5 -3t-24.5 -1q-31 0 -58 6 q-20 4 -44.5 13.5t-28.5 31.5z" />
<glyph unicode="&#xf3;" horiz-adv-x="638" d="M23 440q0 16 1 47t6 69t16 80t34 83q6 10 18.5 28.5t32.5 38.5q35 31 78 44.5t84 15.5q4 0 11 1t15 1t14.5 -1t10.5 -1q41 -2 84 -15.5t80 -44.5q20 -20 32.5 -38.5t18.5 -28.5q35 -66 46 -136.5t11 -146.5q0 -14 -1 -51t-7 -84t-20.5 -98t-38.5 -94q-16 -27 -29.5 -41.5 t-21.5 -22.5q-51 -47 -93.5 -54t-64.5 -7h-41q-23 0 -66 7t-92 54q-10 8 -22.5 22.5t-28.5 41.5q-41 72 -54 158.5t-13 172.5zM118 1038q-4 10 6.5 12.5t24.5 2.5q27 0 74 3t78 17q8 4 14 8q33 18 45 38t23 36q8 10 21 21.5t34 13.5q10 2 17 1t14 -3q4 -2 9 -4t9 -4 q12 -4 24.5 -23t12.5 -29q0 -35 -10.5 -51t-26.5 -26q-16 -12 -34.5 -15.5t-35.5 -3.5h-264h2h-23.5t-13.5 6zM131 438q2 -66 3 -132t10.5 -123.5t31 -101.5t64.5 -65q14 -6 35.5 -9t43.5 -3q51 0 80 12q43 20 64.5 64.5t31 102t11.5 124t4 131.5v33q0 102 -13.5 171 t-37 111t-54 61.5t-67.5 21.5h-29h-10q-37 -2 -67.5 -20.5t-53 -59.5t-35 -108.5t-12.5 -166.5v-43z" />
<glyph unicode="&#xf6;" horiz-adv-x="638" d="M23 440q0 16 1 47t6 69t16 80t34 83q6 10 18.5 28.5t32.5 38.5q35 31 78 44.5t84 15.5q4 0 11 1t15 1t14.5 -1t10.5 -1q41 -2 84 -15.5t80 -44.5q20 -20 32.5 -38.5t18.5 -28.5q35 -66 46 -136.5t11 -146.5q0 -14 -1 -51t-7 -84t-20.5 -98t-38.5 -94q-16 -27 -29.5 -41.5 t-21.5 -22.5q-51 -47 -93.5 -54t-64.5 -7h-41q-23 0 -66 7t-92 54q-10 8 -22.5 22.5t-28.5 41.5q-41 72 -54 158.5t-13 172.5zM131 438q2 -66 3 -132t10.5 -123.5t31 -101.5t64.5 -65q14 -6 35.5 -9t43.5 -3q51 0 80 12q43 20 64.5 64.5t31 102t11.5 124t4 131.5v33 q0 102 -13.5 171t-37 111t-54 61.5t-67.5 21.5h-29h-10q-37 -2 -67.5 -20.5t-53 -59.5t-35 -108.5t-12.5 -166.5v-43zM142 1092q0 25 17 42t44 17q25 0 43 -17.5t18 -41.5q0 -27 -18 -44.5t-43 -17.5q-27 0 -44 17.5t-17 44.5zM379 1092q0 25 17.5 42t44.5 17q25 0 43 -17.5 t18 -41.5q0 -27 -18 -44.5t-43 -17.5q-27 0 -44.5 17.5t-17.5 44.5z" />
<glyph unicode="&#xfa;" horiz-adv-x="835" d="M23 827q2 6 16 6.5t27 0.5h124q20 -4 39 -13q14 -8 26.5 -23.5t12.5 -41.5v-72v-635q0 -23 5.5 -31t15.5 -10h22q2 2 8 2q61 6 104.5 27.5t72 56.5t44 78t23.5 92l2 492q0 27 -11 38t-28.5 15t-35 4h-29.5q-14 0 -25.5 2t-7.5 12q2 6 16.5 6.5t28.5 0.5h125q20 -4 37 -13 q14 -8 26.5 -23.5t12.5 -41.5v-72v-608q0 -25 12 -37t27.5 -15.5t34 -3.5h30.5t23.5 -2t7.5 -12q-2 -6 -16.5 -6h-26.5h-125q-23 4 -39 12t-27.5 23.5t-11.5 42.5v63v2v19q-45 -100 -126 -141t-167 -41h-6h-28h-5q-6 0 -10 2q-16 4 -39.5 20t-23.5 53v670v31q0 27 -11.5 38 t-28 15t-34.5 4h-31q-12 0 -23.5 2t-6.5 12zM217 1038q-4 10 6.5 12.5t24.5 2.5q27 0 74 3t78 17q8 4 14 8q33 18 45 38t23 36q8 10 21 21.5t34 13.5q10 2 17 1t14 -3q4 -2 9 -4t9 -4q12 -4 24.5 -23t12.5 -29q0 -35 -10.5 -51t-26.5 -26q-16 -12 -34.5 -15.5t-35.5 -3.5 h-264h2h-23.5t-13.5 6z" />
<glyph unicode="&#xfc;" horiz-adv-x="835" d="M23 827q2 6 16 6.5t27 0.5h124q20 -4 39 -13q14 -8 26.5 -23.5t12.5 -41.5v-72v-635q0 -23 5.5 -31t15.5 -10h22q2 2 8 2q61 6 104.5 27.5t72 56.5t44 78t23.5 92l2 492q0 27 -11 38t-28.5 15t-35 4h-29.5q-14 0 -25.5 2t-7.5 12q2 6 16.5 6.5t28.5 0.5h125q20 -4 37 -13 q14 -8 26.5 -23.5t12.5 -41.5v-72v-608q0 -25 12 -37t27.5 -15.5t34 -3.5h30.5t23.5 -2t7.5 -12q-2 -6 -16.5 -6h-26.5h-125q-23 4 -39 12t-27.5 23.5t-11.5 42.5v63v2v19q-45 -100 -126 -141t-167 -41h-6h-28h-5q-6 0 -10 2q-16 4 -39.5 20t-23.5 53v670v31q0 27 -11.5 38 t-28 15t-34.5 4h-31q-12 0 -23.5 2t-6.5 12zM240 1092q0 25 17 42t44 17q25 0 43 -17.5t18 -41.5q0 -27 -18 -44.5t-43 -17.5q-27 0 -44 17.5t-17 44.5zM477 1092q0 25 17.5 42t44.5 17q25 0 43 -17.5t18 -41.5q0 -27 -18 -44.5t-43 -17.5q-27 0 -44.5 17.5t-17.5 44.5z" />
<glyph unicode="&#xff;" horiz-adv-x="798" d="M12 -416q0 14 5.5 31.5t21.5 13.5q14 -4 17 -16t2 -26.5t-4 -30t-1 -25.5q2 -18 16.5 -31.5t33 -20.5t39 -9t36.5 2q14 4 29.5 9t29 20.5t28 44t26.5 77.5q12 43 23.5 87t20.5 83t16 70t11 43l15 63l-68 248l-164 537q-8 25 -19 38t-25.5 17t-29 4h-26.5t-22.5 2t-8.5 12 q4 8 17.5 7.5t25.5 -0.5h121h41h80q12 0 25.5 1t15.5 -8q4 -10 -6 -12t-25 -2q-12 0 -26.5 1t-23.5 -4t-13 -17.5t6 -38.5l170 -551q2 0 2 -2q4 -8 12 0l43 159q4 14 14.5 49t21.5 80.5t22.5 95.5t19.5 94t10 75.5t-6 40.5q-18 20 -29.5 19t-44.5 -1q-14 0 -24 2t-6 12 q2 8 16 7.5t27 -0.5h71h41h121q12 0 25.5 1t17.5 -8q2 -10 -8 -12t-23 -2q-33 0 -68.5 1t-53.5 -19q-8 -8 -19.5 -41t-24 -77t-24.5 -94.5t-23.5 -96.5t-20.5 -81.5t-13 -50.5l-58 -221q0 -6 -2 -11t-4 -11v-5v-2l-53 -206q-6 -23 -25.5 -93.5t-38.5 -148.5q-4 -14 -7 -27.5 t-7 -25.5v-6h-2q-8 -25 -16.5 -48.5t-24.5 -46.5q-10 -20 -33.5 -33.5t-46.5 -17.5q-20 -4 -47 -1t-53 20q-68 41 -68 114zM222 1092q0 25 17 42t44 17q25 0 43 -17.5t18 -41.5q0 -27 -18 -44.5t-43 -17.5q-27 0 -44 17.5t-17 44.5zM459 1092q0 25 17.5 42t44.5 17 q25 0 43 -17.5t18 -41.5q0 -27 -18 -44.5t-43 -17.5q-27 0 -44.5 17.5t-17.5 44.5z" />
<glyph unicode="&#x152;" horiz-adv-x="3411" d="M903 416v8v272v271v8q2 4 2 14v10q2 10 3 18.5t5 18.5q4 20 10.5 39t12.5 35q23 53 64.5 107.5t113.5 101.5q33 18 70 35q33 14 73.5 25.5t88.5 11.5h10h18h31h119h41h121h24.5t56 -1t76.5 -1h88h234q-2 -76 -1 -162t1 -168q0 -10 -2 -25.5t-13 -11.5q-10 2 -12 13.5 t-1 25.5t3 29.5t2 29.5q-4 160 -106 223q-14 8 -50 13.5t-83.5 8.5t-98.5 4t-94 1q-33 4 -57 -2q-23 -4 -39.5 -16.5t-16.5 -38.5v-389q14 -2 36 -3t44.5 -1h44h37.5q47 0 100.5 2t75.5 24q14 14 18.5 38t14.5 44t18.5 44t26.5 24q6 0 4 -8.5t-8 -19.5t-14 -25.5t-13 -26.5 q-25 -66 -16.5 -125.5t29 -115.5t43 -109.5t28.5 -104.5t-10 -106q-6 -20 -17 -44t-34 -26q-33 -4 -37 27q-4 16 10.5 34.5t24.5 32.5q14 16 24.5 36t12.5 42q4 27 -4 49.5t-17 44.5q-14 43 -30 84q-6 18 -13.5 43t-16.5 47.5t-21.5 40t-28.5 25.5q-29 12 -68 10t-80 -2 q-31 0 -80 -1t-84 -3v-817q0 -27 11.5 -38t27 -15.5t33 -4.5h29.5h4h100.5t106.5 3.5t92 7.5t55 14q100 63 105 223q0 14 -2 29.5t-3.5 29t1 23.5t12.5 15q10 4 12 -11.5t2 -23.5q2 -84 0 -170t0 -160h-481h-16h-121h-41h-119h-29h-20h-10q-47 0 -88 10t-74 25 q-37 16 -70 37q-72 47 -114 101t-64 108q-6 16 -12 34.5t-11 38.5q-4 10 -5 18.5t-3 18.5v10q0 10 -2 15zM1008 340q0 -6 2 -10q6 -49 18 -88q2 -4 3 -8.5t3 -8.5q4 -10 11.5 -22.5t15.5 -24.5l2 -4q4 -6 10 -13t10 -16q33 -41 72 -64.5t74 -36.5t64.5 -17t43.5 -4v2 q4 -2 13 -2v2v-2h8t35.5 -1.5t38.5 -1.5q23 2 42 12.5t19 45.5v1235q0 39 -22.5 48t-47.5 9h-12t-21.5 -1t-20.5 -1h-11h-8h-13q-14 0 -43.5 -4t-64.5 -16.5t-74 -37t-72 -65.5q-4 -6 -8 -11t-8 -11q0 -2 -4 -6l-2 -3q-10 -16 -16.5 -29.5t-12.5 -25.5q-2 -2 -2 -3t-2 -3 q-12 -43 -18 -92q-2 -4 -2 -10v-355v-356z" />
<glyph unicode="&#x153;" horiz-adv-x="1101" d="M37 440q0 16 1 47t6 69t16 80t34 83q6 10 18.5 28.5t32.5 38.5q35 31 78 44.5t84 15.5q4 0 11 1t15 1t14.5 -1t10.5 -1q41 -2 84 -15.5t80 -44.5q20 -20 32.5 -38.5t18.5 -28.5q35 -66 46 -136.5t11 -146.5q0 -14 -1 -51t-7 -84t-20.5 -98t-38.5 -94q-16 -27 -29.5 -41.5 t-21.5 -22.5q-51 -47 -93.5 -54t-64.5 -7h-41q-23 0 -66 7t-92 54q-10 8 -22.5 22.5t-28.5 41.5q-41 72 -54 158.5t-13 172.5zM145 438q2 -66 3 -132t10.5 -123.5t31 -101.5t64.5 -65q14 -6 35.5 -9t43.5 -3q51 0 80 12q43 20 64.5 64.5t31 102t11.5 124t4 131.5v33 q0 102 -13.5 171t-37 111t-54 61.5t-67.5 21.5h-29h-10q-37 -2 -67.5 -20.5t-53 -59.5t-35 -108.5t-12.5 -166.5v-43zM526 434q0 14 2.5 51t9.5 83t23.5 96.5t45 91.5t73.5 67.5t109 26.5q66 0 110.5 -29.5t73.5 -75t46 -100.5t28 -106v-9q0 -35 -30 -55t-75 -30.5 t-98 -13.5t-98 -3h-68q-45 0 -45 -4v-25q2 -74 6 -144.5t22.5 -126.5t56.5 -91t105 -35q41 0 74 15.5t55.5 37t35 42t14.5 30.5q0 4 2 6q0 12 -6.5 33.5t-6.5 40.5q0 10 5.5 21.5t19.5 11.5q12 0 17 -13.5t5 -25.5t-4 -28.5t-10 -31t-11 -25.5l-5 -10q-12 -20 -32.5 -42.5 t-47.5 -42t-58.5 -32t-68.5 -12.5q-63 0 -108.5 29t-76 74t-49 99t-27.5 104.5t-11.5 91.5t-2.5 59zM633 475q0 -10 47 -19.5t111 -9.5q37 0 73.5 4.5t66.5 13.5t50.5 24.5t22.5 39.5q0 29 -5.5 62t-15.5 67q-6 18 -19.5 48t-34 59t-49 49.5t-65.5 20.5q-39 0 -71.5 -16.5 t-57 -57.5t-39 -109.5t-14.5 -175.5z" />
<glyph unicode="&#x178;" horiz-adv-x="1116" d="M84 1380q2 6 16 6h27h121h43h120h25.5t15.5 -6q4 -10 -6 -12t-22 -2q-33 0 -69 1t-54 -17q-6 -8 7 -45t35.5 -87.5t48.5 -104.5t42 -95q4 -8 25.5 -53t48.5 -101q14 -23 39.5 -19.5t52.5 58.5l192 406q10 25 0 36t-28.5 16t-40 4t-33.5 -1q-12 2 -23.5 4t-7.5 12 q2 6 16.5 6h26.5h285h26.5t16.5 -6q4 -10 -6 -12t-25 -4q-12 0 -25.5 1t-26.5 -3t-25.5 -15.5t-22.5 -37.5l-256 -541v-694q0 -27 11 -38t26.5 -15.5t33 -4.5h29.5q14 0 24.5 -2t8.5 -12q-4 -6 -18.5 -6h-26.5l-121 4h-43l-121 -4h-25.5t-15.5 6q-4 10 7.5 12t21.5 2h30.5 t34 4.5t26.5 15.5t11 38v631q0 41 -8 70.5t-16 47.5q-35 68 -60.5 122t-29.5 63q-16 41 -45 97t-57.5 107.5t-52 90t-30.5 47.5q-18 18 -54 17t-69 -1q-14 0 -24 2t-6 12zM381 1479q0 25 17 42t44 17q25 0 43 -17.5t18 -41.5q0 -27 -18 -44.5t-43 -17.5q-27 0 -44 17.5 t-17 44.5zM618 1479q0 25 17.5 42t44.5 17q25 0 43 -17.5t18 -41.5q0 -27 -18 -44.5t-43 -17.5q-27 0 -44.5 17.5t-17.5 44.5z" />
<glyph unicode="&#x2000;" horiz-adv-x="815" />
<glyph unicode="&#x2001;" horiz-adv-x="1630" />
<glyph unicode="&#x2002;" horiz-adv-x="815" />
<glyph unicode="&#x2003;" horiz-adv-x="1630" />
<glyph unicode="&#x2004;" horiz-adv-x="543" />
<glyph unicode="&#x2005;" horiz-adv-x="407" />
<glyph unicode="&#x2006;" horiz-adv-x="271" />
<glyph unicode="&#x2007;" horiz-adv-x="271" />
<glyph unicode="&#x2008;" horiz-adv-x="203" />
<glyph unicode="&#x2009;" horiz-adv-x="326" />
<glyph unicode="&#x200a;" horiz-adv-x="90" />
<glyph unicode="&#x2019;" />
<glyph unicode="&#x201c;" horiz-adv-x="247" d="M20 1411q0 29 2.5 63.5t12.5 67.5q10 23 23.5 52.5t35.5 35.5q23 0 36 -10t13 -27q0 -2 1 -4t1 -4q0 -18 -17 -37.5t-28 -34.5q-14 -29 -26.5 -51t-18.5 -51v-35q2 -4 2 -10q0 -12 -12 -12q-8 0 -10 8q-6 10 -8 24.5t-7 24.5zM174 1411q0 29 2 63.5t12 67.5 q10 23 23.5 52.5t36.5 35.5q23 0 36 -10t13 -27q0 -2 1 -4t1 -4q0 -18 -17.5 -37.5t-27.5 -34.5q-14 -29 -26.5 -51t-18.5 -51v-35q2 -4 2 -10q0 -12 -12 -12q-9 0 -11 8q-6 10 -8 24.5t-6 24.5z" />
<glyph unicode="&#x201d;" horiz-adv-x="278" d="M23 1386q0 18 17 38t28 34q14 29 26 51.5t19 51.5v34q-2 4 -2 11q0 12 12 12q8 0 10 -8q6 -10 8 -24.5t6 -24.5q0 -29 -2 -64t-12 -67q-10 -23 -23.5 -52.5t-35.5 -36.5q-23 0 -36 10.5t-13 26.5q0 2 -1 4t-1 4zM176 1386q0 18 17.5 38t27.5 34q14 29 26.5 51.5 t18.5 51.5v34q-2 4 -2 11q0 12 12 12q9 0 11 -8q6 -10 8 -24.5t6 -24.5q0 -29 -2 -64t-12 -67q-10 -23 -23.5 -52.5t-36.5 -36.5q-23 0 -36 10.5t-13 26.5q0 2 -1 4t-1 4z" />
<glyph unicode="&#x2022;" horiz-adv-x="331" d="M25 674q0 4 3 9t3 11l-4 4q-2 2 -2 9q6 0 6 14q4 0 2 4t-2 10q14 0 14 13v14l12 6q0 14 9 14q0 6 12 6q0 14 6 15h6q8 0 8 6q2 0 4 2q4 4 11 4h12q0 14 14 14l4 -4q4 -4 9 -4l4 4q4 4 10 4l4 -4q4 -4 10 -4l13 8q14 0 14 -14h12q6 0 10 -4q2 -2 4 -2q0 -6 7 -6h8 q0 -2 2 -4q4 -4 4 -11q14 0 14 -6q0 -2 2 -4q4 -4 4 -10l5 -4q2 -2 8 -2v-14q0 -4 4 -9l4 -4q2 -4 2 -10q0 -2 -2 -4q0 -8 2 -10l4 -4v-13v-20l-4 -4q-2 -2 -2 -11q2 -2 2 -4q0 -6 -2 -8l-4 -4q-4 -4 -4 -10v-15q-4 0 -8 -4q-2 -2 -5 -2q0 -4 -4 -8q-2 -2 -2 -4q0 -8 -14 -8 q0 -4 -4 -8q-2 -2 -2 -4q-4 -2 -8 -2q-6 -4 -7 -7q-4 0 -6 -3t-8 -3h-12l-14 -14l-13 8l-14 -8q-6 0 -10 4l-4 4q-4 0 -9 -4l-4 -4q-4 6 -9 8t-5 6h-21l-6 6q-4 4 -6 4t-4 3q-2 0 -4 2q-6 0 -6 12q-12 0 -12 8q-8 0 -9 12l-12 6v15q0 14 -14 14q0 4 2 8t-2 4q0 14 -6 15z " />
<glyph unicode="&#x202f;" horiz-adv-x="326" />
<glyph unicode="&#x2039;" d="M455 319q0 31 8 45.5t22 24.5q8 6 17 8q-8 2 -17 9q-14 10 -22 24t-8 43q0 10 10 25.5t20 19.5q8 6 17 8q16 4 26 2q18 -2 30.5 -11t19.5 -19q10 -14 20 -31.5t39 -34.5l12 -6q29 -12 69.5 -15t63.5 -3q27 0 27 -11q0 -10 -27 -10q-23 0 -63.5 -3t-69.5 -15l-12 -7 q-29 -16 -39 -34.5t-20 -30.5q-6 -10 -18.5 -19.5t-31.5 -11.5q-10 -2 -26 2q-8 2 -17 8q-10 4 -20 19.5t-10 23.5zM457 -125q4 10 19.5 18.5t25.5 14.5q14 8 26.5 17t20.5 24q10 16 12 33.5t4 33.5t2 33t2 33q2 31 10.5 75t24.5 74q14 29 37 52l10 10t13 10q10 18 28 19 q8 0 5 -10.5t-11 -25t-18.5 -32t-16.5 -31.5q-29 -80 -18.5 -153.5t35 -142t53.5 -134t35 -129.5q10 -66 -13 -131q-6 -23 -20 -52.5t-41 -33.5q-16 0 -30.5 8t-16.5 25q-4 23 14.5 44t30.5 38q16 23 28.5 46t14.5 52q4 31 -4 59.5t-17 53.5q-10 27 -20 52t-20 52 q-10 25 -19.5 56.5t-18 65.5t-12.5 68.5t-2 63.5q4 25 8.5 52.5t14.5 56.5q8 16 10 26q-33 -37 -45 -78t-15 -84t-3 -83.5t-13 -75.5q-8 -37 -39 -70q-10 -10 -24.5 -22.5t-28.5 -6.5q-10 4 -16 11.5t-2 17.5zM457 928q-4 10 2 17t16 11q14 4 28.5 -8t24.5 -22 q31 -35 39 -68q12 -35 12.5 -76t3.5 -84t15 -85t45 -78q-2 14 -10 28q-10 27 -14.5 54.5t-8.5 52.5q-2 29 2 63.5t12.5 68.5t17.5 65.5t20 56.5q10 27 20 53.5t20 50.5q8 27 16.5 54.5t4.5 58.5q-2 29 -14.5 52.5t-28.5 45.5q-12 16 -30.5 38.5t-14.5 43.5q2 16 16.5 25.5 t30.5 7.5q27 -2 41 -32t20 -52q23 -66 13 -133q-6 -63 -35 -128t-53.5 -133.5t-34.5 -142.5t18 -155q6 -14 16.5 -32t18.5 -32t11 -23.5t-5 -9.5q-18 0 -28 17q-6 4 -12.5 10t-10.5 10q-10 12 -20.5 25.5t-16.5 27.5q-16 29 -24.5 74t-10.5 76q-2 16 -2 31.5t-2 31.5t-4 34 t-12 34q-8 16 -20.5 24.5t-26.5 16.5q-10 6 -25.5 14t-19.5 21z" />
<glyph unicode="&#x203a;" d="M764 426q0 10 27 10q23 0 63.5 3t69.5 16l12 6q29 16 39 33.5t20 31.5q8 10 19.5 19.5t29.5 11.5q14 2 27 -2q8 -2 16 -8q10 -4 20.5 -19.5t10.5 -25.5q0 -29 -8 -43.5t-23 -24.5q-8 -6 -16 -8q8 -2 16 -8q14 -10 22.5 -24.5t8.5 -45.5q0 -8 -10 -23.5t-21 -19.5 q-8 -6 -16 -8q-12 -4 -27 -2q-18 2 -29 11t-20 20q-10 12 -20 30.5t-39 34.5l-12 6q-29 12 -70 15.5t-63 3.5q-27 0 -27 10zM816 -379.5q-3 33.5 1 66.5q6 63 35 127.5t53.5 133t34.5 142.5t-18 156q-6 14 -16.5 30.5t-18.5 31t-11.5 24.5t7.5 10q16 0 28 -16l21 -21 q25 -29 39 -53q16 -29 23 -74t12 -76v-32.5t2 -32.5t4 -32.5t12 -33.5q10 -16 21.5 -24.5t25.5 -16.5q10 -6 25.5 -14t19.5 -20q6 -20 -18 -29q-14 -4 -28.5 8t-25.5 23q-27 29 -38 67q-12 35 -13.5 76t-4.5 84t-14 85t-44 79q4 -8 5 -15.5t5 -13.5q18 -55 23 -106 q2 -29 -2.5 -64t-12.5 -69.5t-18 -66.5t-19 -56q-10 -25 -20 -51.5t-19 -51.5q-10 -27 -18 -54.5t-4 -59.5q4 -29 16.5 -51.5t28.5 -45.5q10 -16 28.5 -38.5t16.5 -43.5q-4 -16 -17.5 -25t-31.5 -7q-27 2 -40 31.5t-22 52.5q-10 33 -13 66.5zM816 1224.5q3 32.5 13 65.5 q8 23 21.5 52.5t40.5 33.5q18 0 31.5 -8t17.5 -25q2 -23 -16.5 -45t-28.5 -38q-16 -23 -28.5 -45.5t-16.5 -51.5q-4 -31 4 -59.5t18 -54.5q8 -25 18.5 -50.5t20.5 -52.5q8 -25 18.5 -56.5t18.5 -65t12.5 -68.5t2.5 -64q-2 -25 -7.5 -53.5t-15.5 -54.5q-4 -6 -5 -13.5 t-5 -13.5q33 37 44 78t14 84t4 84t14 76q6 18 15 35.5t23 31.5q10 10 24.5 23.5t29.5 7.5q25 -8 18 -29q-4 -12 -19.5 -19t-25.5 -14q-14 -10 -25.5 -18t-21.5 -23q-10 -16 -12 -33.5t-4 -33.5t-2 -32.5v-33.5q-4 -31 -11.5 -74.5t-23.5 -74.5q-8 -12 -18.5 -26.5 t-20.5 -24.5l-21 -21q-14 -18 -28 -18q-10 0 -7 10t11 24.5t18.5 32t16.5 31.5q29 80 18.5 153.5t-35 142.5t-53.5 134.5t-35 128.5q-4 33 -1 65.5z" />
<glyph unicode="&#x205f;" horiz-adv-x="407" />
<glyph unicode="&#xe000;" horiz-adv-x="849" d="M0 0v850h850v-850h-850z" />
</font>
</defs>
</svg>
